<?xml version="1.0" encoding="UTF-8" standalone="no"?>
<svg
   xmlns:dc="http://purl.org/dc/elements/1.1/"
   xmlns:cc="http://creativecommons.org/ns#"
   xmlns:rdf="http://www.w3.org/1999/02/22-rdf-syntax-ns#"
   xmlns:svg="http://www.w3.org/2000/svg"
   xmlns="http://www.w3.org/2000/svg"
   xmlns:sodipodi="http://sodipodi.sourceforge.net/DTD/sodipodi-0.dtd"
   xmlns:inkscape="http://www.inkscape.org/namespaces/inkscape"
   inkscape:version="1.0 (4035a4f, 2020-05-01)"
   sodipodi:docname="slime-fg.svg"
   id="svg61"
   version="1.1"
   viewBox="0 0 1793.43 901.46">
  <metadata
     id="metadata65">
    <rdf:RDF>
      <cc:Work
         rdf:about="">
        <dc:format>image/svg+xml</dc:format>
        <dc:type
           rdf:resource="http://purl.org/dc/dcmitype/StillImage" />
      </cc:Work>
    </rdf:RDF>
  </metadata>
  <sodipodi:namedview
     inkscape:current-layer="svg61"
     inkscape:window-maximized="0"
     inkscape:window-y="23"
     inkscape:window-x="0"
     inkscape:cy="450.73001"
     inkscape:cx="645.25977"
     inkscape:zoom="0.58658546"
     showgrid="false"
     id="namedview63"
     inkscape:window-height="731"
     inkscape:window-width="1403"
     inkscape:pageshadow="2"
     inkscape:pageopacity="0"
     guidetolerance="10"
     gridtolerance="10"
     objecttolerance="10"
     borderopacity="1"
     bordercolor="#666666"
     pagecolor="#ffffff" />
  <defs
     id="mold-fg__defs">
    <style>
      #mold-fg{fill:#767793;opacity:0.05;isolation:isolate;}</style>
  </defs>
  <path id="mold-fg" class="mold-fg"
     d="m 1347.9,658.48 c -1.83,-0.16 -0.29,-4.84 0.6,-5.89 1.5,1.59 0,4.41 -0.6,5.89 z m 247.4,-479.8 c -0.8,-10.3 -6.1,1.5 -6.6,6 4.2,-0.6 4.2,-3.9 6.6,-6 z M 1351.1,218 c 3.1,0.16 7.16,-1.45 9.9,-2.1 5,-3.22 -1.78,-20.33 -5.3,-12 v 2 c -1,-0.29 -0.63,0.72 -0.7,1.31 h -0.7 c 0.7,2.2 -2.8,2.2 -2.6,4 h -1.3 c 0,1.65 -5.67,2.58 -6.6,2.71 -4.92,2.5 -4.16,17 0.7,8.2 1.89,-0.7 2.3,-2.65 4.6,-2.71 v -0.7 c 0.51,-0.21 2.49,0.48 2,-0.71 z m 258,-136 c 2.15,-2.7 6.42,-3.06 8.6,-6.7 2.93,-4.69 9,-8.55 11.2,-13.89 -7.33,0.56 -11,3.69 -13.9,9.3 -4.09,6.22 -8,5.38 -11.2,11.2 1.03,3.84 3.2,1.99 5.3,0.09 z m -37.5,122.3 c 1.19,0.49 0.54,-1.49 0.7,-2 1.19,0.5 0.54,-1.49 0.7,-2 1.19,0.5 0.54,-1.49 0.7,-2 1,0.32 0.63,-0.73 0.7,-1.3 0.92,-1.79 5.43,-4.39 6,-6.59 -10.91,-3.5 -17.4,24.29 -8.8,13.87 z m -152.1,28.3 c -0.35,3.7 1.72,1.23 2,-1.3 -1.8,-0.3 -1,0.58 -2,1.28 z m -90.1,-14.5 c 2.61,-4.85 -7,-3 -7.9,0.61 0.1,5.17 7.2,1.87 7.9,-0.63 z m 18.4,447.7 c 1.55,-0.48 0.16,-2.58 -0.7,-3.29 -3.2,3.49 -2.48,11.41 0.7,3.27 z m 78.3,-442.4 c -0.3,-13.3 -11.3,-0.7 -5.2,6 2.9,-0.92 3.2,-4.22 5.2,-6.02 z M 1336,85.78 c -1.15,-0.16 -1.47,0.15 -1.3,1.31 1.15,0.16 1.47,-0.15 1.3,-1.31 z m 201.4,82.7 c -0.43,-2.51 0.83,-4.78 0.7,-6.9 2.24,-5.06 0.09,-15.7 2.8,-19.79 2.33,-5.4 7.21,-10.31 13.3,-13.3 -7.94,-4.52 -13.93,4.75 -17.1,9.79 -3,0.31 -1.9,17.22 -2.1,21 -0.4,2 -5.3,8.6 -1.9,11.2 0.43,0.4 1,10.66 0.7,12.5 6.3,-0.3 3.2,-10.7 3.6,-14.5 z m 26.9,41.8 c -1.51,0.19 -1.94,0.93 -2.6,1.91 0.07,1.54 3.3,-0.58 2.6,-1.91 z m -157.2,506.1 c -1.8,16.9 13.6,-6.1 3.9,-4.6 -1.48,1.77 -2.67,2.5 -3.9,4.6 z m -45.4,-388.3 c -0.43,4.14 2,0.34 2.6,-2 -1.7,-0.4 -1.6,1.2 -2.6,2 z m 1.9,-300.9 c 2.9,-0.7 5.2,-6.7 5.3,-10.5 -4.2,1 -4.6,6 -5.3,10.5 z m -12.6,61.2 c -2.11,3.46 4.37,8.06 7.3,10.6 1.7,5.3 4.6,9.8 9.2,4.6 -0.1,-1.9 0.8,-6.1 -2,-6.6 -5.7,-8.7 -2,-10.9 -14.5,-8.6 z m 138.3,447.8 c 0.21,-8.29 -5.2,-10.16 -1.29,-0.69 1.15,-0.28 0.25,0.94 1.29,0.69 z M 1370.1,68.68 a 23.11,23.11 0 0 0 -2,9.2 c 5.66,0.12 7.35,-11.09 2,-9.2 z m 223.2,668.8 c -4.4,-1.6 -7.6,8.3 -8.5,11.8 4.7,-0.1 8.6,-6.8 8.5,-11.8 z m -221.8,-438.4 c 2.72,2.71 6.56,-7.82 2.6,-6.5 -2.2,2.7 -4.1,1.8 -2.6,6.5 z m 186.3,374.5 c 0.43,3 4.8,10.94 7.3,9.31 -1,-4.26 -3,-18.3 -9.9,-19.81 -1.3,2.92 0.3,9.3 2.6,10.5 z m 23.7,46.1 c 0.76,0 2.27,1.35 2,0 h 0.7 c 1.35,-28.58 -15.78,-18.83 -2.7,0 z m -307.2,63.2 c -10.16,21.61 22.28,11.53 10.3,0.6 0,-2.17 -2.77,-3.44 -2.6,-5.9 -1,0.27 -0.62,-0.69 -0.7,-1.3 -1.33,-1 -3.36,-4.53 -4,-6.59 -2.3,-0.61 -0.4,-7.31 -2.7,-7.91 v -3.3 c -1.19,0.49 -0.54,-1.49 -0.7,-2 -1.63,0.53 0.23,-2.52 -1.4,-2 -0.17,-0.5 0.49,-2.49 -0.7,-2 -0.4,-0.53 -1,-10 -0.7,-11.91 -1.19,0.51 -0.54,-1.5 -0.7,-2 -1.6,0.4 -0.4,-3 -2.1,-2.6 0,-0.51 0.2,-1.4 -0.7,-1.09 -0.14,-0.41 0.47,-2.57 -0.7,-2 -0.14,-0.4 0.47,-2.57 -0.7,-2 -0.8,-3.24 -2,-7.84 -6.7,-9.9 0.37,6.88 2,14.63 5.4,17.69 0.19,0.58 -0.51,2.44 0.7,2 0.19,0.57 -0.5,2.45 0.7,2 a 144.34,144.34 0 0 1 0.7,17.8 c 6.88,9.27 8.68,9.8 7.3,22.41 z m -8.7,-710.1 c -15.21,3.88 -4.89,-0.14 -4.7,13 3.34,-4.37 5.89,-17.07 11.9,-11.09 0.62,0 0.79,0 0.7,-0.71 3.8,1.2 1.4,-7.4 4,-7.9 v -2 c 11.6,-11 -2.92,-19.31 -11.3,-26.2 -5,-4.61 0.27,9.46 2.6,10.5 9.43,6.62 5.91,19.87 -3.2,24.4 z m 32.8,-6.7 c 0.55,-2.51 -1.71,-5.83 -2.7,-3.9 -2.05,1.25 0.09,5.08 2.7,3.9 z m -18.4,487.1 c 18.4,-13.24 -0.44,-19.16 -9.9,-32.3 -7.4,-1 -2.8,9.9 -7.3,11.9 v 2 c -2.59,1.31 4.09,10.46 -2.7,15.2 -1.63,3 -3.83,12.35 1.4,7.2 v -2 c 1,0.3 0.62,-0.71 0.7,-1.3 9.89,-9.7 0.13,-10.49 4.1,-15.2 0.81,-5 6.22,-2.34 8.5,0 2.99,3.96 -2.29,26.14 5.2,14.5 z m 31,-333.8 c -0.62,-9.13 -19.3,-0.44 -23.7,-3.19 -14.37,-0.12 4.94,8.64 7.9,5.89 6.6,-4.8 9.3,7.7 15.8,-2.7 z m -99.5,-80.8 c -6.2,0 -10.2,11.5 -1.9,9.8 5.07,2.75 3.05,-7.58 1.9,-9.8 z m 52,66.4 c -33.45,14.73 -0.19,8.61 11.8,7.9 -1,-2.89 -3.14,-4.2 -5.3,-5.2 -1.9,-2.68 -2.7,-6.4 -6.5,-2.68 z m 49.4,-25.7 c 1.65,-5.07 -2.69,-4 -5.2,-1.89 -0.2,2.79 3.6,1.79 5.2,1.89 z m -83.5,29 c -8.57,5.64 -7.73,0.38 -14,-3.29 -10.3,14.18 9.13,4.46 12,15.8 7.2,1.89 -2.6,-8.21 16.4,-5.21 -3.9,-14.8 -4,-8.1 -14.4,-7.3 z m 13.7,32.2 c -2.19,2 1.09,5.55 3.9,5.3 -0.6,-3.1 -2.2,-3.3 -3.9,-5.3 z m -6.4,-212.6 z m 3.2,-5.9 c -3.09,0.1 -5.32,4.22 -3.2,5.21 1.75,1.94 6.38,-2.56 3.2,-5.19 z m -28.4,444.3 c -1.4,3.9 1.1,10.5 5.3,7.9 -0.1,-4.3 -2.2,-6.5 -5.3,-7.9 z m 128.3,64.6 c 0.53,0 1.64,0.27 1.3,-0.69 h 2 c 6.42,-7.52 -6.53,-1.8 -9.9,-2 -6.8,8.39 -5.8,11.39 -17.2,14.59 -5,-0.13 -1.7,7.42 0.9,4.5 6,-0.74 8.2,2.35 9.9,7.31 7.74,6 13.07,-3.35 4.6,-6.51 0.1,-1.6 -2.7,-1.4 -2,-3.3 -2.54,-6.38 7.24,-11.13 10.4,-13.9 z m -1.9,148 c 1.19,0.5 0.54,-1.49 0.7,-2 -1.19,-0.49 -0.54,1.5 -0.7,2 z m 32.3,-73.7 c 1.63,0.53 -0.23,-2.52 1.4,-2 v -2 c 1.18,0.51 0.54,-1.5 0.7,-2 1.18,0.51 0.54,-1.5 0.7,-2 1.18,0.51 0.54,-1.5 0.7,-2 1.5,0.1 0.8,-2.8 1.4,-3.9 12.57,-19.44 -7.26,-7.22 -5.4,5.21 -1.19,-0.48 -0.54,1.48 -0.7,2 -1.19,-0.49 -0.54,1.48 -0.7,2 -1.27,-0.61 -0.5,2.14 -0.7,2.6 -2.2,0.19 0.2,6.39 -2.1,6.59 v 3.9 c -1.27,-0.61 -0.5,2.16 -0.7,2.61 -1.8,0.69 -0.7,5.19 -1.4,7.19 4,5.71 -2.48,14.72 -2.5,19.7 19,0.86 1.68,-12.37 8.6,-29 v 0.3 c 0.2,-3.1 0.4,-6.1 0.7,-9.2 z m -120.8,-481.1 c -2.67,2.9 -12.87,10.41 -8.2,12.5 9.84,-0.37 18.12,8 21.5,18 3.5,1.52 10.17,1.42 11.1,6.6 2.07,0.68 1.86,4.27 4.6,4 -0.4,1.59 3,0.39 2.6,2.09 12.1,-1.4 2.7,17.8 14.4,8.6 0.1,-6.1 -2,-3.6 -3.3,-6.6 -4,-0.3 -5.08,-4.88 -8.5,-5.3 -9.39,-12.68 -34.6,-22.73 -34.2,-39.89 z m 137.2,544.3 c 8.08,7.4 0.86,-9.78 -3.3,-6.59 0.27,0.38 -0.68,4.67 0.7,3.89 0.58,1.78 1.08,2.78 2.6,2.7 z m 0,-452.2 c 1.93,0.64 1.14,-1.55 1.3,-2.6 -4.32,-0.58 -3.08,4.79 -1.3,2.6 z m -192.8,186.9 v 2.6 c 9.6,0.2 10.5,-11.6 0,-2.6 z m 220.8,-206 c -2.77,-6.36 -7.36,-10.88 -9.9,-17.8 -1,0.36 -2.9,-5.3 -2.7,-5.89 -1,0.3 -0.63,-0.73 -0.7,-1.31 -1.19,0.49 -0.54,-1.49 -0.7,-2 -1.56,0 -1.42,-7.71 -1.4,-9.79 -1.19,0.5 -0.54,-1.51 -0.7,-2 -1,0.37 -0.61,-0.85 -0.7,-1.4 -9.94,-10.06 -4.94,-39 -21.5,-48.1 -3,3.43 0.84,6.76 1.4,9.2 2.55,1.42 2.27,8.59 4.7,9.2 2.53,13.33 4.82,33.89 10.8,45.41 a 13.38,13.38 0 0 0 4,6.1 c 0.4,0.89 0.1,2.79 1.4,2.59 -0.32,1.87 1,0.74 0.7,2.6 1,-0.34 0.63,0.75 0.7,1.31 1,-0.35 0.63,0.75 0.7,1.3 1.85,1.17 2.17,5.28 4.6,6.59 1.88,3.72 4,9.2 8,10.61 4.26,2.95 3.7,-4.92 1.3,-6.62 z m -197.2,140.1 c 10.7,-6.63 12.06,-7.91 25.7,-5.29 -5.2,-9.75 -11.53,-20.92 -7.2,-32.9 -5.17,0 -4.73,3.89 -5.3,8.59 1.43,-0.39 0,1.71 1.4,1.3 v 2 c 1,-0.27 0.65,0.71 0.7,1.31 5.68,10.54 -4.3,21.6 -13.2,14.29 -4.43,-0.66 -1.35,5.24 -10.6,9.3 -0.4,0.16 -3.25,-0.53 -2.6,0.7 h -3.3 c 0.79,1.38 -3.54,0.44 -3.9,0.71 0.57,1 -8.68,2.94 -8.6,1.4 -15.79,3.24 26.55,3.73 26.9,-1.41 z m 70.3,279.9 c 1.6,0.4 0.4,-3 2.1,-2.6 v -2 c 1.6,0.4 0.4,-3 2.1,-2.6 v -2 c 1.26,0.62 0.5,-2.15 0.7,-2.6 1.63,0.54 -0.23,-2.52 1.4,-2 1,-7.13 11.79,-11.19 13.1,-17.2 1.2,-0.41 3.18,-12.79 1.4,-13.11 v -3.29 c -1.28,0.63 -0.49,-2.17 -0.7,-2.61 -2.5,-1.29 0,-6.39 -2.7,-7.89 -6.82,-0.8 1.67,12.78 -2,15.69 -0.3,0.68 0.64,3 -0.7,2.61 -0.25,0.7 0.55,2.34 -0.7,2 v 2.59 c -2,-0.2 -0.1,4.8 -2.1,4.6 V 588 c -1,-0.24 -0.61,0.69 -0.7,1.31 h -0.7 c 0.5,1.8 -1.8,1.4 -1.3,3.3 -3.05,2.22 -5.5,4.19 -8.6,6.6 -0.27,3.37 -1.77,6.09 -2,8.6 -1.44,-0.4 0,1.71 -1.4,1.3 -0.16,0.56 0.49,2.46 -0.7,2 -0.07,0.61 0.3,1.59 -0.7,1.3 -0.2,0.49 0.57,3.19 -0.7,2.6 v 3.3 c -1.33,-0.71 -0.46,2.91 -0.7,3.31 -1.27,-0.62 -0.5,2.15 -0.7,2.6 -1.18,-0.5 -0.54,1.5 -0.7,2 -1.18,-0.51 -0.54,1.5 -0.7,2 -1.7,0.74 -2.43,4.62 -3.4,7.19 -14.45,14.2 0.31,24.5 -21.71,43.5 -16.59,7.21 0.2,14.26 -21.19,25.1 19.13,-3.53 18.47,-2.33 12.6,16.41 5.16,-0.33 9.25,-1.1 13.8,0.69 -6.19,-12.38 -7.85,-27.83 -2.4,-38.9 5.43,-5.54 11.82,-12.58 14.5,-17.79 0.3,-1.54 1,-9.28 0.7,-11.81 1.33,0.72 0.46,-2.9 0.7,-3.3 1.27,0.62 0.5,-2.15 0.7,-2.6 1.27,0.62 0.5,-2.15 0.7,-2.6 1.6,0.4 0.4,-3 2.1,-2.6 -0.2,-2.3 2.2,-2.7 2,-4.6 1.2,-1.3 3.7,-1.9 3.3,-3.9 3.68,-3.01 3.65,-11.75 5.3,-15.93 z m -38,-337.7 c 1,0.3 0.62,-0.71 0.7,-1.3 1.4,0.2 0.8,-2.3 1.4,-3.3 2.2,-0.8 1.3,-3.9 4,-4.6 1.43,-3.08 4.37,-4.47 4.7,-8.6 1.9,-2.7 1.6,-7.5 -2,-8.6 -0.21,4.1 -0.3,8.92 -1.4,11.8 -10.98,9.54 -20.77,45.52 -7.4,14.6 z m 457.5,186.2 c -13.46,4.07 18.26,39.33 5.3,6.6 -1.77,-1.6 -2.5,-4.26 -5.3,-6.6 z m -730.6,-90.1 c 0.7,2.6 4.2,5.6 6.6,6.6 3.6,-6.5 -0.5,-8.8 -6.6,-6.6 z M 970,128.58 c 10.14,-10.57 -3.32,-5.79 -7.2,0.71 0.2,4.3 5.4,2.12 7.2,-0.71 z m 9.1,131.6 c 22.51,3.17 20.89,-10.54 7.3,-5.9 -2.1,3.3 -8.5,-2.6 -13.2,4 0.6,3.6 3.3,2.3 5.9,1.9 z M 956.8,81.88 c 2.29,-2.64 5.87,-5.78 8.5,-8.6 -14.3,-2.12 -19.25,25.31 -8.5,8.6 z m -19.9,29.7 c 9.3,-0.6 6.9,-13.8 11.2,-20.4 -2.55,0.72 -5.07,2.71 -5.1,5.9 -1.44,-0.4 0,1.71 -1.4,1.3 v 2 c -1,-0.31 -0.63,0.73 -0.7,1.31 -1.8,-0.41 -0.3,3.59 -2.1,3.29 0.8,2.4 -3.8,4.7 -1.9,6.6 z m 50.4,-44.2 a 132.15,132.15 0 0 0 -2.1,-16.5 c -1.6,0.4 -0.4,-3 -2.1,-2.6 v -2 c -0.92,0.37 -0.51,-0.86 -0.6,-1.3 -4.56,-4.64 -0.25,-14.45 -3.3,-19.09 -16.8,-15.71 -6,14.59 -5.3,21.79 4.4,2.5 7.4,8 6.6,13.1 3.1,1.9 -1.5,10.5 -2.6,11.2 -0.4,4.1 3.1,3.8 3.3,6.6 2.4,1 -0.4,8.2 2.1,9.2 -0.43,4.34 0.91,7.25 4.7,9.2 2.51,2.12 6,5.54 9.3,6.61 -0.4,1.79 3.6,0.29 3.3,2.09 5.07,0.41 -3.26,-3.81 -2.6,-5.9 -4.38,-2.92 -5.92,-7.4 -8.6,-10.5 -0.17,-0.57 0.5,-2.44 -0.7,-2 -0.27,-0.43 0.68,-4.65 -0.7,-3.9 -0.41,-0.13 0.91,-17.25 -0.7,-16 z m 86.7,495.7 c -11.47,-0.36 -0.81,12.83 1.9,16.4 12.27,3.37 18.19,-10.12 26.4,-15.1 -8.1,-16.07 -16.3,12.11 -28.3,-1.3 z m 13.8,220.5 c 0.4,-5 -6.65,2 -6.6,4.6 4.2,-0.5 3.9,-3 6.6,-4.6 z m -154,-705.7 c 4.5,-5 1.9,-5.9 -4.5,-5.9 0.2,3.5 1.9,4.8 4.5,5.9 z m 203.4,633.9 c -1.3,-0.1 -1,1.2 -1.4,2.6 1,0.2 1.9,-1.2 1.4,-2.6 z m -46.1,-311.9 c 1.16,-1.21 5.45,-9.56 0.2,-10.6 -0.4,0.7 -0.3,2.3 -1.4,2 -0.07,0.61 0.3,1.6 -0.7,1.3 -0.2,0.48 0.57,3.2 -0.7,2.6 v 2.6 c -2.38,2 -2.07,9.72 -2.1,13.2 2.56,-0.75 1.59,-8.12 4,-8.5 a 19.73,19.73 0 0 1 0.7,-2.6 z m -75.1,396.9 v 0 c 0.1,0 0,-0.1 0,0 z m 0.1,0 c 8.33,7.64 22.95,-1.89 33.4,-0.2 5.38,7.09 9.4,-1.85 13.8,1.4 4.8,-0.2 7.2,-0.3 7.2,-4 -5.75,1.33 -15.12,2.56 -21.1,2 0.1,-1.5 -8.3,-4.6 -9.2,-2 -2.78,-0.29 -4.21,2.64 -7.2,2.1 -4,2.75 -11.91,0 -16.9,0.7 z m -1.4,-0.7 c -1.6,-2.9 -3.7,-5.6 -7.9,-5.9 1.3,3.7 4.9,5 7.9,5.9 z m -69,94.8 c 2.74,-3.29 6.08,-6.64 10.5,-8.59 -12.96,-3.59 -27.84,23.38 -10.5,8.59 z M 813.3,780.28 c 0.6,0.7 -0.1,0.1 0.7,0.7 v -1.3 h -1.3 c 0.5,0.7 -0.1,0 0.6,0.6 z m 2.7,-30.2 c -2.92,0.49 -6.72,1.66 -10.6,2 2.8,4.6 5.6,13.1 1.3,16.5 6.34,12 2.63,-4.71 5.4,-7.19 1.2,-5.85 9.21,-6.3 13.8,-6.81 -0.61,-1.26 2.15,-0.49 2.6,-0.7 -0.72,-1.33 2.9,-0.46 3.3,-0.7 19.1,-3.12 -12.47,-3.85 -15.8,-3.1 z m 37.9,-9.3 c -1.2,-0.61 -6.11,11.91 -4.6,12.5 12.03,6.93 8.51,-7.92 4.6,-12.5 z m 367.4,144.4 c -0.68,-15.69 -3.88,-28.73 -1.3,-43.5 4.61,-5.17 3.56,-16.3 5.6,-23.6 6.52,-13.61 0.06,-19.63 -13.8,-15.8 -3.75,-0.67 -4.54,4.29 -7.9,4.61 -3.54,3.77 -7.44,7.71 -11.8,9.8 0.4,2 -7.7,2.19 -7.2,3.49 h -2 c 0.4,1.7 -3,0.5 -2.6,2.1 -6.64,2.26 -8.61,13 -15.7,14.5 -1.63,1.19 -1.82,4.11 -3.3,4.61 0,0.6 0.28,1.58 -0.7,1.29 -1.43,11.82 -20.27,7.88 -23.8,17.21 0.16,0.56 0,1.1 -0.7,0.89 0,0.44 0.37,2.54 -0.7,2 0.23,3.21 -1.1,7.09 -0.7,10.5 -3,4.9 -4.36,21.59 1.2,27.6 -12.91,-3.35 -36.11,1.24 -50.5,0 3.6,-2.26 2.07,-7.35 7.3,-7.6 4.34,5.8 28.71,0.77 31,-3.9 0.2,-1.09 1.12,-10.22 0.7,-12.49 1.28,0.55 0.49,-2.12 0.7,-2.61 1.73,0.61 -0.33,-3.2 1.4,-2.6 0.39,-0.67 -0.8,-4.49 0.7,-3.9 -0.07,-6.35 1.9,-12.36 0.7,-18.4 -2.1,-7.3 -12.7,-6.6 -15.9,-13.1 9,-7.92 -6.74,-22.89 -1.3,-32.29 3.51,10.14 4,20.21 10,27 2,8.55 12,21.65 21.9,14.9 5.67,-4.13 14.62,-10.42 17.8,-17.7 3.21,-3.2 3.85,-6.38 7.3,-9.89 3.07,-0.61 5.46,-2.6 7.9,-2.71 -0.35,-1.09 0.76,-0.56 1.3,-0.7 -0.51,-1.23 1.51,-0.5 2,-0.7 -0.36,-1.09 0.76,-0.56 1.3,-0.7 -0.52,-1.23 1.52,-0.5 2,-0.7 8.86,-3.8 14.87,-10 4.6,-19.2 2,-0.2 0.65,1.1 3.3,0.7 -0.53,1.17 1.52,0.56 2,0.7 -0.85,1.43 4.26,0.41 4.6,0.71 6.79,3.12 15.75,-4.21 22.4,-2.6 6.12,-2.43 10.54,-18 7.1,-25.11 v -2 c -1.26,0.5 -0.49,-1.5 -0.7,-2 -1.36,0.79 -0.45,-3.53 -0.7,-3.9 6.18,-10.06 -8.93,-20.78 -15.1,-25.1 0,-5.4 0.3,-15.4 -3.3,-19.1 -0.92,-4.77 -5.76,-8.54 -8.6,-13 -2.09,-0.31 -3.85,-2.55 -5.3,-3.89 -0.8,-0.61 -2.9,-0.11 -2.6,-1.41 -0.72,0.27 -1.5,0.07 -1.3,-0.69 -17.45,-2.91 -26.58,14.54 -29.9,26.79 -3.21,4.83 4.3,12.16 0,17.1 5,14.5 -6,36.09 9.8,43.41 4.3,-4.61 8.9,1 10.5,5.89 -16.8,-1.1 -22.6,-11.6 -38.8,-2 0.51,-1.2 -1.51,-0.52 -2,-0.7 1.44,-2.09 6,-4.66 8.6,-5.9 -0.48,-1.19 1.49,-0.53 2,-0.7 -0.3,-1 0.72,-0.61 1.3,-0.7 -0.22,-1.44 2.68,0 2.7,-2 8.25,-2.52 4.54,-11.29 2.5,-17.59 -3.83,-2.16 3.2,-13.15 0.6,-14.51 -0.23,-0.27 0.63,-4.11 -0.7,-3.29 -0.2,-0.32 0.56,-3.32 -0.7,-2.6 0.47,-2.84 0.21,-6.9 1.4,-8.6 -1.33,0.71 -0.46,-2.91 -0.7,-3.31 -3,-3.6 0.15,-11.11 -0.7,-15.8 -1,0.43 -0.63,-0.81 -0.7,-1.3 -1.33,0.73 -0.46,-2.9 -0.7,-3.3 2.61,-1.74 3.92,-6.32 7.4,-7.3 5.07,-7.59 18.1,-3.64 15.9,-17.9 -1.3,0.6 -1.6,-7.6 -3.5,-7.2 v -2 c -1,0.51 -0.61,-0.86 -0.7,-1.3 -4.58,-8.49 -5.1,-9.94 -15.2,-7.19 -11.88,2.65 -14.38,2.48 -23.6,12 -9.58,13.42 -25.69,23.6 -34.9,37.09 -4.57,5.06 -2.54,23.8 -0.7,29.5 2.19,6.39 3.43,21.27 2.8,29.71 3.21,16.68 19.82,10.32 8.6,29.59 -4.25,-10.44 -3.66,-24.21 -17.9,-23.69 1.39,-4 9.07,-13.83 1.3,-16.4 0.42,-1.32 -0.8,-0.42 -1.3,-0.71 -1.2,-2.9 -4.1,0.7 -3.9,-4.6 1.3,-1 7.3,-10.8 3.9,-13.2 v -2.6 c -1.14,0.22 -0.57,-1.29 -0.7,-2 -1.52,-2.28 -0.15,-9.56 -3.3,-12.49 1.24,0.22 0.5,-1.31 0.7,-2 1.9,0.2 0.8,-4.1 2.7,-3.9 v -2 c 2.2,-0.3 0.5,-6.3 2.7,-6.6 1.11,-20.44 31.25,-18.85 29.1,-40.89 11.8,1 16.3,-5.21 23,-11.81 17.33,2.87 21.85,-9.08 15.1,-24.4 -4.7,-4.7 -8,-1.8 -7.2,-7.3 7,-7.2 -9.3,-16.9 -2.6,-23.1 0.37,-0.61 3.31,0.89 2.6,-0.7 h 3.3 c -0.12,-1.88 2.42,0 2,0 0.59,0.1 1.57,-0.24 1.3,0.71 1.8,1.09 -0.1,1.59 2,2 v 1.3 c 1,-0.58 0.67,0.93 0.7,1.3 1.62,-0.55 -0.22,2.55 1.4,2 10.53,19.09 23.42,-20.32 15.7,-30.29 -6.9,-4.61 -11.5,-16.21 -4.6,-23 6.3,-1.45 4.63,-12 6.6,-15.79 5.27,-4.79 4.25,-12.55 0.1,-19 -2.2,-0.31 -0.5,-6.31 -2.7,-6.61 v -2 c -1.23,0.45 -0.51,-1.46 -0.7,-2 -1.29,0.59 -0.48,-2.13 -0.7,-2.6 -1.08,0.24 -0.57,-0.67 -0.7,-1.3 -1.08,0.24 -0.57,-0.67 -0.7,-1.3 -2.75,-1.58 -2.86,-7.89 -2.7,-11.09 -1.3,0.19 -1,-1.71 -1.4,-2.61 -2.48,-1.35 -5.59,-2.54 -6,-5.29 -1.63,0.52 0.23,-2.53 -1.4,-2 v -3.9 c -1.21,0.49 -0.52,-1.48 -0.7,-2 -1,0.3 -0.59,-0.71 -0.7,-1.3 h -0.7 c 0.5,-1.9 -1.8,-1.5 -1.3,-3.3 -2.09,-6.27 2.11,-17 -3.3,-22.39 -0.62,-3.58 -0.94,-3.25 -2.6,-6 -0.56,0.47 -6.27,-1 -5.3,0.89 h -2 c -1.4,-13.9 10.9,-4.6 11.8,-17.9 1.43,0.42 0,-1.71 1.4,-1.3 1,-3.56 1.44,-8.43 -3.9,-9.29 0.87,-4.44 4.42,-5.2 4,-10.61 -1.8,0.3 -0.3,-3.7 -2.1,-3.3 -0.17,-0.27 0.37,-1.82 -0.7,-1.29 -3,-9.56 -16.47,-12.79 -18.5,-24.5 2.9,-5.31 -1,-12.31 -5.2,-14.41 -10.09,-1.76 -14.73,1.82 -21.7,4.71 0.57,0.51 -17.78,0.25 -17.8,0.29 0.2,1.3 -1.7,1 -2.6,1.4 -0.51,1.67 -2.31,1.73 -2,3.3 -1.14,-0.39 -0.57,1.43 -0.7,2 -1.24,-0.57 -0.51,2.11 -0.7,2.6 -1.31,4.71 -7.71,4.89 -11.3,8.69 -2.2,-0.3 -1.3,1.9 -4,1.3 v 0.7 c -0.12,0.62 -3.44,-0.86 -2.6,0.71 h -3.3 c -2.84,1.58 -12.22,8.6 -12.5,12.41 -4.52,8.35 -5.11,4 -11.2,7.29 -10.55,7.37 -22.38,28.54 -18.4,44.1 7.2,8.7 1.3,7.6 -2,17.1 -1,6.61 -7.88,1.65 -11.8,2.61 0.62,1.18 -1.59,0.54 -2,0.7 -15.61,9.64 -2.34,15.33 1.8,29.29 a 42.41,42.41 0 0 1 7.2,9.31 c 0.49,0.33 -0.72,2.65 0.7,2 5.77,9.69 2.7,30.54 19.2,33 0,-1.91 3.8,-0.31 4,-2.71 1.74,0.32 2,-2 4,-1.29 2.46,-3.26 20.07,0.33 16.4,4.5 0,7 -8.5,5.6 -12.6,8 -0.17,0.1 -4.23,-0.56 -3.3,0.7 -0.12,0.13 -4.91,-0.62 -3.9,0.7 -9.31,-0.66 -14.85,5.22 -26.3,4.7 13.8,-16.54 -3.35,-11.53 -3.6,-34.8 -1.9,0.21 -0.8,-4.09 -2.7,-3.9 0.32,-0.68 0,-1.55 -0.7,-1.29 a 15.2,15.2 0 0 0 -4.7,-8.61 v -1.29 c -2.58,-1.53 -2.91,-6 -4,-7.9 -2,-2.63 -2.19,-5.68 -6,-7.9 -0.28,-3.25 -5.28,-4.53 -5.2,-7.91 -1.94,-0.22 -0.61,-2.82 -2,-2.7 0,-0.39 0.48,-3.31 -0.7,-2.59 0.5,-2.49 -0.19,-7.64 -2.1,-8.51 -4.09,-3.78 -2,-4 3.2,-4 13.7,10 6.8,6.71 17.2,-3.09 17.06,-3 8.27,-9.72 12.6,-22.31 -2,-16 8.68,-20.52 5.9,-29.59 a 11.14,11.14 0 0 1 -4,-7.3 c 4.3,1.89 4.6,5.39 10.5,4.59 -0.1,-0.88 0.58,-0.71 1.3,-0.69 1.58,-3.06 3.44,-4.91 5.9,-8 7.82,0.46 10.92,-6.5 16.5,-9.3 8.41,-15.38 17.46,-3.92 23.7,-16.49 7.68,-1.94 4.3,-23.66 12.6,-15.11 1.1,0.2 14.5,3.2 15.1,0.6 3.9,-1.6 5.3,-6.4 11.8,-5.9 9,5.9 7.75,1.37 16.4,-1.1 7.81,-9.2 2.54,-27.31 -2.8,-33.49 -1.46,-5.28 1.24,-12.49 -1.4,-17.8 -4.48,-3.59 -9.94,-11.79 -5.2,-17 0.31,-13.84 24.58,-11.85 21.2,-30.39 0,-0.51 -2.2,-5.71 0,-5.91 -1,-5.16 8.23,-8.62 9.2,-13.89 1.9,0.19 0.8,-4.11 2.7,-3.91 -1.17,-13.26 18.78,-26.22 6.7,-38.89 -8.29,-1.29 7.5,-15 -1.4,-20.4 -2.24,-4.54 -4.89,-10.5 -9.8,-12.61 -1.5,-3 -4.7,-0.6 -4.6,-6 5.86,-6.16 -8.89,-14.48 -1.3,-17.7 4.73,-4.23 8.88,-8.4 11.9,-13.69 a 15.77,15.77 0 0 0 7.4,-9.9 c 3.46,-3.56 1.87,-13.12 -0.5,-17.1 -0.7,-11 11.3,-3.81 10.5,3.29 0.9,-0.13 0.72,0.6 0.7,1.31 2,-0.21 0.1,4.79 2.1,4.59 v 2.6 c -1.86,-0.75 0.46,4.66 -1.4,3.9 -0.15,4.44 0.33,10.47 -3.3,13.21 -1.89,7.31 -16.56,11.92 -11.2,21.69 -0.25,2.5 1.14,5.14 0.7,7.91 2.3,0.19 -0.1,6.39 2.1,6.59 15.1,12.85 3.22,31.49 17.2,40.11 1,4.09 -5.5,4.89 -6.6,8.49 -0.2,5.5 -5.8,7.7 -7.3,11.8 -2.2,0.3 -0.5,6.3 -2.7,6.6 -0.54,2.33 -1,5.63 -2.8,6.51 -0.35,3.7 -4.1,7 -5.4,10.49 -2.17,1.59 -4,3 -4,5.21 -1.2,-0.27 -0.52,1.33 -0.7,2 6.08,32.32 -19.74,17.89 -21,40.89 1.9,0 0.3,3.8 2.7,4 V 303 a 3.82,3.82 0 0 1 2,3.3 c 1.19,-0.32 0.54,1.38 0.7,2 1.58,-1.45 0.32,11.84 0.7,11.79 1.27,-0.53 0.5,2.1 0.7,2.61 1,0 0.64,0.51 0.7,1.3 6.59,4.75 5.41,19.95 5.4,29 3.7,7.25 -1.32,21 4.2,28.29 0,8.17 10.63,11.35 13.8,18.51 a 25.07,25.07 0 0 0 5.9,9.9 c 0.83,4.55 5.71,4.34 8.6,7.19 1.74,-0.62 -0.34,3.33 1.4,2.7 v 2.6 c 1.7,-0.4 0.5,3 2.1,2.6 2,5.42 8.43,8.78 10.5,14.51 4,8.16 11.87,13.78 15.1,23.89 -7.31,-0.34 -10.07,1.91 -12.5,-7.9 -4.35,-2.12 -4.57,-9.08 -7.3,-11.2 -9.69,-11.26 -19.27,-32.52 -25.7,-6.7 -0.18,0.73 0.39,1.51 -0.7,1.3 v 2.6 c -1.33,-0.71 -0.46,2.9 -0.7,3.31 -1.55,0.85 -2.28,11.75 0.6,13.09 0,0.64 -0.22,1.57 0.7,1.3 0,0.57 -0.39,2.46 0.7,2 1.18,3 1.53,9.47 2.7,12.5 1.16,-0.49 0.56,1.5 0.7,2 0.94,-0.33 0.68,0.73 0.7,1.3 1.16,-0.5 0.56,1.5 0.7,2 2.07,1.85 0.61,8.41 2.1,10.49 1.1,1.34 5,3.66 6.7,4.6 v 1.7 c 2.5,1.4 0.4,4.9 2.7,5.9 0,0.24 -0.47,4.14 0.7,3.3 0,0.22 -0.46,4.16 0.7,3.3 0,4 2.61,8 6,10.51 4.09,8.88 2.61,19 6.9,26.29 13.61,4.47 10.23,-19 18.5,-21.8 0.53,-2.06 4.12,-2.21 4,-3.4 16.68,-1.81 5.35,-19.42 15.9,-27.7 6,-1.31 4.24,5.23 3.9,8.8 2.63,17.78 -9.43,24 -17.3,36.1 -0.23,5.22 -5.83,9.18 -8,13.8 a 6.82,6.82 0 0 0 -2.6,4.6 c -1.14,-0.48 -0.53,0.86 -0.7,1.3 -1.3,-0.3 -1,1.7 -1.4,2.6 -1,0.5 -1.5,0.8 -1.3,2 -8.84,6.83 -6.43,24 -14,30.9 -0.37,0 0.7,3.55 -0.7,2.6 -0.36,0 0.7,3.56 -0.7,2.6 -1,4.43 -0.87,12.07 -2.1,16.4 -2.53,2.69 -4.06,8.83 -8.6,9.8 -0.11,1.37 -2.26,0.68 -2.6,2.71 -1.2,0.49 -2.4,0.39 -2,2 -4.44,3.8 1.65,11.53 0.8,16 1.83,10.19 7.55,25.66 15.3,32.1 1.54,11.56 17.42,19.3 23.1,29.6 15.38,9.43 9,32.83 24.6,42.8 0.8,8.5 -3.7,24.5 5.2,30.3 4.9,0.6 17.5,-2 18,4.8 -20.36,21.1 -26.4,-4 -29,31.71 v 1.29 c -1.9,-0.2 -0.8,4.1 -2.7,3.9 v 2 c -1.89,5.12 2.13,15 -3.4,19.1 v 1.3 h -0.7 c -0.15,0.28 0.49,2.74 -0.7,2 -0.15,0.28 0.49,2.74 -0.7,2 -3.33,12.48 0.73,30.6 0.6,43.4 -1.5,-0.1 -2.1,7.8 -4.1,7.8 -5.06,7.36 -6.32,-1.53 -2.7,-5.9 1.7,0.4 0.5,-3 2.1,-2.6 0.1,-0.51 -0.44,-2.57 0.7,-2 0.2,-0.4 -0.6,-3.34 0.7,-2.61 z m -35.8,-305.1 c 5.84,-3.88 3.88,-14.16 8.7,-17.7 4.86,-6.79 -3.54,-20.41 -11.1,-11.9 -2.5,7.6 -14.9,29.4 2.4,29.6 z m -330.7,319.3 c 0.12,3.16 2.5,-2.06 3.3,-3.29 1.6,-1.71 5.4,-2.61 5.3,-5.21 -7.3,-4.8 -5.5,6.12 -8.6,8.5 z m 170.6,1.5 c -4.47,-7.39 -15.82,-4.13 -20.3,-9.3 -20.84,-0.61 -28.37,-16.07 -29.4,-32.29 h 0.7 c 0.8,-6.2 -2.3,-2.5 -3.3,-5.3 h -1.3 c -9.73,-8.29 4,-12.53 -3.4,-18.5 -2.55,-2.09 -0.85,-11.44 0.6,-15.1 -0.1,-8.9 0.9,-13.2 9.2,-16.5 3.4,-12.3 3.1,-15.1 18.5,-16.4 0.9,-4.2 -5.9,-3.7 -8.6,-2.7 -0.54,2.33 -4,1.39 -4.6,3.4 -0.66,0.2 -2.38,-0.51 -2,0.7 -5.45,-0.23 -2.86,14.06 -10.2,15.91 0.1,1.59 -2.7,1.39 -2,3.29 -2,0 -0.53,2.92 -2,2.71 -4.1,4.8 0.84,41.37 -11.4,30.3 -7.86,-4.65 -15.39,-15 -17.9,-22.3 -5.72,-4.95 -10.39,-13.4 -10.7,-21.3 -1.16,1.08 -1,-8.29 0,-7.21 0.43,-0.29 -0.82,-5.48 0.7,-4.59 -0.35,-2.41 1,-4.2 0.7,-6.61 1.28,0.62 0.49,-2.15 0.7,-2.6 2,-3.49 3.17,-14.26 4.2,-17.09 1.21,0.53 0.53,-1.53 0.7,-2 1.2,0.54 0.53,-1.52 0.7,-2 1.2,0.54 0.53,-1.52 0.7,-2 1.44,0.42 0,-1.71 1.4,-1.29 v -2 c 1.6,0.41 0.4,-3 2.1,-2.59 -0.21,-2 1.1,-0.63 0.7,-3.31 1.6,0.41 0.4,-3 2.1,-2.59 0,-2.54 1.52,-3.88 1.4,-5.9 1.63,0.53 -0.23,-2.54 1.4,-2 v -2.81 c 1.27,0.65 0.5,-2.17 0.7,-2.6 2.07,1.61 1.26,-19.13 1.4,-21 -1.34,0.73 -0.46,-3 -0.7,-3.41 -2.1,-0.1 0.1,-5.8 -2.1,-5.9 -0.89,-5.59 -5.8,-9.86 -9.4,-14.4 -17,-24.15 -2.26,17 4.1,21.1 3.88,14.89 1.28,26.56 -4.6,39.5 -1.26,-0.58 -0.5,2.14 -0.7,2.61 -1.62,-0.59 -0.81,1.81 -1,2.6 -1.33,-0.72 -0.46,2.89 -0.7,3.3 -1.33,-0.72 -0.46,2.89 -0.7,3.3 -1.18,-0.69 -0.38,3 -0.6,3.3 -1.33,-0.72 -0.46,2.89 -0.7,3.3 -3.82,7.13 -11.53,28.32 -8.8,37.49 1.6,-0.4 0.4,3 2.1,2.6 0.2,0.54 -0.4,1.64 0.7,1.3 -0.3,0.64 1.21,5.06 2.1,4.61 0.8,4 4.17,5.48 4.1,9.19 3.36,9.59 16.36,19.75 24.5,29.6 5.89,2.19 11.35,6.49 12.5,11.3 13.82,23.92 -6.5,19.3 7.9,24.4 5,0 7,6.21 10,8.6 v 2 c 1.15,-0.59 0.56,1.58 0.7,2 1.33,-0.72 0.46,2.91 0.7,3.3 1.13,-0.58 0.58,1.48 0.7,1.9 10.5,0.9 4.4,-1.8 10.5,-4.6 9.81,-3.89 18.5,6.15 27.9,4.58 z M 831.1,687.28 c -2.9,-4.2 -9.3,-4.9 -14.5,-6.6 5,13.5 11.6,0.2 18.4,18.5 2.4,2.3 2.5,-5.1 4.6,-5.9 0.4,-5.1 -2.6,-1.7 -3.9,-4.6 h -1.3 c 0.49,-1.18 -1.5,-0.54 -2,-0.7 0.31,-0.98 -0.73,-0.63 -1.3,-0.7 z m 37.5,74.6 c -5.5,-2.4 1,9.3 5.9,7.9 -0.6,-3.2 -2.8,-7.2 -5.9,-7.9 z m 48.1,-645.1 a 32.35,32.35 0 0 0 -1.3,3.3 c 9.1,-1 10.6,-11.9 1.3,-3.3 z m 8.5,-50.1 c -1,-5.3 -4.5,-5.76 -7.8,-9.3 0.45,3.17 6.16,8.14 7.8,9.3 z m -28.3,-25.6 c 1.23,3 8.76,11.1 11.2,9.21 0.81,-6.29 -4.01,-9.55 -11.2,-9.21 z m 29,855.7 c 0.18,-3.26 -9.89,0.07 -13.2,0 1.3,6 11.2,5.5 13.2,0 z m 23,-860.7 c 4.6,1 5.57,-5.9 5.9,-8.5 1.56,0.48 -0.16,-2.17 1.4,-1.7 -0.1,-3.7 7.5,-3.7 6.6,-7.9 2.8,-6.27 -5.51,-2.5 3.4,-15.09 4.21,-3.23 -8.49,-3.27 -8,2 -3.2,1.4 -5.1,1 -8.6,0.7 -2.81,-4.36 -7.82,-5.87 -11.9,-3.29 -4.46,4.18 -0.4,4.78 3.3,5.2 -0.18,1.45 6.06,1.68 5.9,3.49 9.47,3.72 1.31,19.47 2,25.09 z M 893.1,0.88 h -6.6 c -1.05,3.94 3.67,2.43 6.6,0 z m 223.7,578 c -10.2,-10.27 -10.49,8.74 -2.7,11.3 10.54,-0.58 6.15,-7.59 2.7,-11.3 z m 362.7,-60 c -0.88,-5.12 -2.85,-4 -0.7,0 z m 169.8,-429.1 c -6.7,-0.2 -2.7,7.1 -3.2,11.2 3.6,-1.9 8.2,-8.8 3.2,-11.2 z m 10.4,344.3 c -7.1,-12.9 -16.5,-10 -7.3,-0.7 2.52,2.86 5.76,5.43 6.7,9.2 10.96,9.66 13.64,-6.67 0.6,-8.5 z m -14.6,274.2 c -5.46,2.85 -8.13,17.5 0.6,8.61 2.83,-9 15.25,-15.34 19.2,-24.1 10.1,-5.11 3.2,-24.61 -4.5,-12.71 0.4,2.94 -1,5.71 -0.7,8.5 -1,-0.29 -0.63,0.72 -0.7,1.31 -1.19,-0.49 -0.54,1.49 -0.7,2 a 11.41,11.41 0 0 0 -3.3,5.29 c -2.63,3.59 -8.27,6.87 -9.9,11.1 z m -7,-474.3 c -3.71,4.39 -6.73,8.28 -8.6,13.8 -3.24,3.92 -8.87,6.56 -10.6,11.8 -2,-0.2 -0.1,4.8 -2.1,4.6 -0.25,0.68 0.63,3.11 -0.7,2.6 0.41,2.57 -1,3.6 -0.7,5.9 -1.33,-0.71 -0.46,2.9 -0.7,3.31 -1,-1.22 -1.12,5.72 0,4.59 -0.59,5.44 0.18,13.32 -2.1,16.51 -0.21,0.82 0.52,2.29 -0.7,2 -0.21,0.81 0.52,2.3 -0.7,2 v 2 c -1.6,-0.4 -0.4,3 -2.1,2.6 -2.23,8.21 -0.45,23.14 -4.1,29 -0.14,0.95 0.35,1.33 -0.7,1.3 -0.18,0.7 0.5,2.38 -0.7,2 -0.23,0.91 0.54,2.21 -0.7,2 -0.23,0.89 0.53,2.21 -0.7,2 0.41,2.56 -1,3.6 -0.7,5.89 -1.63,-0.51 0.23,2.52 -1.4,2 -0.14,1.67 -1.07,7.3 -0.7,9.81 -1.44,-1 -0.4,5 -0.7,5.29 -2.06,-1.05 0.66,9.66 -1.4,8.6 -0.27,5.84 1.54,17.09 0,20.41 -1.58,-0.3 -4.71,13.54 -7.4,11.79 -2.81,2.77 -7.69,-5.77 -7.2,-9.29 -2.64,-4.06 -5.49,-10.78 -10.6,-13.3 h -2 c 0.4,-1.8 -3.6,-0.3 -3.3,-2.1 -1.66,-0.4 -3.6,-0.4 -4.6,-2.69 -3.25,-1.76 -10.89,-7.6 -7.8,0.6 9.35,5.81 15.62,16.28 19.9,28.29 0,6.9 -2.7,14.8 0.7,21 10.6,27.2 -5.4,22.2 3.3,30.3 17.79,13.08 1,37.5 -5.6,48.7 -1.43,-0.42 0,1.73 -1.4,1.3 v 2 c -1.17,-0.58 -0.55,1.57 -0.7,2 -1.72,-0.62 0.33,3.23 -1.4,2.6 -0.18,0.05 0.62,4.31 -0.7,3.3 0.78,17.42 -1.22,34.55 -7.4,47.5 -12.67,8.33 -5.83,20.39 -23.2,18.5 8.37,18.72 -1.94,25.23 18.5,44.7 3.93,8.41 -2.19,14.53 -6.4,21.1 -1.7,15.1 11.8,-4 15.8,-7.2 18.11,-11.14 -4.54,-14.88 -7.3,-24.39 -1.81,-2.41 -3.86,-5.11 -4,-7.9 -1.15,0.29 -0.56,-1.36 -0.7,-2 -1.38,0.84 -0.43,-3.56 -0.7,-3.9 -6.92,-19.43 17.81,-28.92 20.6,-44.1 3.79,-19.82 3.68,-50.81 16.2,-66.19 12.7,-12.76 1,-33.46 -1.3,-48 -0.2,-0.59 0.58,-3.22 -0.7,-2.7 -0.23,-0.54 0.63,-3.91 -0.7,-3.3 -0.3,-0.41 0.76,-6.76 -0.7,-5.9 1.12,-7.84 -8.7,-19 3.1,-23.7 5.05,-6 22,-11.24 16.4,-23 v -3.3 c -1.15,1.32 -1.22,-23 0,-21.7 0.12,-0.16 -0.51,-3.41 0.7,-2.59 0.15,-0.09 -0.57,-4.25 0.7,-3.3 -0.37,-3.37 1.07,-7.23 0.7,-10.6 7.44,-11.6 2.71,-28.63 6.7,-38.81 6.27,-15.94 0.87,-44.81 18.6,-58.5 1.82,-5.3 8,-9 10.6,-13.3 4.36,-7.6 -4.54,-10.3 -5.9,-1.91 z m -486,-169.9 c 7.77,-8 3.92,-13.58 -3.2,-2.59 -2.68,0.6 -6.91,3.63 -6.6,7.19 -5.2,13.66 25.12,33.61 11.9,9.9 -0.08,-0.61 0.31,-1.58 -0.7,-1.29 -0.17,-0.55 0.49,-2.47 -0.7,-2 -0.97,-2.86 -1.71,-8.36 -0.7,-11.21 z m 517.7,128.5 c 0,6.5 -2.49,15 -2.1,22.3 6.87,2.8 9.2,-43.07 2.1,-22.3 z m 58.5,342.8 c 26,4.54 -6.87,-60.29 -1.2,-21.7 1.1,8.5 -4.3,15.5 1.2,21.7 z m -7.3,-404.1 c 3.6,-3.3 4,-4.8 -2.6,-5.2 -1.3,2.92 -1,6 2.6,5.2 z m -585.2,445.6 c -15.18,12.39 4.88,15.8 5.2,3.91 2.53,-3.64 -1.68,-8.63 -5.2,-3.91 z m 376.5,-265.3 c 0.37,-7.6 -2.19,-16.49 -4.8,-20.5 -3.57,-6.7 -1.38,-22.38 -10,-25 -7.38,17.67 14.42,35.37 4.7,51.3 0.2,4.43 4.2,4.44 6,7.31 0.88,3.95 4.93,6.71 5.9,10.59 3.36,4.76 5.56,10.53 10.5,15.1 3.5,3.1 9.2,3.2 10.5,8.6 3.8,11.8 -4.5,8.6 9.9,13.2 11.47,4.54 9.21,-4.22 1.9,-9.8 -1.76,-6.06 -9.24,-9.26 -13.2,-12.5 -0.88,-2.86 -3.4,-5.16 -5.9,-7.2 -2.71,-5.62 -8.2,-10.69 -10,-16.7 -2.3,-1.92 -4.15,-8.62 -4.1,-11.09 -1.81,0.69 0.41,-4 -1.4,-3.31 z m -5,-136.1 c -1.11,1.81 -1.77,7.84 -1.4,10.51 -3.84,5.75 -11.06,10 -10,17.09 -1.33,-0.71 -0.46,2.91 -0.7,3.31 -1.18,-0.51 -0.54,1.5 -0.7,2 -1.18,-0.51 -0.54,1.5 -0.7,2 -1.18,-0.51 -0.54,1.5 -0.7,2 -1.18,-0.51 -0.54,1.5 -0.7,2 0,4.36 -11.61,23.93 -4.4,26.79 10.67,-12.24 9.61,-29.66 14.7,-42.1 2.57,-8.56 14.15,-6.16 8,-17.69 -1,0.34 -0.62,-0.76 -0.7,-1.31 -2,-0.58 -0.43,-4.38 -2.7,-4.6 z m 78,631.4 c 2.85,-1.66 4.39,-6.59 7.9,-7.2 0,-2 3.5,0.3 4,-3.4 -1.4,0.3 -0.3,-1.2 -1.9,-0.9 -0.2,2.2 -5.1,1.1 -5.3,3.4 -0.59,0.3 -3.11,-0.63 -2.6,0.7 -3.43,0.47 -4.14,4.26 -7.3,5.9 -1.19,2.41 -3.92,1.62 -5.3,4.6 -8.4,2.92 -17.15,11 -23.7,13.21 0.41,1.43 -1.71,0 -1.3,1.39 -1.2,-0.2 -1.5,0.3 -2,1.3 -0.9,0.4 -2.8,0.1 -2.6,1.4 -0.41,0.12 -2.56,-0.45 -2,0.7 h -2 c 0.4,1.6 -3,0.4 -2.6,2.1 -2,-0.3 -4.4,4.4 -6.6,4 -0.1,2.3 -7,1.6 -5.9,4.6 18.48,0.15 25.15,-13.68 39.5,-18.39 -0.5,-1.19 1.5,-0.54 2,-0.71 -0.41,-1.43 1.71,0 1.3,-1.4 6.35,-0.7 11.41,-5.76 16.4,-11.3 z m -7.3,75.4 c 6,-10.92 -2,-19 0.11,-28.78 0.31,-7.66 0.91,-22.77 -2.75,-26.43 -3.39,3.87 -1.18,10 -1.25,14.42 1.91,-0.32 -0.54,9.47 -0.12,11.37 -0.8,6.77 0.45,26.27 4.01,29.42 z m -74.2,-44.1 c -3.3,1.9 -4.5,5.6 -5.9,8.6 7.4,0.3 15.1,-6.1 5.9,-8.6 z m 5.4,-166.4 c 0.6,-0.08 1.59,0.32 1.3,-0.7 0.52,-0.17 2.48,0.5 2,-0.69 1.88,0.31 0.72,-1 2.6,-0.71 -0.31,-1 0.73,-0.63 1.3,-0.7 5,-5.3 30.17,-4.86 23.6,-14.5 -3.71,-0.28 -5,2.89 -7.9,3.31 -0.5,3 -4.6,1.39 -5.2,3.39 -15.08,-4.11 -25.11,14.66 -36.7,18.61 -23.78,15.72 16.48,-1.53 19,-8.01 z m -36.4,-104.2 c -5.34,1.54 -14.27,4.39 -15.7,9.4 3.7,-0.5 9.4,0.7 10.5,-2.1 0.61,-0.08 1.58,0.32 1.3,-0.7 h 2 c -0.3,-1 0.72,-0.62 1.3,-0.7 -0.48,-1.06 1.59,-0.43 2,-0.6 -0.61,-1.26 2.15,-0.49 2.6,-0.7 -0.61,-1.26 2.15,-0.49 2.6,-0.7 -0.92,-1.44 5,-0.4 5.3,-0.7 -0.66,-1 3.69,-0.28 3.9,-0.5 7.8,-0.58 1.28,-43.52 -1.3,-15.2 -1.67,7.8 -7.7,9.85 -14.5,12.5 z m -420.5,-263.9 c 3.4,2.41 4.17,-5 0.7,-5.3 a 17,17 0 0 0 -0.7,5.3 z m 2.6,-33.6 c -3.9,-1.2 -7.4,15.2 -2,15.8 0.3,-5 5.3,-11.88 2,-15.8 z m 622.7,361.2 c -2.22,2.75 -6,6.43 -7.3,10 -1.27,0.38 -1,2.81 -2,2.61 0.07,0.41 0.2,1.72 -0.7,1.29 -0.12,4.44 -7.55,8.21 -6.6,13.8 -1.74,-0.12 0.88,1.75 0.7,4.61 6.44,2.63 7.93,-5.25 10.6,-8.51 v -2 c 1,0.19 0.61,-0.54 0.7,-1.2 1.9,0.3 0.2,-4.2 2.1,-3.9 0.18,-0.74 -0.38,-1.48 0.7,-1.3 v -2 c 1,0.24 0.6,-0.67 0.7,-1.3 1.19,0.12 0.37,-1.76 2,-2 0.77,-2.46 3.55,-5.33 5.2,-7.31 1.1,-7 10.4,-9.1 11.2,-15.7 5.1,-8.62 16.09,-19 23,-29 3.92,-2.75 4,-7.91 7.3,-10.61 4.66,-10.42 21.58,-10.62 24.5,-21.79 2.32,-6.42 -4,-15.64 -10.2,-16.3 3.2,15.9 8.1,15.6 -7.4,25.6 -3.84,3.74 -10.61,6.52 -13.2,11.8 0.32,1.89 -1,0.7 -0.7,2.6 -1,-0.26 -0.6,0.68 -0.7,1.3 -2.3,1.58 -3.44,7.25 -6.7,9.89 -2,9 -9.31,3 -11.2,5.3 -2,-0.2 -0.1,4.8 -2.1,4.6 v 2.6 c -1.27,-0.6 -0.5,2.15 -0.7,2.61 -1.9,-0.21 -0.8,4.09 -2.7,3.89 -3.39,8.48 -12.79,13.14 -16.5,20.42 z m -531.9,-155.8 c -4.9,-2.1 -6,1.2 -5.9,6.5 3.1,-1.3 6.5,-3.1 5.9,-6.5 z m 71.2,-473.3 c 1,-0.3 0.62,0.73 0.7,1.31 1.05,-0.34 0.61,0.83 0.7,1.4 1.44,-0.41 0,1.7 1.4,1.29 0.08,0.57 -0.31,1.62 0.7,1.3 -3.52,18.29 16.44,6.62 6.5,-2.6 -0.09,-0.57 0.32,-1.61 -0.7,-1.29 v -2 c -0.64,0.11 -0.78,-0.08 -0.7,-0.7 -0.63,0.55 -10.19,-1.35 -8.6,1.29 z m -208.8,120.5 c 3.15,0.29 5.34,-1 7.3,-3.29 6.9,-1 -2.7,-9 -6.6,-8.51 0.41,4.57 0.93,7.76 -0.7,11.8 z m -2.5,133.7 c -1.43,4.66 6.31,3.17 9.1,3.21 5.51,1.32 15.94,2.71 20.4,0.59 0.1,-8.6 -7.5,-1.4 -10.5,-5.3 -2.71,-0.54 -4.34,-3.58 -7.9,-2.59 0.61,1.27 -2.15,0.49 -2.6,0.7 0.61,1.26 -2.15,0.49 -2.6,0.7 0.61,1.26 -2.15,0.49 -2.6,0.7 0.5,1.18 -1.5,0.53 -2,0.69 a 7.57,7.57 0 0 1 -1.3,1.3 z m 42.7,2.6 c 2,-0.5 2.3,-1.2 2.6,-3.3 -2.1,0.5 -2.4,0.8 -2.6,3.32 z m 651.7,140.1 a 11,11 0 0 0 -3.3,6.6 c -1,-0.28 -0.63,0.72 -0.7,1.31 -1.9,-0.31 -0.2,4.19 -2.1,3.89 v 2 c -1.19,-0.48 -0.54,1.5 -0.7,2 -1.19,-0.5 -0.54,1.49 -0.7,2 -1.63,-0.53 0.23,2.52 -1.4,2 0.48,3.28 -1.53,5 -1.1,7.9 -1.27,-0.61 -0.5,2.16 -0.7,2.61 -1.18,-0.51 -0.54,1.5 -0.7,2 -3.73,2.83 -1.9,21.77 2.6,7.9 -0.09,-5.37 1.51,-12 2.1,-17.11 1.9,0.3 0.2,-4.2 2.1,-3.9 0.08,-0.56 -0.33,-1.73 0.7,-1.39 v -2 c 1,-3.31 7.67,-12.15 4.6,-15.8 0.24,-0.96 -0.95,-1.01 -0.7,-0.01 z m 1.3,-22.3 c -0.7,1.7 -0.7,4.6 -0.7,7.2 2.1,-0.6 2.6,-5.9 0.7,-7.2 z m -13.2,199.5 c 2.73,-2.93 0.08,-11 -0.71,-4.6 -1.38,-0.78 -0.43,3.68 -0.68,3.91 1.14,-0.26 0.29,0.98 1.39,0.69 z m 13.2,-214.7 a 3.18,3.18 0 0 0 0.7,4.6 c 0.49,-2.11 2.43,-4.18 -0.7,-4.6 z M 1529.5,4.88 c 0.31,4.54 -2,8.71 -2.7,13.81 11.34,0.71 17,10.64 19.8,18.49 -0.3,0.76 1.45,6.61 2.7,6.51 0,2.48 3.56,3.33 3.3,5.89 2.84,1.36 1.86,5.51 4.6,6.6 0,2 1.51,2.36 1.4,3.9 1,-0.24 0.62,0.68 0.7,1.31 0.86,0.39 1.91,2.44 2,3.89 a 6.41,6.41 0 0 1 2.7,4 c 2.92,2.09 7.74,5.06 7.3,9.8 1.52,15.54 -5,32.78 -13.1,46 13.88,-6.71 10.93,7.11 15.9,12.5 0.13,0.28 -0.46,2.64 0.7,2 0,0.37 -0.28,1.77 0.7,1.3 -0.2,1.2 0.3,1.5 1.3,2 0.37,3 5,5.15 6,7.21 0,1.56 -0.47,13.66 1.4,12.79 0.18,2.17 3.27,6.66 6.6,4.61 -1.88,-29.21 -25,-35.6 -14.4,-66.51 1.18,0.49 0.55,-1.49 0.7,-2 1.63,0.53 -0.23,-2.52 1.4,-2 0.09,-4.52 3.49,-13.09 -0.1,-16.4 a 4,4 0 0 0 -2,-3.4 c 0.11,-3 -3.76,-2.4 -4,-5.3 -6.23,-10 -12.26,-22.56 -19.4,-33.49 -0.4,-15.31 -20.6,-19.51 -14.6,-37.51 -13.4,-0.41 -4.57,0.38 -8.9,4 z m 154.7,137.6 c -0.82,10.46 -4.27,19.39 -5.4,32.7 10.66,-3.68 3.45,-20.39 8.7,-26.29 2,-0.17 1.9,-10.39 -0.6,-11.21 -0.26,-0.37 0.67,-4.57 -0.7,-3.79 v -4.61 c 2.3,-0.6 -0.3,-7.3 2.1,-7.9 0.15,-0.42 -0.48,-2.54 0.7,-2 0.11,-4.76 7.09,-12.13 -2.6,-12.51 -0.26,7.25 -4.11,14.34 -4.6,22.4 1.6,0.1 5.4,12.8 2.4,13.2 z M 1355.1,39.68 c -2,1.43 -3.44,4.56 -4,6.6 -1.9,-0.2 -0.8,4.1 -2.7,3.9 -0.15,0.53 0.48,2.48 -0.7,2 -0.06,0.59 0.29,1.61 -0.7,1.3 -0.15,0.51 0.48,2.5 -0.7,2 v 1.4 c -1.6,-0.4 -0.4,3 -2.1,2.6 -0.51,3.81 -7.35,17.2 1.6,19.11 1.75,-7.53 2.19,-16.47 4.7,-21 0.16,-0.51 -0.48,-2.48 0.7,-2 0.15,-0.51 -0.48,-2.49 0.7,-2 1.97,-3.07 12.53,-24.13 3.2,-13.91 z M 186,694.08 c -0.17,1.16 0.15,1.47 1.3,1.3 0.17,-1.15 -0.15,-1.46 -1.3,-1.3 z m -25,200.7 c 0.8,0.4 -0.3,0.8 0.7,0.7 10.09,-7.36 -8.56,-10.13 -0.7,-0.7 z m 62.3,-111.1 c 7.39,8.41 6,22.5 4.2,32.21 -6.83,12.53 1.49,11.78 4.5,21 2.3,-1.6 -3.1,-8.5 0,-10.5 0.22,-0.49 -0.62,-3.94 0.7,-3.3 -0.49,-6.47 -1.67,-13 -2.1,-18.4 -2.8,-1.4 0.4,-7.8 0.6,-9.2 -2.11,-8.94 0.42,-27.8 -7.9,-11.81 z m 6.2,-20.5 c 2.28,-0.39 2.54,-11.41 6.1,-12.49 0.78,-4.42 -0.67,-11.82 -3.9,-15.81 2,10.9 -4.3,20.4 -2.2,28.3 z m -57.4,-76.4 c 5.6,-1.2 0.4,-6.5 -1.9,-7.9 -1.44,2.86 -1.67,11.53 1.9,7.9 z m -11.8,126.4 c -0.17,1.16 0.15,1.47 1.3,1.3 0.17,-1.15 -0.15,-1.48 -1.3,-1.3 z m 6,-105.3 c 0.42,-2 -0.87,-2.85 -1.4,-4.6 -4.9,-0.1 -1.5,5.4 1.4,4.6 z m 27.6,25 c 1.5,0.1 0.6,-1.2 0,-1.3 -1.1,1 -1.8,3.8 0,1.3 z m 72.4,86.9 c 7.7,10.3 6.2,-0.1 11.8,-5.9 -4.69,1.1 -7.87,4.4 -12.6,3.4 -6.4,-9.2 -6.9,-7.4 -9.9,3.2 3.6,-0.2 8.3,-2 10.7,-0.7 z m 8.6,24.3 c 1.84,1.86 3.37,-5.71 0,-5.19 -0.3,1.89 -1.4,3.79 0,5.19 z m -2,15.8 v 1.3 c 1.1,0.14 0.55,-0.82 0,-1.3 z m -54.6,2.9 c -3.78,4.53 -7.08,9.89 -8,16.4 2.9,-0.1 3.9,-6.3 7.9,-4.6 5.83,3.88 -2.76,24.54 5.3,25.11 0.53,-10 6.26,-10.49 13.2,-13.2 0.19,-7 -19.59,4.27 -15.1,-21.71 2,-9.8 24.8,-8.9 11.2,-18.6 -4.61,11.61 -6.53,8.55 -14.5,16.6 z m 41.4,-64 c 1.51,-4.77 -1.05,-6 -1.29,-0.69 1.15,-0.28 0.25,0.91 1.29,0.69 z m 0.7,-6 v 1.3 c 1.09,0.17 0.54,-0.94 0,-1.3 z m 549,-385.7 c -5.69,-3.12 -10.7,-0.24 -11.2,6.71 3.42,-1.95 9.29,-3.85 11.2,-6.71 z m -43.6,-95.5 c -4,2.21 -0.33,11.42 -1.9,16.5 -1.5,0 -0.8,3.3 -1.4,4.6 6.9,-4.3 1,-17.1 7.9,-23.1 2.5,-1.6 8.5,-0.9 7.9,-4.6 -8.61,-9.4 -8.21,0.3 -12.5,6.6 z m -609.4,572.7 c -0.5,-1.8 -0.2,-1.5 -2,-2 -0.64,2.72 3.69,4.32 2,2 z m 462.1,-455.5 c -19.64,-8.78 -4.56,2.58 3.2,6 8.58,-2.11 3.53,-7.49 -3.2,-6 z M 629,202.28 c -0.4,-2.4 0.4,-5.6 -2,-5.3 0.6,1.7 -0.5,5.7 2,5.3 z m 7.2,221.2 c 4.6,-1.9 4.9,-8.1 5.9,-13.1 -4,1.7 -4.6,8.7 -5.9,13.1 z m -373.8,456.9 c 18.92,6 3.63,-2.48 7.2,-9.8 0.73,-3.8 3.4,-5.47 3.3,-9.3 -7.9,11.41 -29.73,6.94 -10.5,19.1 z m 313.9,-485.2 c 1.17,-1.65 -0.89,-5.43 -3.9,-4.6 0,2.8 1.5,3.8 3.9,4.6 z m -428.5,414.1 c -1.36,0.6 -1.14,3.91 -3.3,4.7 -2.36,2.19 -4.09,9.34 0,5.11 3.9,0.19 5.7,-5 8.6,-7.21 1.2,-2 -4.9,-7.6 -5.3,-2.6 z m 4.6,-106 c -2,-0.42 -3,-1.24 -2.6,1.31 1.05,-0.17 3.2,0.63 2.6,-1.31 z M 544.6,0.88 c 26.45,-3.88 30.76,26.56 37.3,13.91 -0.06,-4.33 -1.8,-9.17 -0.1,-13.91 -0.06,0.5 22.1,-1.19 13.9,1.31 0.55,1.64 -2.54,-0.25 -2,1.39 -7.74,-0.62 -3.84,10.5 -6.6,14.91 -2.52,1.89 -7.2,4.61 -7.2,7.89 -3.23,2.89 3.14,7.3 3.2,9.9 11.27,8.18 6.11,16.19 3.1,25.71 -2.88,2.49 0.9,10.47 0.7,12.5 5.53,12 -7.18,25.3 -2.6,38.89 4.54,8.47 13.71,13.38 19.8,19.1 7.49,3.8 13.66,14.8 21.6,16.4 a 8.44,8.44 0 0 0 2.7,4 c 0.2,0.57 -0.58,1.56 0.7,1.29 1.54,5.39 8.5,6.88 11.8,9.9 0.75,0 2.35,-0.38 2,0.7 0.7,0.08 3.07,-0.49 2.6,0.7 2.61,-0.42 3.69,1 6,0.71 -0.57,1.24 2.12,0.51 2.6,0.7 -0.38,1.42 1.69,0 1.3,1.39 5.35,0.44 7.18,5.48 11.2,8.6 4.79,9.52 16,14.42 23.1,19.7 25.73,11 44.73,41.56 70.4,45.11 -0.62,1.21 2.16,0.53 2.6,0.69 -0.7,1.1 3.5,1.7 3.9,2 1.58,2.89 5.32,4 7.2,6 3.05,0.56 11.27,3.42 13.9,-0.59 3.71,-0.61 4.51,-5.68 7.8,-7.3 0,-2.29 2.73,-3.44 2.6,-5.91 0.87,0.09 0.72,-0.56 0.7,-1.3 0.87,0.09 0.72,-0.56 0.7,-1.3 6.32,-5.55 6.21,-23.44 16.5,-28.2 3.66,-4.24 10.19,-8.13 10.5,-13.9 3.12,0.6 0.77,-2 2.5,-2 v -2.6 c 1.37,1.38 1,-13.14 0,-11.79 -0.75,-0.4 1.15,-8.14 -0.7,-7.21 -0.55,-0.5 0.89,-4 -0.7,-3.3 -0.49,-0.53 0.79,-3.18 -0.7,-2.6 -1.5,-9.37 1.39,-23.72 -9.2,-28.29 -1.17,0.29 -0.51,-0.72 -0.7,-1.31 -1.34,0.72 -0.46,-2.9 -0.7,-3.3 -1.43,1.12 -0.42,-8.41 -0.7,-8.6 -1.31,0.62 -0.47,-2.15 -0.7,-2.6 -1.27,0.51 -0.48,-1.5 -0.7,-2 -1.16,0.33 -0.52,-0.74 -0.7,-1.3 -1.77,-1.58 -6.24,-7.62 -9.2,-7.9 -3.89,-3.48 -5.82,-8.79 -9.9,-10.5 -0.4,-1.4 -1.5,-1.4 -2.7,-1.3 0.2,-0.94 -0.65,-0.67 -1.3,-0.7 0.44,-1.15 -1.46,-0.56 -2,-0.7 0.44,-1.15 -1.46,-0.56 -2,-0.7 -1.09,-2 -5.71,-2.61 -5.9,-6 -1.68,-0.24 -0.76,-2.1 -2,-2 -0.26,-0.38 0.44,-1.74 -0.7,-1.29 -0.37,-0.3 0.64,-2.65 -0.7,-2 -0.37,-0.29 0.63,-2.65 -0.7,-2 0.74,-5.29 -10.08,-3.38 -8.7,-9.9 11.79,-4.17 1.08,-19.53 1.9,-26.4 -1.22,0.57 -0.51,-1.56 -0.7,-2 -1.22,0.58 -0.52,-1.56 -0.7,-2 -1.07,0.49 -0.58,-0.85 -0.7,-1.3 -1.22,0.59 -0.52,-1.56 -0.7,-2 -3.79,-8 -5.28,-23.8 -9.1,-35.39 h 8.7 c 0.05,0.84 -0.41,2.3 0.7,2 v 2 c 1.13,-0.33 0.57,1.29 0.7,1.91 1,-0.13 0.66,0.68 0.7,1.4 3.87,4.22 7.75,11.09 10,17.09 -5.28,5.57 1.13,28.11 2.8,33.61 0.07,0.61 -0.49,3.24 0.7,2.69 0.06,0.61 -0.48,3.14 0.7,2.6 0,0.61 -0.47,3.14 0.7,2.6 -0.08,0.8 -0.31,2.29 0.7,2 v 4.59 c 1.24,-0.58 0.51,2.14 0.7,2.61 -1.46,0.37 0.14,8.33 1.4,7.89 0.29,4.48 7.27,4.47 8.6,7.3 21.1,15.46 21.14,19.59 32.9,-6 -1.47,5.72 -2.88,9.79 -2.7,15.1 -2.37,2.55 -6.74,6 -6,11.1 1.21,-0.45 0.52,1.48 0.7,2 1,-0.25 0.6,0.67 0.7,1.3 1.44,-0.4 0,1.69 1.4,1.29 0.17,0.72 -0.37,1.51 0.7,1.3 v 2 c 1.33,0.23 0.87,7 3.9,6.6 2.28,3.74 10.15,-12.75 11.2,-3.89 -2.43,2.46 -1.45,7.64 -2.7,10.59 -1,-0.28 -0.64,0.71 -0.7,1.31 -1.18,-0.48 -0.55,1.48 -0.7,2 -2.6,1 0.5,7.39 0.6,8.59 0.13,2.07 -0.64,19.36 1.4,18.41 0.2,0.42 -0.52,2.55 0.7,2 0.24,0.36 -0.6,3.28 0.7,2.6 0.32,0.21 -0.74,5.56 0.7,4.6 -0.37,2.51 0.56,7.37 0.7,9.2 1,-0.38 0.62,0.78 0.7,1.31 2.3,0.29 -0.2,1.79 2.7,2 -0.11,1.8 4.95,0.22 4.6,-1.29 2.5,0.59 2.6,-3.91 5.2,-3.31 0.26,-1.67 2.08,-0.77 2,-2 0.54,-0.19 1.51,0.35 1.2,-0.71 0.39,-0.36 3.25,0.69 2.6,-0.7 12.86,3.07 16,0.49 24.9,-9.8 7.38,-7.46 0.6,-17.43 3.4,-22.4 4.22,-10.56 6.39,-16.17 4.6,-28.9 -0.2,0.4 -1.5,-1.6 0,-1.3 v -5.3 c -1.33,0.73 -0.46,-2.9 -0.7,-3.3 -1.16,0.58 -0.56,-1.55 -0.7,-2 -1.1,0.3 -1,-1.3 -1.4,-2 -5.4,-3.86 -15.18,4 -17.1,9.3 h -0.7 c 0.3,1.5 -1.9,1.2 -1.3,2.9 -5.5,8.87 -8.63,-0.54 -4.4,-5.2 2.56,-6.45 13.74,-7.43 11.2,-17 -0.1,-0.8 -3,-4.8 -0.6,-5.3 v -2 c 1.6,0.3 0.4,-3 2,-2.6 -0.49,-3.84 2,-10.57 0.1,-13.2 4.31,-10.64 -18.44,-36.8 -7.4,-34.9 2.94,3 8,4.65 11.9,7.91 v 2 c 2.3,0.4 -0.1,6.8 2.1,7.2 0.18,3 0.42,10.24 2.1,12.51 0.22,0.83 -0.53,2.29 0.7,2 0.21,0.82 -0.52,2.29 0.7,2 0.84,5.1 -2,13.18 0.7,17.1 v 3.29 c 1.21,-0.39 0.52,1.43 0.7,2 1.9,-0.21 0.8,4.09 2.7,3.89 11.32,10.67 4.2,21.52 15.3,31.52 -11.16,9 9.66,14.6 14.9,14.9 -0.27,1.06 1,0.92 0.7,0 h 2.6 c 3.9,-3.63 9.63,-5.65 16.4,-6.79 4.1,-2.51 10.8,-6.71 14.5,-2.71 -6.83,4.61 -17.39,6.83 -24.3,9.4 -3.54,4.4 -12,4.37 -10.6,11.81 -10.7,1 -7,-11.71 -14.6,-12.51 -11,-2.49 -11.73,9.45 -11.2,16.5 2.83,19.16 11,50.12 -1.4,65 -1,35.11 44.28,33.51 69,34.9 2.68,8.31 -15.79,0.57 -19,6.71 -3.46,12.17 -4.92,-0.7 -9.2,-3.2 -6.89,-1 -12.43,1.68 -13.1,7.9 -2,-0.21 -0.1,4.79 -2.1,4.59 -0.25,0 0.6,3.53 -0.7,2.6 0.32,3.5 -1.09,7.62 -0.7,11.2 -1.63,-0.54 0.23,2.54 -1.4,2 -1,7.1 -6.52,12.93 -2.5,20.4 2.84,3.23 6,10.45 11.2,12.51 3.5,2.89 5.6,9.69 10.6,9.19 -0.62,1.2 2.16,0.55 2.6,0.71 7,-4.31 2.9,11.09 5.9,13.19 0.07,0.17 -0.42,2.8 0.7,2 0.14,0.1 -0.54,3.53 0.7,2.6 0.19,0 -0.64,4.35 0.7,3.3 v 2.6 c 1.15,-0.66 0.57,1.63 0.7,2 1.9,-0.2 0.8,4.1 2.7,3.9 2,4 4.75,9.24 9.2,11.21 -0.4,0.61 0.89,0.73 1.3,0.59 0.4,2.3 1.7,-0.2 2,2.7 -4.94,1.08 -4.83,-3.78 -9.2,-3.3 -8.47,-1.48 -22,11.5 -27.7,19.7 0.2,1.9 -2.2,2.3 -2,4.6 -1.7,-0.4 -0.5,3 -2.1,2.6 -0.17,0.64 0.56,3.12 -0.7,2.6 v 2.6 c -1.38,-0.8 -0.44,3.55 -0.7,3.91 -1.33,-0.72 -0.46,2.89 -0.7,3.3 -1.33,-0.72 -0.46,2.89 -0.7,3.3 -5.94,10.56 2.77,21 10.6,25 11.4,5.09 18.66,20.42 28.3,27 2.74,5.9 16.39,2.35 16.5,9.49 -3,1.81 -5.19,8.47 -10.5,5.91 -0.66,-0.22 -2.38,0.52 -2,-0.71 -0.71,-0.11 -1.51,0.34 -1.3,-0.7 -0.7,-0.11 -1.52,0.34 -1.3,-0.7 -0.7,-0.1 -1.52,0.33 -1.3,-0.7 -0.63,-0.2 -2.4,0.52 -2,-0.7 h -2 c 0.47,-1.19 -1.48,-0.53 -2,-0.7 0.2,-1.4 -2.3,-1 -3.3,-1.4 -3.28,-3.31 -4.5,-6.91 -8,-9.8 -1.1,-9 -16.2,-7.8 -19,-1.3 -4.21,5.53 5.25,12.47 -0.1,21.1 -1.18,-0.5 -0.55,1.51 -0.7,2 -1.7,-0.41 -0.5,3 -2.1,2.59 -0.1,0.41 0.44,2.57 -0.7,2 -1.48,2.67 -0.92,10.4 -3.4,11.81 -11.35,25.4 16.67,2.71 16.5,10.69 -7.64,-1.88 -5.66,5.88 -11.9,6.51 -9.2,-7.71 -18.8,6.89 -15.8,16.39 1.2,2.5 3.4,5.6 -0.6,7.3 -1.68,4.22 -5.9,7.38 -7.2,12.11 -1.19,-0.92 -2.07,5.81 -3.4,5.19 -1.74,5.59 0,15 -6,19 0.13,2.3 -2.71,3 -2.6,5.29 -6.85,7 -3.28,20 -2.1,28.9 6.8,13.3 6.9,0.9 11.1,19.7 5.28,4.24 9.52,12 14.5,15.11 1.7,2 5.45,3.77 5.9,6.59 10,9 15.64,25.83 -0.7,5.51 -2.29,-0.77 -2.31,-5.77 -4,-5.91 a 8.92,8.92 0 0 0 -7.3,-8.6 c 0.1,-0.77 -0.57,-0.8 -1.3,-0.69 v -0.71 c -1.9,0.5 -1.5,-1.8 -3.3,-1.3 0.27,-1 -1.34,-0.65 -2,-0.7 0.11,-0.76 -0.58,-0.8 -1.3,-0.69 -1.54,-4.13 -15.39,-7.15 -11.2,-12.6 -0.43,-0.19 0.76,-3.47 -0.7,-2.6 -0.34,-0.26 0.7,-3.43 -0.7,-2.6 v -2 c -2,0.4 -2.2,-7.7 -3.5,-7.2 -1,-15 -10.7,-11.87 -18.6,-0.69 -14.67,3 -15.41,21.49 -25,28.3 -2,3.5 -6.45,3.45 -8.6,7.29 -26.19,19.15 3.21,26.85 -19.2,28.3 -9.8,7.21 -17.7,18.8 -26.3,28.31 -39.58,7.53 -7.2,29.6 10.5,36.29 2.1,4.1 11.4,2.3 12.5,6.5 -6.49,-3 -15.31,-3.1 -19.8,-6.59 -9.83,-5.08 -10.56,-0.6 -16.4,3.4 2.91,-16 -10,-17 -13.9,-5.3 -1.14,-0.2 -0.53,0.64 -0.7,1.3 -1.65,0.71 -1.45,4.42 -4,5.19 -0.9,3 -5.19,5.67 -6,8.51 -0.14,4.47 -3.88,11.43 -6.1,15.09 -6.91,6.76 -16.83,10.09 -17.8,18.5 -1.07,-0.29 -0.58,0.72 -0.7,1.3 -1.07,-0.29 -0.58,0.72 -0.7,1.3 -1.9,-0.2 -0.8,4.1 -2.7,3.9 -0.37,0.46 0.69,3.21 -0.7,2.6 -2.76,17 8.76,21.47 0.7,24.4 -1.2,1 0.5,4.5 -1.4,4.6 -0.46,0.15 0.84,5.6 -0.7,4.6 -0.4,0.21 0.75,4.16 -0.7,3.3 8.31,22.07 -9.44,23.18 3.3,36.31 0.13,-0.26 -0.65,8.59 0.7,7.19 0.06,0 -0.51,4.34 0.7,3.3 -0.08,0.19 -0.19,1.9 0.7,1.3 0,0.08 -0.36,2.81 0.7,2 -0.22,2.32 1.09,0.8 0.7,3.5 2.71,1.31 2.18,5.77 5.6,7.2 4.78,6.2 -6.52,2.22 -9.2,3.31 2.2,-3.82 -1.2,-6.79 -1.5,-9.11 -1.06,0.13 -0.59,-0.59 -0.7,-1.3 -1.06,0.13 -0.59,-0.59 -0.7,-1.3 -5,-5 -2.56,-14 -8.7,-19.8 -5.81,-1.8 -11.37,-7.36 -19,-4.29 0.78,-14.44 -17.25,-14.56 -29.7,-17.8 -8.07,-1.64 -21.12,-2.56 -21.8,8.6 -1.43,0.35 -1.41,1.41 -2,2.69 -9.8,0.6 -4.7,-2.9 -2,-7.9 13.84,-5.62 -0.46,-18.1 -7.9,-13.29 h -2 c 0.2,1.9 -4.1,0.8 -3.9,2.7 -0.26,-0.12 -1.84,-0.16 -1.3,0.7 -1.59,-0.07 -1.86,1.38 -3.9,1.4 -4.47,4.28 -12.72,6.26 -17.2,11.3 -11.66,6.6 -31.85,20.74 -19.8,37.41 1.22,-0.5 0.47,0.86 0.7,1.29 1.6,-0.7 1.1,4.6 2.7,3.9 -0.24,2 0.85,2.89 1.1,4.8 h -6.2 c 7.35,-14.83 -15.24,-30.67 -19.9,-12.39 -0.73,-0.5 -0.82,0.85 -0.7,1.29 -1.25,0 -0.58,2 -2,2.6 -0.81,2.2 -2.54,5.5 -4,6.61 v 1.29 c -0.4,-0.12 -1,0.07 -0.8,0.6 -3.7,-0.5 -14.6,2.2 -8,-4.6 14.3,-7.7 5.2,-21.1 -9.9,-15.9 v -0.7 c -2.1,0.6 -1.8,-2.6 -3.9,-2 0.4,-1.7 -3,-0.5 -2.6,-2.1 -3,0.25 -1.45,-1.16 -4.6,-0.69 0.63,-1.74 -3.23,0.33 -2.6,-1.41 -5.58,-0.38 -14.25,-0.77 -17.7,0 -3.14,1.36 -10.07,-0.46 -13.9,0.7 0.56,1.61 -2.55,-0.22 -2,1.39 -7.08,2.52 -22.19,0.83 -25.1,12.6 -12.07,-6 -16.63,10.17 -5.1,9.61 2.86,0.4 3.7,-2.33 4.7,-5.31 4.48,-0.56 3,4.31 2,7.2 0.63,3 -27.12,0.37 -28.3,1.21 4.16,-9.23 -19.48,-44 -27.8,-33.81 -0.08,0.41 0.43,2.65 -0.7,2 -0.08,0.41 0.43,2.66 -0.7,2 -0.08,0.41 0.43,2.66 -0.7,2 -0.08,0.41 0.43,2.66 -0.7,2 -1.57,3.77 -0.21,9.61 -0.7,13.81 -3.92,4 -6.19,14.09 -14.9,12 1.87,-1 2.53,-4.58 3.1,-5.89 1.8,0.19 0.9,-4 2.6,-3.91 v -2 c 1.6,0.4 0.6,-2.6 1.8,-2.6 -0.07,-0.72 -0.32,-2.36 0.7,-2 -0.17,-0.77 -0.11,-1.49 0.7,-1.3 -0.08,-0.71 -0.31,-2.37 0.7,-2 -0.08,-0.71 -0.31,-2.37 0.7,-2 0.19,-0.86 1.11,-11.63 0.7,-13.8 -0.93,0.47 -0.6,-4.3 1.3,-3.29 18.54,-10.3 -0.9,-35.27 -15.3,-20.6 -23.65,-17.42 -29.79,20.17 -19,34.2 -4.11,5.6 -4.13,15.09 -12.6,16.4 -0.9,1.19 -1.6,1.19 -1.3,2.59 -1.4,0.4 -1.4,1.5 -1.3,2.7 -1.06,-0.51 -0.59,0.88 -0.7,1.3 -3,1.4 1.3,2.7 -5.7,2.2 -0.24,-4.52 1.73,-6.55 2.1,-11.4 3.92,-3.61 15.54,-29.75 -1.6,-23 -3.86,3.23 -4.39,7.61 -9.2,9.21 -11.28,-7.23 31.88,-14.11 23.7,-34.21 -0.07,-4.77 -7.55,-7.91 -9.9,-12.5 a 5.84,5.84 0 0 0 -2.6,-4 c -4.49,-11.52 -20.17,-17.38 -17.1,1.31 -5.29,-0.2 -5.6,-4.43 -5.3,-8.61 -8.2,-8.69 2.1,-3.59 4.5,-10.49 2.4,-6.9 -1.84,-15.76 -4.9,-19.71 -0.5,-0.79 -0.1,-2.89 -1.4,-2.59 -0.06,-0.52 0.3,-1.66 -0.7,-1.3 0.32,-1.87 -1,-0.74 -0.7,-2.6 -2.23,-7.3 -10.57,-6 -9.3,-14.4 -1.26,0.62 -0.5,-2.17 -0.7,-2.61 -1.9,0.21 -0.8,-4.09 -2.7,-3.89 0.32,-1.84 -1,-0.76 -0.7,-2.6 -1.6,0.1 -1.4,-2.7 -3.3,-2 -0.2,-2 -2.4,-0.2 -3.3,-2 -1.75,-1.44 1.48,-15.15 -2.7,-16.5 v -2 c -1.6,0.7 -1.1,-4.6 -2.7,-3.9 0.5,-1.9 -1.8,-1.5 -1.3,-3.3 -1.7,0.4 -0.5,-3 -2.1,-2.6 v -2 c -1.15,0.57 -0.56,-1.56 -0.7,-2 -1.38,0.77 -0.43,-3.53 -0.7,-3.91 -1.33,0.73 -0.46,-2.9 -0.7,-3.3 -1.25,0.66 -0.51,-2.17 -0.7,-2.59 -1.79,-0.33 -3.36,-14 -8,-13.9 -5.64,-3.69 -5.07,7.59 -6.7,9.09 -0.05,0.7 0.47,3.07 -0.7,2.61 0.11,0.77 0.16,1.49 -0.7,1.3 v 2 c -1.42,-0.39 0,1.68 -1.4,1.3 0,0.71 0.36,2.37 -0.7,2 v 15.09 a 1,1 0 0 1 0.7,1.3 c -2.65,8.13 -3.73,11.62 -1.2,19.1 2.95,6.5 4.57,22.78 1.5,32.2 -3.84,-6.45 3.19,-9.16 -1.4,-19.09 -2.7,-2.21 0.5,-11 -2.1,-13.21 v -2 c -0.89,0.42 -0.71,-0.79 -0.7,-1.3 -1.13,0.55 -0.58,-1.53 -0.7,-2 -0.89,0.42 -0.71,-0.8 -0.7,-1.3 -1.13,0.55 -0.58,-1.53 -0.7,-2 -3.1,-2 1.5,-8.8 1.3,-11.8 v -9.9 c -2.76,-4.06 -0.79,-10.65 1.4,-14.4 2.27,-4 6.64,-17.68 2.6,-19.79 -0.93,0 -1.35,0.23 -1.3,-0.7 h -2 c 0.39,-1.43 -1.69,0 -1.3,-1.4 -6.78,-5 -4.66,-8.24 -15.8,-8.59 -0.33,-0.44 0.49,-1.72 -0.7,-1.3 -0.1,-2.07 -1.28,-5.09 -4,-5.91 -10.8,-4.34 -8.24,15.62 -13.9,18.4 -10.05,17.59 15.72,56.26 1.3,38.21 -1.37,0.79 -0.45,-3.55 -0.7,-3.91 -1.29,0.61 -0.48,-2.14 -0.7,-2.6 -7,-10 -16.3,-8.64 -25.1,-0.59 0,-0.66 -0.05,-0.77 -0.7,-0.71 v -3.9 c -6.08,-6.11 2.85,-10.92 1.3,-16.4 0.4,-3.3 -7.7,-4.2 2.7,-10.5 -0.12,8.54 6.36,30.81 14.4,15.11 1.63,1.23 0.28,-13.09 0.7,-13.21 4.16,-4.85 19.41,-37.88 0.1,-30.9 -3.08,2.59 -12,20.64 -12.6,11.81 1.8,0.29 0.3,-3.71 2.1,-3.31 -0.6,-2.1 2.6,-1.8 2,-3.9 8,-6 18.35,-13.22 10.3,-22.3 -0.4,-2.11 -2.4,-5.1 -4.6,-5.3 -0.23,-2 -2.82,-0.57 -2.7,-2 -0.63,0.2 -2.4,0.22 -2,-0.7 -0.62,0.21 -2.4,0.21 -2,-0.7 -6.29,-1.56 -18.42,-13 -26.3,-2.6 -7.56,3.17 -12,11.86 -14.6,18.4 0.8,14.09 -2.4,4.69 -9.3,11.89 -8.81,-1.12 -15.8,5.64 -14.5,15.9 -15.1,-4 -10.1,7.57 -19.1,9.19 -6.33,-2.71 -7.27,11.19 -9.3,13.19 -1.4,4.34 -3.19,12.31 1.3,17.1 15.6,7.48 -3,6.35 -1.5,18.41 1.34,-0.74 0.46,3 0.7,3.4 0.86,4.6 8.31,5.9 9.3,9.19 1.41,1.94 -5.3,0.62 -6.7,4 -4.41,9.41 3.7,23 7.3,30.8 1.1,-0.3 1,1.3 1.4,2 -11.5,-0.4 -8.3,13.5 -8.5,22.3 0.3,9.1 -6.7,22.9 0.6,29 4,8.6 7.7,5.9 14.4,2 -5,15 -11,8.68 -3.3,26.4 -8.59,5.12 -2.89,21.29 -3.9,28.9 -0.58,3.94 1.58,7.37 3.4,10 -15.24,1.4 -3.91,-3.49 -14.5,-16.09 7,-3.06 8.71,-55.82 -7.4,-36.81 -1.28,-7.6 -5.17,-9.4 -9.9,-14.49 4.68,0 9.24,-0.83 9.9,-4.6 5.66,-10.68 4.29,-20.61 0.6,-30.3 5.06,-3.63 5.47,-27.26 2.7,-32.3 -8.48,-5.88 -8.57,8.34 -14.3,6.5 -9.66,-16.73 -17.39,12.75 -27.6,15.09 -8.5,9.7 -1.9,12.5 -12.5,9.8 -35.25,30.12 -7.41,21.65 15,31.1 -7.39,4.2 -12.19,0.89 -18.5,-0.8 1,-1.47 -7,-0.38 -7.2,-0.7 0.7,-1.32 -2.79,-0.46 -3.2,-0.7 -5.62,-4 -7.42,8.66 -13.8,5.2 -8.61,3.89 -7.55,15.91 1.9,6.61 a 2.58,2.58 0 0 1 2.6,-2.71 c 6.62,18.49 -3.65,5.79 -11.2,15.7 -7.62,4.49 -10.67,13.17 -9.2,21.81 -3.54,1.66 -2.59,12.07 -2.7,15.7 1.69,-0.17 -0.36,4 2,4 1.48,4.06 8,9 -1.4,8 0.63,-3.46 -0.45,-5.54 -0.4,-8.7 -0.55,-0.06 -0.82,0.2 -0.7,-0.7 -1.9,0.5 -1.5,-1.8 -3.3,-1.3 0.84,-1.37 -4.26,-0.44 -4.6,-0.7 C 0.09,883.35 8.08,882 9,877 1.48,865.56 27,843 0.5,846.2 c -1.19,-9 4,-2.43 6.4,-5.49 10.15,-2.05 12.94,-15.08 20.4,-21.2 17.7,-18 -2.64,-11.94 9.3,-23.1 5.95,1.8 11,-1.19 14.4,-4.71 6.42,-1.34 11.24,-7.68 11.2,-16.5 7.68,0.94 14.56,-6.26 15.1,-13.29 -1.4,0.29 -2.7,-5 -2,-6.61 2,-0.6 1.4,-4.9 4.7,-3.9 -0.8,10.5 10.4,5.1 9.8,-4 -7.4,-4 -2.3,-3.6 0,-7.9 8.56,-0.23 12,-29.9 -0.6,-25 3.07,-6.35 29.76,-25.43 11.2,-26.5 h -2.6 c 0.22,1.24 -0.66,0.47 -1.3,0.71 -8.93,7.95 -29.75,7.43 -36.3,21.1 -3.12,1.89 -4.84,5.25 -7.9,5.9 -3.56,2.84 -8.16,7.11 -12.5,9.3 -0.5,2.29 -3.5,1.09 -4,3.29 -3.3,-0.3 -3.9,5.6 -7.2,5.3 a 3,3 0 0 0 -1.3,3.1 c -4.74,15.66 -4.58,-6 -26.8,14.3 -2.06,-9.87 7.89,-10.44 13.1,-16 10.3,-0.7 13.8,-12.5 21.8,-14.5 -0.38,-1.48 1.69,0.07 1.3,-1.4 1.93,0.31 0.68,-1 2.6,-0.7 3.08,-3.56 21.09,-10.69 11.7,-15.9 -3.26,-2 -10.76,1.72 -12.5,2.7 -0.34,0 -2.68,-0.33 -2,0.7 -0.59,-0.2 -1.64,0 -1.3,0.9 -8.34,2.36 -17.41,0.56 -27,0.1 -3.13,0.89 -9.3,6.26 -7.2,0 1.19,0.78 1.38,-5.86 -0.5,-5.59 v -5.61 c 0.59,0.22 1.52,-0.32 1.2,0.71 10.06,0.61 12.83,-3.44 17.8,6 7.1,0.09 17.4,2.49 17.7,-7.91 -5.4,-2.9 -0.8,-8.1 4,-9.2 -0.85,4.63 -1.12,10.57 3.9,11.21 -0.52,1.6 2.52,-0.22 2,1.39 3.37,0.56 11.42,-0.59 13.8,-0.7 -0.2,-2 4.8,-0.1 4.6,-2.1 h 2 c -0.52,-1.65 2.52,0.25 2,-1.4 h 2 c -0.16,-1.28 0.53,-0.41 1.2,-0.7 -0.4,-1.7 3,-0.5 2.6,-2.1 h 2 c -0.44,-1.33 1.46,-0.43 2,-0.7 -0.59,-1.34 2.13,-0.44 2.6,-0.7 -0.45,-1.33 1.47,-0.43 2,-0.7 -0.2,-1 1.94,-0.46 2,-2 1.7,-1.2 1.2,0.7 2,-2 h 0.7 c 1.9,-5.7 -6.2,-6.4 -5.9,-11.2 -2.21,-6.93 -1.06,-5 -6.6,-9.19 -3.48,-2.49 -14.2,0.93 -14.5,-6.7 8.1,-16.35 4.15,12 17.8,0.69 4.8,-5.8 13.1,-11.9 7.3,-19.7 -2.2,-12.5 2.3,-9 10.5,-15.7 2.06,3.83 -0.63,8.65 -1.3,11.8 -1.9,-0.2 -0.8,4.1 -2.7,3.9 -0.08,2.52 -1.08,5 -0.7,7.91 -1.32,-0.31 0.39,2.54 -1.2,2 0.32,2.07 -2.09,2.43 -2,4.8 -4.87,3.37 -6.3,12 -3.5,17.7 2.79,3.87 10.18,13.83 16.6,9.81 15.56,-0.44 17.51,-10.26 11.8,-23.21 3.4,0.6 2.2,5.7 4,7.9 10,6.82 14.89,-4.57 21.7,-7.9 1.62,-3.22 6.8,-3.87 7.2,-7.19 1.69,0.32 1.42,-5.51 1.4,-7.21 1.4,-0.7 3.9,-0.56 4.2,-2 6.24,-1.45 9.25,-8 15.1,-10.61 6.67,-7 15.5,-12.89 15.2,-21.7 7.51,-24.31 3.06,-44 -17.8,-16.49 1.09,-15.67 22.46,-12.09 24.6,-26.3 7.67,-9.69 0.22,-15.25 -11,-9.2 -3.75,-0.41 -13.7,0.48 -16.4,0.7 0.59,1.26 -2.14,0.5 -2.6,0.7 0.72,1.33 -2.9,0.46 -3.3,0.7 0.59,1.26 -2.14,0.5 -2.6,0.7 0.61,1.72 -3.21,-0.33 -2.6,1.39 -4.47,1.08 -5.34,5.7 -8,8.6 -6.77,1.36 -3.85,-3.61 -1.2,-6.6 -1.41,-13 6.55,-3.19 12.5,-6.6 6.21,-6.5 29.41,4.62 30.3,-12.6 18.37,6.54 23.72,-12.3 29.7,-24.9 a 102.45,102.45 0 0 0 15.9,-27.7 c 3.07,-3.58 6.86,-7.53 8.5,-11.89 1.41,0.42 0,-1.72 1.4,-1.31 -0.08,-0.32 -0.32,-2.67 0.7,-2 v -2 c 2,0.2 0.1,-4.8 2.1,-4.6 v -2 c 1.06,0.58 0.63,-1.55 0.7,-2 1.06,0.58 0.63,-1.55 0.7,-2 7.12,-12 4,-25.46 0.5,-35.59 -1.31,0.61 -0.45,-1.59 -0.7,-2 -1.9,0.3 -0.2,-4.2 -2.1,-3.9 v -1.3 c -1.31,0.63 -0.45,-1.58 -0.7,-2 -1.24,0.57 -0.46,-0.91 -0.7,-1.29 -1.31,0.62 -0.45,-1.6 -0.7,-2 -8.38,-7.79 -7.07,-24.16 -5.4,-34.8 2,0.94 -0.61,-7.53 1.4,-6.6 -0.18,-2 0.41,-14.2 -1.4,-14.4 0,-6.42 -7.6,-10.25 -13.2,-6.69 -0.61,0.47 -2.47,-0.72 -2,0.7 -0.67,0.31 -1.59,-0.46 -1.3,0.7 -1.7,0 -3.21,0.31 -4,2 -6.67,2.89 -18,18.76 -21.8,26.3 -4.46,4.87 -11.58,9 -16.5,11.21 0.18,-0.27 -2,0 -2,-0.11 0.21,1.31 -0.66,0.42 -1.3,0.71 0.2,2 -4.8,0.09 -4.6,2.09 -0.59,0.58 -2.46,-0.78 -2,0.71 h -2 c 0.45,1.34 -1.47,0.44 -2,0.71 0.45,1.33 -1.47,0.43 -2,0.7 0.4,1.69 -3,0.49 -2.6,2.09 -1.8,0.94 -6.46,1.58 -7.9,4 -3,0.19 -4.88,4.15 -7.9,4.71 -4.93,5.2 -21.6,15.11 -21.8,21.79 -4.17,9.17 -5,-11.61 -24.9,12.61 -3.91,11.36 3.25,7.47 -4.6,18.39 -0.83,-1.07 -2.38,4.55 -2.1,4.6 -1.15,-0.41 -0.57,1.45 -0.7,2 -1.62,-0.52 0.22,2.51 -1.4,2 0.32,2.3 -1.08,3.94 -0.7,6.3 -1.15,-0.42 -0.57,1.45 -0.7,2 -1.43,-0.39 0,1.69 -1.4,1.29 -0.24,3.83 -4.87,9.62 -4.7,1.4 1.29,0.65 0.48,-2.17 0.7,-2.6 1.9,0.2 0.8,-4.1 2.7,-3.9 v -2 c 1.73,0.63 -0.33,-3.22 1.4,-2.6 -0.34,-2.67 1,-5.11 0.7,-7.8 1.34,0.73 0.46,-2.9 0.7,-3.3 3.13,-1.8 0.31,-6.81 -1.3,-8 -7.17,0.43 -11.38,10.69 -18.4,13.2 -5.09,2.95 -8.07,9.22 -11.3,14.6 -4.52,7.65 -4.35,16.17 2.5,23 -7.77,-2.38 -14.43,9 -19,14.5 -5.86,5.61 -12.92,11.06 -17.2,17.1 0.17,0.5 0.25,2.54 -0.7,2 0.24,0.46 0.07,1.66 -0.6,1.3 0.13,0.44 0.34,3.27 -0.7,2.6 -1.69,4.69 -0.38,11.3 -1.2,16.41 -4.12,-15.81 -5.72,-15.85 -16.5,-3.11 0.25,-1.77 -0.23,-9.76 0.5,-10.5 1.1,0.15 0.57,-0.6 0.7,-1.3 1.32,0.53 0.46,-2.08 0.7,-2.6 3.35,-3.35 -7.14,-15.7 1.4,-17.09 -2.58,18.6 11.2,10.62 19,1.16 8,-8.67 21.22,-19.33 19,-31.59 -9.3,-2.81 -0.8,-4 0.7,-9.21 -3.86,-8.69 27.23,-9.45 3.9,-29.6 -13.8,-8.4 -19.2,14.9 -21.7,1.3 -1.1,-0.9 -1.2,-1.6 -2.6,-1.3 v -0.7 c -1.24,-0.46 -3.84,0.54 -5.2,-0.7 4.91,-17.43 10.84,11.07 21,-6.1 2.94,-12.17 16.41,21.42 28.9,10.4 9.32,-4.87 10.11,-15.4 21.7,-15.9 4.84,-5.33 18.78,-9.09 21.1,-17 2.9,-1.31 -0.7,-4 4.6,-3.91 1.9,2 5.2,1 7.3,0.6 4.43,-3.24 10,-7.58 15.3,-10.7 5.7,-7.55 13.48,-10.7 21,-14 0.38,-0.24 1.75,0.41 1.3,-0.71 0.29,-0.33 2.65,0.62 2,-0.7 h 1.3 c -0.3,-1.8 3.7,-0.3 3.3,-2.1 1.54,-0.2 4.28,-2 5.2,-2 0.1,-2 4.3,-0.9 4.6,-3.3 8.78,-3 13,-13.67 20.4,-19.7 5.23,-11 15.07,-17.63 7.4,-31.59 4.4,3 4.1,12.39 13.2,12.49 26.2,-9.06 20.67,-30.25 18.5,-53.6 0.22,-5.9 3.61,-20.24 -5.9,-20.4 -0.95,-1.24 -9,-0.49 -9.9,0.7 -0.73,0.47 -3,-0.77 -2.6,0.71 -0.72,0.46 -3,-0.78 -2.6,0.7 h -3.3 c 0.71,1.34 -2.9,0.46 -3.3,0.71 -31.22,0 -19.4,30.67 -9.8,50.8 -12,-2.15 -11.31,-4.63 -10.6,-17.81 -1.36,0.78 -0.45,-3.52 -0.7,-3.9 -2.78,-2.36 -5.57,-8 -3.3,-12.5 3.5,-19.33 -21.3,-35.09 -32.9,-19 -5.13,5 -13.18,10.25 -15.2,16.51 -3.79,1.56 -2.15,14.61 -6.1,11.8 2.37,-34.86 -22.1,4.07 -31.6,11.89 -0.5,1.2 -0.4,3 -2,3.3 -0.38,1.7 -1.66,5.15 -2.7,5.21 v 1.29 c -1.4,-0.6 -1.1,4.6 -2.6,3.9 0,0.67 0.39,2.38 -0.7,2 0.06,0.71 0.21,1.52 -0.7,1.3 -0.3,1 -1,12.1 -0.7,14.41 2,6.5 -0.76,16.82 0.7,25 -6.5,-5 -10.2,-0.9 -11.2,-4.6 4.67,-7 9,-16.58 6.6,-25.7 -3.77,-4.57 -7.1,-7.52 0,-11.8 5.41,-16.92 20.65,-24.57 25.6,-40.69 -5.77,-10.09 -25.77,-0.54 -32.3,2 -0.31,0.51 -2.63,-0.73 -2,0.71 -1.75,-0.31 -2.25,0.9 -4,0.59 -0.22,1.48 -3.5,1.42 -4.6,1.71 0.54,1.25 -1.54,0.48 -2,0.7 0.42,1.13 -0.8,0.53 -1.3,0.7 -18.64,8.82 -49.58,0.45 -62.8,25.09 -4,-21.35 18.09,-15.89 4.5,-38.1 7.2,2.65 6.71,12.85 13.9,13.61 10.31,2.77 25.37,-4.28 35.5,-3.9 -0.59,-1.28 2.14,-0.5 2.6,-0.71 -0.24,-1 0.68,-0.6 1.3,-0.7 -0.46,-1.2 1.47,-0.52 2,-0.7 -0.25,-1 0.68,-0.6 1.3,-0.7 -0.4,-1.7 3,-0.5 2.6,-2.1 0.64,-0.24 2.39,0.55 2,-0.7 0.69,-0.13 1.53,0.36 1.3,-0.7 h 2.6 c -0.6,-1.27 2.14,-0.49 2.6,-0.7 -0.2,-2 4.8,-0.1 4.6,-2.1 0.57,-0.21 2.44,0.53 2,-0.7 0.56,-0.21 2.45,0.53 2,-0.7 0.55,-0.21 2.46,0.53 2,-0.7 0.61,-0.11 1.58,0.34 1.3,-0.7 0.54,-0.2 2.47,0.52 2,-0.7 17.24,-4.2 24.51,-25.8 32.9,-40.89 1.9,0.59 1,-2.31 2.5,-2 v 5.9 c -1.8,-0.3 -0.3,3.7 -2.1,3.3 v 1.3 c -0.75,0 -2.81,3.07 -2.7,4 a 6.21,6.21 0 0 0 -2,3.9 c -21,21.32 -5.79,27.49 16.2,20.41 8.1,-6 18.63,-13.45 23.7,-22.3 6.35,-8.32 22.76,-48.83 -2.5,-46 -18.6,3 -17.2,-2.1 -28.9,12.6 3.84,-20.45 -5.16,-16.21 -4.1,-32.7 6.67,21.09 26.38,21.31 43.4,11.11 4.41,-15.55 1.25,-38.14 3.3,-54 0.8,-6.9 10.5,-6.5 12.6,-12.5 3.6,-2.8 -1.9,-14 2,-17.1 0.29,-0.37 2.75,-7.6 4.1,-7.8 v -2 c 1,0.3 0.65,-0.71 0.7,-1.3 1.17,0.49 0.55,-1.49 0.7,-2 2.1,-2.1 1.1,-8.3 2,-11.8 1.62,-2.84 3.91,-11.55 0.6,-13.8 -0.4,-2.41 -3.29,-5.34 -2.7,-8.5 -0.3,0 -1.5,-1.5 0,-1.3 -0.23,-6.76 8.4,-26.86 2,-31.5 0.78,-5.44 -9.56,-11 -7.3,-15.79 0.11,-0.11 -0.45,-2.79 0.7,-2 0.1,-0.1 -0.45,-2.79 0.7,-2 1.2,-13.08 -0.5,-12.32 13.2,-12 -8.28,6 -1.15,19.3 -1.2,25.8 1.7,-0.4 0.5,3 2.1,2.6 0.21,0.53 -0.39,1.64 0.6,1.3 v 2 c 2.16,2 3.69,6.82 4.7,9.1 7.1,6.26 -7.54,8.37 -5.3,30.31 1.95,-0.69 4.71,12 1.9,13.79 0,0.46 0.38,2.61 -0.7,2 0,0.46 0.38,2.61 -0.7,2 -0.09,0.41 0.51,3.32 -0.7,2.6 -0.23,0.3 0.75,5.55 -0.7,4.6 -0.15,0.36 0.62,4.13 -0.7,3.3 0,0.46 0.38,2.61 -0.7,2 v 2 c -1.7,-0.4 -0.5,3 -2.1,2.6 0,0.68 0.07,1.17 -0.7,1 v 1.3 c -1,-0.45 -0.67,1.48 -0.7,2 -9,12 5.82,20.78 -11.3,28.39 -11.45,4.94 -5,21.42 -5.4,30.2 2.47,10.72 -2.25,25.75 -0.6,36.2 8.73,15.24 -18.35,44.71 1.5,53.31 13.43,13.94 21.71,10.18 37.4,4.59 0.23,-0.55 9.69,1.1 8.6,-0.69 h 3.9 c -0.34,-1.3 1.39,-0.45 2,-0.7 0.95,-1.27 4,-1.33 4.8,-4 a 2.25,2.25 0 0 0 2.6,-2.6 c 1,-1 3,-1.5 2.6,-3.3 a 26.84,26.84 0 0 0 7.3,-11.19 c 1.47,0.37 -0.06,-1.69 1.4,-1.31 -0.31,-1.93 1,-0.67 0.7,-2.6 2.31,-2 3,-6.67 5.9,-8.6 9.64,-11.31 21.18,-29.71 34.1,-38.8 2.54,-3.56 6.34,-6.47 7.3,-10.5 1.7,0.4 0.5,-3 2.1,-2.6 0.53,-0.66 -0.76,-2.37 0.7,-2 0.41,-0.7 -0.55,-1.51 0.7,-1.3 v -2.6 c 1.64,0.53 -0.24,-2.52 1.4,-2 0.58,-0.57 -0.84,-3.12 0.7,-2.6 0.4,-0.67 -0.54,-1.54 0.7,-1.3 v -2 c 1.26,0.48 0.49,-1.48 0.7,-2 3.35,-4.41 -0.4,-16.47 5.2,-21.1 8.87,-12.63 7.09,-35.78 23.2,-44 19.13,-11.73 -7.69,-17.32 -8.6,-28.9 -1.6,0.39 -1.7,-11.21 0,-11.21 1.3,-7.6 -3.6,-15 -2,-23.7 6.08,-10.51 -1.57,-14.21 -6.6,-21.69 -12.92,-18.53 57.16,-6.51 61.4,-9.77 6.47,5 -10.61,24.76 6.4,18.51 2.1,0 4,-0.51 3.9,2.59 -3.81,2.59 -4.32,11.93 -7.4,11.91 -5.33,-0.32 -11.44,-3.5 -9.9,7.2 1.44,-0.38 0,1.68 1.4,1.29 -0.08,2.22 4.56,7.45 0,9.2 -12.79,16.43 14.23,9.74 10,27 0.54,4 5.25,4.4 5.2,9.9 -13.4,20.89 4.88,31.08 22.9,36.4 h 2 c -0.53,1.21 1.53,0.53 2,0.7 -0.39,1 0.79,0.61 1.3,0.7 -0.11,1.2 1.88,0.36 2,2 5.35,1 6.63,7.26 10.6,10.5 0.94,4.49 8.19,6.56 8.5,11.2 1.42,-0.41 0,1.7 1.4,1.29 -0.27,3.6 4.32,4.73 4.6,7.8 1.06,1.73 4.4,1.13 3.9,3.9 8.69,4.93 0.91,16.87 5.3,23 5.2,8.68 12.38,19 22.6,23.5 2.42,0 0.33,1.07 3.3,0.7 -0.6,1.12 1.57,0.59 2,0.7 -0.49,0.82 0.95,0.59 1.3,0.6 -0.93,1.08 5.67,2.1 5.2,3.4 0.09,0.08 3.42,-0.46 2.6,0.6 0.35,0 1,0 0.7,-0.7 h 2.6 c 0.2,-0.6 4,-4.3 3.9,-1.9 1,8 10.57,27.64 19.8,22.81 4,-1.61 7.3,-6.41 10.6,-9.91 6.17,-2.29 12.31,-2.27 15.2,-8.5 10.61,9.89 18.73,-3.22 27.1,-8 3.54,-2.88 9.35,-6.08 9.9,-10.6 1.38,0.4 0,-1.69 1.4,-1.3 -0.24,-0.69 0,-1.52 0.7,-1.3 -0.24,-0.69 0,-1.53 0.7,-1.3 10.73,-19.44 1.89,-10.72 3.4,-28.2 4.22,-9 5.25,-19.77 4.9,-32.3 -1.1,0.7 -1.7,-3.5 -2,-3.9 -2.18,-2 -4.33,-3 -5.9,-5.29 -1.6,0.59 -1.5,-1.41 -2.7,-1.31 -0.34,-0.47 0.47,-1.72 -0.7,-1.29 -0.34,-0.48 0.47,-1.73 -0.7,-1.3 v -2.61 c -4.61,-20.12 9.13,-32.24 1.9,-55.89 0.88,-3.18 3.88,-11.8 2,-15.8 -1.49,0.42 0.07,-1.73 -1.4,-1.31 0.6,-2.8 -4.5,-3.1 -3.9,-5.9 -2,-1.23 -3.23,-2.73 -3.3,-4.6 -1.39,0.61 -0.39,-1.58 -0.7,-2 -1.37,0.67 -0.43,-2.18 -0.7,-2.6 0,-24.56 -21.45,-9.24 -22.4,-29.59 z m -434.8,743.9 c -1.6,-0.2 -0.8,-3.4 -2.7,-4.6 -3.95,-0.38 -4.81,1.19 -5.3,3.3 -2.51,1.47 -2.18,6.12 -3.3,7.9 -1.16,-0.58 -2,5.79 -3.3,5.21 -0.07,18.16 19.37,-1.73 14.6,-11.81 z m 263.9,-614.6 c -2.33,3 -7.29,4.25 -7.4,7.8 -1.62,-0.51 0.22,2.52 -1.4,2 0.39,2.74 -1.08,5.08 -0.7,7.8 -2.33,2 -4.93,16.29 -1.4,20.4 0.53,0.69 -0.81,3 0.7,2.61 0.47,0.71 -0.71,2.33 0.7,2 0.47,0.7 -0.71,2.34 0.7,2 v 2 c 1.13,-0.23 0.54,0.68 0.7,1.31 15.23,22.6 -16.72,18.48 10.5,53.89 1.75,6.12 8.25,11.06 7.4,17.8 -4.61,9.69 0.14,25.55 0.5,35 -0.71,13.84 -0.16,18.16 7.3,28.19 5.7,10 17.42,7.89 20.5,-1.4 3.87,-5.57 9.76,-9.75 14.4,-14.49 11.34,-5.76 42.13,10.18 36.3,-15.2 4.94,3.95 9.18,23.79 21,15.09 2.92,-8.42 11.62,-15.51 15.2,-23 -0.26,-0.84 -0.06,-1.41 0.7,-1.3 v -2 c 1.62,0.52 -0.22,-2.52 1.4,-2 -0.18,-5.05 7.21,-18.18 1.3,-23.11 -0.61,-3.8 -6.52,-5.91 -7.2,-9.79 -3.43,-2.69 -4.26,-8.73 -9.1,-10 -0.85,-2.31 -6.14,-2.66 -6.6,-4.6 -0.81,-0.1 -1.44,0.33 -1.3,-0.69 -0.76,-0.2 -2.31,0.5 -2,-0.7 -10.61,-2.32 -9.22,9 -13.9,13.8 -0.23,0.48 0.42,1.67 -0.7,1.29 v 2 c -1.07,-0.36 -0.58,0.76 -0.7,1.3 -1.4,-0.2 -1,2.3 -1.4,3.3 -4,5 -1.36,-1 -2.1,-3.31 1.15,0.47 0.56,-1.48 0.7,-2 0.94,0.27 0.68,-0.69 0.7,-1.3 2.2,-0.1 0,-5.8 2.1,-5.9 -0.32,-2.32 -1.07,-4.33 -0.7,-6.6 3.94,-6 -3.08,-13.9 -7.2,-17.19 -4.71,-7.38 -9.28,-15.84 -17.2,-21.11 6.4,-19.49 -2.54,-18.42 -9.9,-34.09 -3.3,-1.83 -6,-5.29 -8.6,-7.91 -0.5,-0.8 -0.1,-2.9 -1.4,-2.6 -0.5,-0.8 -0.1,-2.9 -1.4,-2.6 a 5.78,5.78 0 0 1 -1.3,-2.6 c -0.8,-0.5 -2.3,-0.2 -2,-1.4 a 1.59,1.59 0 0 1 -2,-1.3 c -1,-0.6 -3.5,0 -3.3,-1.4 -0.35,0.06 -3.32,0.4 -2.6,-0.69 -0.34,0.06 -3.33,0.39 -2.6,-0.7 -0.33,0.06 -3.33,0.38 -2.6,-0.7 -9.38,-2.02 -14.6,-9.85 -24.1,2.1 z m 101.8,247.7 c -2.36,-3.86 -2.92,-10.72 -8,-12.5 0.4,-1.7 -3,-0.5 -2.6,-2.1 -2.23,-0.1 -3,-1.33 -4.6,-1.4 -2.35,-4.88 -8.32,-9.51 -13.1,-9.4 0,-1.88 -8.76,-1.51 -9.2,-3.39 -14.81,-5.35 -15.66,13.09 -19.1,2.7 -1.4,0.19 -1,-2.31 -1.4,-3.31 -1.44,-1.22 -4.38,-3.6 -5.3,-5.29 -4.45,-1.4 -7.62,-5.12 -11.8,-5.41 -6.72,-5.3 -15,5.89 -19.8,9.3 -1.85,-0.31 -0.75,1 -2.6,0.7 0.37,1.11 -0.77,0.56 -1.3,0.71 0.38,1.1 -0.78,0.55 -1.3,0.7 v 0.69 c -1.9,-0.5 -1.5,1.8 -3.3,1.3 a 19.16,19.16 0 0 1 -4.6,5.31 c 0,1.73 -2.14,4.09 -2,5.19 -1.6,-0.7 -1.1,4.6 -2.7,3.9 0.4,2.66 -0.94,1.35 -0.7,3.3 -1.14,-0.45 -0.58,1.48 -0.7,2 -4,3.5 -2.84,14.26 -5.6,19 v 2.59 c -1.13,-0.48 -0.58,1.5 -0.7,2 -3.8,4.69 -0.46,15.62 -2.1,22.39 -0.84,2.12 -5.22,5.78 -6,8.6 -1.6,-0.7 -1.1,4.6 -2.7,3.9 0.46,1.95 -5.85,16.36 -2.7,18.4 0.5,0.28 -0.73,2.66 0.7,2 0.39,1.82 1.82,4 3.3,5.91 -7.43,6.39 -20,31.26 -0.7,31.6 14,-6.71 7.4,-13.51 15.1,-15.21 2.56,1.88 15,4.19 17.1,1.2 0.55,-0.66 4.56,1 3.9,-0.7 0.47,-0.73 6.1,1.06 5.3,-0.7 3,0.38 4.78,-1.08 7.8,-1.4 -0.4,-1.7 3,-0.5 2.6,-2.1 0.52,-0.54 3.16,0.82 2.6,-0.7 0.27,-0.78 8.93,1.14 7.9,-0.7 14.62,-4.6 25.25,10.81 41.8,-2.7 9.75,-2.08 17,-4.94 21.6,-14 5.28,-7.4 10.29,-14.27 15.8,-22.5 1.65,-5.47 7.3,-8.7 7.3,-14.5 4.79,-8.06 -9.87,-31.28 -18.2,-35.4 z m -10.2,-77 c -15.24,-2.33 -38.23,-4.22 -46.1,10.5 -3.33,6.68 -14.69,11.51 -6.5,19.11 2.46,0 3.33,3.45 5.9,3.29 0.4,2.7 9.2,2.2 9.8,4.1 2,-0.22 3.74,1 5.9,0.6 -0.6,1.27 2.14,0.51 2.6,0.71 -0.48,1.17 1.49,0.54 2,0.7 -0.58,1.12 2.24,0.4 2.6,0.6 0.56,1.52 7,1.6 8.5,2 -0.62,1.72 3.21,-0.33 2.6,1.39 h 2 c -0.8,1.7 4.6,1.2 3.9,2.8 2.24,0.15 6.39,1.17 7,-2.6 2,-0.21 0.55,-2.82 2,-2.7 0,-0.62 -0.24,-1.57 0.7,-1.29 0.07,-0.56 -0.42,-2.46 0.7,-2 0.06,-0.55 -0.42,-2.47 0.7,-2 0.1,-0.49 -0.49,-3.19 0.7,-2.6 0.14,-10.98 10.42,-31.49 -5,-32.61 z m -124,-228 c 17.17,13.06 -0.09,22.23 2,38.7 -0.13,14.48 13.35,20.06 23,11 6.4,-1.7 3.6,-12.8 6,-16.4 A 98.61,98.61 0 0 0 373,91.69 c 1.42,0.87 0.41,-4.29 0.7,-4.61 -1,-0.71 -2,-2.92 -4,-3.89 -3.9,-16.09 0.35,-9.41 -11.2,-23 -2.66,-1.19 0,-8.42 -1.4,-9.21 -7.9,-12.08 5,-16.83 4.1,-28.4 -3.74,-6.11 -4.69,-16.51 -15.8,-13.79 -1.27,3.15 -8.9,2.7 -11.2,1.89 -10.6,-8.1 -0.9,7.1 0,11.9 0.22,8.24 -3.92,12.9 -2.7,20.4 3.6,9.7 -3.8,25.3 9.8,29.9 z m -37.4,185.4 c -1.63,0.25 -0.8,2.09 -2,2 0.07,0.46 0.2,1.68 -0.7,1.29 v 2 c -1.8,-0.3 -0.3,3.7 -2.1,3.3 -0.3,3.14 -3.71,6.59 -4.7,9.9 -2.69,1.87 -2.25,5.09 -4.6,7.2 -0.34,2.55 -3.11,4 -2.7,6.6 -1.42,-0.41 0,1.72 -1.4,1.3 -1,4.78 1.88,8.56 3.3,11.7 4.2,4.52 6.62,11.13 10.6,15.5 6.13,3.55 15.16,6.22 14.6,16.4 7.63,13.84 20.11,1.84 27.7,-3.4 -0.3,-1.8 3.7,-0.3 3.3,-2.1 h 2 c 5.27,-3.06 4.83,-2.89 7.9,-7.9 0.36,-14.67 3.68,-13.87 3.4,-0.59 v 4.59 c 3,0.44 1.14,3.92 4.7,8 2.65,0.91 10,5.39 13.1,2.6 6,-6 10.34,-15.69 4.6,-23.2 -3.23,-2.39 -4.16,-7.43 -6.7,-9.9 -0.36,-0.83 0.63,-2.25 -0.7,-2 -0.41,-0.78 0.72,-3 -0.7,-2.6 -0.48,-0.71 0.84,-4.43 -0.7,-3.9 -0.59,-0.6 1,-8 -0.7,-7.2 1.6,-11.5 -6.6,-22.7 -3.3,-35.5 1.7,-6.2 -2.3,-17 -5.3,-18.4 -14.4,-0.4 -1.2,23.6 -6,30.3 -0.21,8.09 -0.56,16 0.6,24.3 -0.7,-0.08 -0.73,0.06 -0.7,-0.7 -1.5,0.4 -0.6,-2.4 -2.1,-2 -0.17,-0.79 0.37,-1.44 -0.7,-1.3 v -3.9 c -1.4,0.89 -0.42,-4.28 -0.7,-4.6 -1.28,0.6 -0.49,-2.13 -0.7,-2.6 -1.63,0.53 0.23,-2.52 -1.4,-2 -3.4,-6.4 3.26,-14.82 -0.1,-19.7 v -2.6 c -1.7,0.4 -0.5,-3 -2.1,-2.6 v -9.2 c 2.4,-0.8 -0.2,-7.8 2.1,-8.6 0.07,-0.46 -0.42,-2.52 0.7,-2 v -2 c 3.78,-4.17 -2.76,-13.48 -0.6,-16.4 v -4.6 c 1.17,0.53 0.55,-1.52 0.7,-2 1.17,0.53 0.55,-1.52 0.7,-2 1.05,0.51 0.45,-1.61 0.6,-2 1.3,0.3 1,-1.7 1.4,-2.6 2.3,0.6 1.6,-2.4 2.1,-3.9 3.06,-1.13 -3.09,-16.17 -4.1,-15.8 v -2 c -1,0.44 -0.6,-0.82 -0.7,-1.3 -1.21,0.56 -0.53,-1.54 -0.7,-2 -7.25,-6.45 6.14,-29.1 -4.7,-31 0.28,-0.8 -0.71,-0.77 -1.3,-0.69 0.4,-1.42 -1.7,0 -1.3,-1.41 -6.32,-0.33 -15,-19.56 -18.3,-7.2 -1.09,-0.23 -0.59,1 -0.7,1.61 -2.1,0.09 -0.6,5.79 -2.7,5.89 v 2 c -1,-0.11 -0.65,0.59 -0.7,1.31 -1.9,-0.31 -0.2,4.19 -2.1,3.89 0,1 0.25,1.31 -0.7,1.31 -0.16,0.69 0.55,3.07 -0.7,2.6 -0.38,0.48 0.93,12.74 -0.7,11.8 -0.12,4.18 -4.89,5.41 -5.3,9.19 -1.63,-0.51 0.23,2.52 -1.4,2 -0.08,0.79 0.48,3 -0.7,2.61 -0.26,0.49 0.75,6.1 -0.7,5.3 -0.12,0.68 0.58,4.45 -0.7,3.9 -0.41,5.54 -1.73,18.57 0.7,23 1.21,-0.46 0.52,1.48 0.7,2 1.05,-0.26 0.6,0.68 0.7,1.3 1.73,-0.62 -0.33,3.21 1.4,2.59 -0.2,0.39 0.7,8.13 -0.7,7.21 -0.12,2.34 0.56,15.35 -1.4,15.1 -0.67,7.57 -1.66,17.52 -5.9,23.8 z m -58,8.9 c 2.31,15.33 -5.19,51.75 15.2,36 0.66,-0.21 1.55,0.41 1.3,-0.7 0.65,-0.21 1.55,0.41 1.3,-0.7 h 2 c -0.4,-1.7 3,-0.5 2.6,-2.1 6,-1 10.36,-6.45 13.2,-10.5 -1,-5.33 5.8,-7.2 6.6,-11.9 1.9,0.3 0.2,-4.2 2.1,-3.9 0.11,-0.51 -0.45,-2.48 0.7,-2 0,-0.58 -0.27,-1.62 0.7,-1.3 v -2 c 1,0.32 0.65,-0.73 0.7,-1.3 1.9,0.3 0.2,-4.2 2.1,-3.9 0,-0.53 -0.26,-1.63 0.7,-1.29 v -2 c 1.7,0.4 0.5,-3 2.1,-2.6 -0.5,-1.9 1.8,-1.5 1.3,-3.3 6.21,-5.13 1.44,-16.09 4.7,-20.3 2.46,-28.12 -1.65,-44.4 -24.3,-15.29 -9.14,17.07 -28.72,26.51 -33,49.08 z m 3.9,151.2 c 0.26,0.43 -0.44,1.72 0.7,1.3 -0.3,1.76 0.9,2.25 0.6,4 1.73,-0.61 -0.33,3.22 1.4,2.6 0.4,0.15 -0.67,3.34 0.6,2.6 0.4,0.24 -0.71,3.37 0.7,2.6 0.39,0.22 -0.71,3.38 0.7,2.6 -0.24,1.66 0.64,3.08 0.5,4.6 1.07,-0.41 0.58,0.81 0.7,1.3 1.07,-0.41 0.58,0.81 0.7,1.3 1.81,1.69 6.57,3.59 6.6,6.3 -10.2,2.1 -20.6,40.5 0,27.6 h 2 c -0.4,-1.7 3,-0.5 2.6,-2.1 3,-0.62 6.2,-3 7.9,-4.59 a 20.72,20.72 0 0 0 16.7,-15.3 c 15.82,21.74 50.32,-12.08 40.7,-30.41 0.9,-0.84 -7.69,-8.1 -3.3,-5.3 17.54,4.82 13.65,-17.19 15.2,-27.6 1.24,0.61 0.52,-2.14 0.7,-2.6 1.24,0.61 0.52,-2.14 0.7,-2.6 2.2,-2.54 0.39,-10.4 2.1,-13.09 2.31,-0.8 2.11,-10.75 4.2,-10.51 -0.33,-1.3 0,-2.44 1.6,-2 14.29,-19.22 6.2,-33.25 -16.6,-18.41 -8.2,7.6 -18.8,3.6 -24.5,15.8 -0.17,0.71 0.37,1.52 -0.7,1.3 v 2 c -0.86,-0.6 -2.37,4.1 -2.1,4.6 -1.21,-0.47 -0.53,1.49 -0.7,2 -1.21,-0.48 -0.53,1.48 -0.7,2 -1.2,-0.48 -0.53,1.48 -0.7,2 -1.28,-0.61 -0.49,2.14 -0.7,2.6 -1.2,-0.48 -0.53,1.48 -0.7,2 -1.28,-0.61 -0.49,2.14 -0.7,2.6 -6.68,13.84 -0.13,-15 2,-17.1 -0.34,-2 2.06,-2.49 2,-4.6 1.43,0.41 0,-1.72 1.4,-1.31 0.51,-5.76 5.21,-13.45 1.2,-19.09 -1.44,0.41 0,-1.72 -1.4,-1.3 -0.85,-2.86 -2.09,-3.9 -3.9,-6.61 -2.37,-0.05 -3.37,-2.73 -5.9,-2.6 0.29,-0.87 -0.71,-0.72 -1.3,-0.69 0.3,-1.11 -1.3,-1 -2,-1.41 -3,-3.23 -8.67,-5 -9.3,-10.4 -1.44,0.43 0,-1.71 -1.4,-1.29 -0.25,-3.33 -4.33,-7.11 -7.2,-7.21 -7.22,-2.7 -19.13,5.63 -23.8,9.1 -9.77,3.22 -4.93,20 -11.9,25 -0.5,0.8 -0.1,2.9 -1.4,2.6 0,0.69 0.39,3 -0.7,2.61 6.54,19.33 -0.15,36.41 -1.41,55.19 1.35,-0.71 0.47,2.91 0.71,3.31 1.24,-0.51 0.5,1.5 0.7,2 1.24,-0.52 0.5,1.51 0.7,2 1.9,-0.21 0.8,4.09 2.7,3.89 -0.32,1.86 1,0.75 0.7,2.6 1.09,-0.36 0.57,0.77 0.7,1.31 1.7,-0.41 0.3,3 1.9,2.79 0.37,0.38 -0.64,2.64 0.7,2.02 z m -27.2,203.8 c 9.12,-14 23.32,-31.36 29.2,-46.19 2.7,-6.81 13.11,-14.24 15.1,-21.6 1.44,0.39 0,-1.71 1.4,-1.3 -0.32,-1.89 1,-0.72 0.7,-2.6 1.3,0.3 1,-1.7 1.4,-2.6 1,-0.7 2.4,-1.1 2,-2.6 2,-1.63 4.09,-3.57 4.6,-5.9 2.7,-3 3.48,-8.69 9.2,-9.2 -0.35,-1 0.76,-0.64 1.3,-0.7 v -0.7 c 1.9,0.5 1.5,-1.8 3.3,-1.3 6.2,-6.52 13.08,-11.42 19.9,-15.9 7.59,-2.74 10.89,-11.78 13.3,-17.7 0.88,0.38 0.72,-0.79 0.7,-1.31 0.88,0.4 0.72,-0.78 0.7,-1.3 0.88,0.4 0.72,-0.78 0.7,-1.3 5.27,-4.09 1.2,-20.09 5.5,-27 -0.17,-0.16 -0.25,-2.75 0.7,-2 0,-2.92 -0.87,-5.32 -5.3,-5.21 v 0.7 c -1.56,-0.48 -3.91,1.41 -4,2 -1.9,-0.2 -2.3,2.2 -4.6,2 0.4,1.7 -3,0.5 -2.6,2.1 h -2 c 0.4,1.7 -3,0.5 -2.6,2.1 -4.33,3 -12.3,-3.4 -16.5,0.1 -1.68,0.35 -4.13,1.87 -5.2,2 -0.2,2.19 -5.7,1.19 -5.9,3.39 -0.66,0.36 -1.55,-0.5 -1.3,0.71 -1.19,-0.05 -2.27,0.27 -3.3,0.3 -3.26,2.71 -8.47,6.14 -13.8,7.5 -6.38,8 -12.77,2.2 -18.5,7.39 a 16.11,16.11 0 0 0 -8.6,8.5 c -1.6,-0.7 -1.1,4.6 -2.7,3.9 0,0.68 0.38,2.38 -0.7,2 v 2 c -0.94,-0.25 -0.68,0.69 -0.7,1.31 -1.36,0.63 -2.65,3.68 -3.3,5.89 -1.82,2.52 -3.74,5.18 -4.6,7.9 -7.54,6.55 -10.58,20 -14.1,28.4 -2.65,2.14 -4.48,8.72 -2.2,11.8 -13.7,10.6 -13.9,11.8 -13.2,30.9 -3.45,6 -10.95,24.09 -2,29.6 9.12,2.86 20.94,15.94 28,3.92 z m 135.3,187.4 c -2.95,-9 -6.78,-1.13 -11.3,-5.19 0.27,-6.35 -1.4,-4.09 -3.3,-7.21 -4,-0.3 -6.2,3.6 -7.2,7.9 5,4.1 0.1,5.8 0,11.9 9.95,19.07 22.13,15.85 21.8,-7.4 z m 44,20.2 c 10.28,-9.37 -1,-10.62 -1.9,-18.39 h 2 c 5.3,13.8 16.8,7.78 23.7,0 6.06,-9 15.48,-19.31 13.8,-32.9 9.56,2.49 12.91,8.94 21.7,1.2 2.57,-0.41 4.61,-3.8 6.6,-5.19 5.68,-1.17 8.35,-6.15 11.8,-10 1.8,-10 14.25,-8.61 20.3,-10.69 9.69,-5.13 26.82,-20.65 2.8,-21.81 8.7,-2.29 20.33,-0.05 27.6,-4.2 4.5,-2.6 13.9,-0.5 17.1,-7.3 1.4,-3.2 -1.3,-5.3 3.3,-5.9 5.5,5 17.8,0.6 16.4,-7.3 4.67,1.83 11.49,7.64 17.1,3.91 9.58,0.72 24.52,-22.06 28.3,-28.2 1,0.37 0.48,-1.52 0.6,-2 1.41,-1 2.53,-6.47 3.3,-7.79 4.06,-1.59 2.85,-8.9 6.6,-9.2 0.4,2 4.2,-0.11 5.3,0 0.5,-0.8 0.3,-2.3 1.4,-2 0,-0.68 -0.35,-2.41 0.7,-2 -0.74,-6.27 -0.33,-14.82 -2.1,-19.1 -1.31,-9.44 -0.62,-31.09 -13.1,-31 0,-1.16 0,-0.52 -0.7,-0.7 v -5.3 c 6.3,-3 -3.1,-16.2 -5,-23 11.13,-3.33 4.57,-43.57 1.8,-49.4 -1.26,0.48 -0.48,-1.5 -0.7,-2 -1.9,0.2 -0.8,-4.1 -2.7,-3.9 v -1.3 c -1.45,0.41 0.05,-1.7 -1.4,-1.3 v -2 c -1.14,0.33 -0.53,-0.73 -0.7,-1.3 -5.73,-9.8 -14.35,-19 -19.3,-29.59 -5.71,-7.79 -16.23,-34 -29.1,-19.11 -0.68,2.79 -2.47,4.82 -2.8,7.2 -1.76,0.69 -2.07,4.55 -4.7,5.91 0.05,0.76 0,0.68 -0.7,0.7 v -3.31 c 3.72,-5.54 2.29,-13.71 10.6,-15.79 7.09,-10.31 -6.17,-16.53 -12.6,-21 -6.48,-3.2 -12,-10.47 -17.7,-15.2 -11.92,-8.8 -27.75,-26.45 -35.1,-3.3 0.81,2.31 -3.1,4.66 -5.2,4.6 -5.2,7.17 -11.35,15.22 -17.2,22.35 -2.26,3.22 -0.11,12.23 0.6,15.81 -4.27,-4.74 -17.13,-5.78 -21.7,-2.1 -2.35,0 -5.5,3.46 -7.8,4 -3.93,3.55 -12.42,2.58 -15.1,7.9 -3.2,-2.41 -1.4,-7.41 -6,-8.61 -10.2,-1.69 -25.18,0.07 -31.6,3.2 -2.83,-0.22 -1.54,1.15 -4.6,0.7 -2.37,1.87 -8.58,8.31 -11.8,3.31 -3.16,-0.29 0.45,-0.94 -3.3,-0.7 -8.35,-2.38 -16,8.43 -22.4,15.09 -14.3,-0.09 -25.8,6.41 -14.5,20.41 -2.7,-0.43 -9,-1 -9.9,0.69 -0.72,0.37 -2.34,-0.63 -2,0.71 -1.22,0.59 -10,2.47 -11.1,4.69 -7.54,2.16 -11.41,11 -18.4,13.21 -5.86,5 -9.53,10.84 -14.5,16.4 -1.81,2.85 -3.3,7.29 -5.4,9.9 0.34,2 -2.06,2.47 -2,4.59 -7.95,8.49 -12.84,16.31 -18.6,26.6 -8.22,7 -10.42,19.39 -3.8,26.9 -11.12,-8.34 -14.66,0.8 -20.5,9.7 -13.29,13 8.07,31.66 17.7,40.5 h 1.3 c 1,2.55 7.77,-0.48 6.7,4 2.22,5.68 7.73,7.77 14.5,8.49 1.47,13.47 18.91,10.15 28.9,9.3 6.91,-6.28 1.24,-8.74 0.6,-14.4 6.9,-6.4 4,5.7 9.2,5.9 0.4,2.3 5.9,0.5 7.2,1.4 -7.25,8.44 -0.14,13.51 6.6,17.71 6.64,6.49 21.34,4.58 26.3,8.29 h 3.9 c 0,0.3 1.5,1.5 1.3,0 0.26,-0.2 4.76,0.64 3.9,-0.69 h 2.6 c -0.4,-1.7 3,-0.5 2.6,-2.1 10.67,-8.61 7,2.57 21.1,-5.3 -4.68,12.71 7.39,11.13 13.2,15.3 2.08,-0.18 0.62,1.1 3.3,0.7 -0.42,1.44 1.72,0 1.3,1.4 5.83,1 12.71,2.49 17.8,-1.4 -1.11,-1.58 13,-0.31 13.2,-0.7 0.6,1.8 1.1,3.6 2.6,4.6 17.4,9.6 15.9,-15.2 23.6,3.3 -19.7,0.5 -9.6,10.1 -17.1,11.2 -1.2,-6.93 -9.21,-5.91 -11.8,-11.9 -0.74,-0.15 -2.35,0.49 -2,-0.7 -6.37,-1.48 -15.32,1.39 -22.4,0.7 -13.43,9.62 -2.57,-9.46 -28.2,-12 -3.86,-2 -13.87,-3.1 -12.5,6.49 -9.76,-3.47 -28.16,-12.53 -21.7,6.71 -11.24,0 -4.66,-15.32 -14.4,-17.9 -5.66,-1 -13.43,-3.1 -17.1,-7.91 -2.47,-1.35 -16.29,-5.17 -19.7,-2 -11,2.28 1.89,11.07 -3.4,12.6 -4.11,6.82 0.54,9.87 1.2,16.4 2.3,5.2 9.5,8.2 9.2,13.8 -2.26,3 2.17,10 4.1,11.9 2.11,5.78 3.57,10.42 8.6,14.61 5.16,8 6.7,4.48 6.6,15.1 20.7,14.81 1.49,6.64 9.2,27 3.94,3.68 6,3 8.6,-0.71 -2.58,-4.55 -9.74,-17.2 1.3,-9.8 4.3,0.6 6.5,2.7 9.9,-0.6 7.3,0.9 7.8,11 17.8,9.2 6.51,-9.29 12.78,-2.34 2.6,4 -2.58,1.87 -0.72,6.84 -0.6,9.19 -7.56,17.32 3.72,17.75 19,14.4 5.7,1 12.9,3.1 16.4,-2.7 -0.3,1.04 0.63,0.79 1.3,0.82 z m 217,-238.4 c 1.28,-0.59 0.49,2.14 0.7,2.61 1.22,-0.46 0.52,1.47 0.7,2 1.7,-0.18 1.25,5.1 3.4,5.29 v 1.3 c 1.1,-0.7 1.7,3.5 2,3.9 2.27,0.4 1.73,5.47 3.4,5.3 0.27,0.6 -0.57,2.43 0.7,2 0.27,0.59 -0.56,2.44 0.7,2 0.16,0.64 -0.37,1.57 0.7,1.3 v 2 c 1,-0.28 0.6,0.72 0.7,1.31 3.42,4.54 2.61,14.34 3.5,19.69 1.33,-0.71 0.46,2.91 0.7,3.31 1.28,-0.62 0.49,2.15 0.7,2.59 2.92,6.61 7.72,20.14 17.8,17 12.49,-15 5.52,-24.93 9.9,-37.5 10,3.94 -3.57,21.6 6.6,26.41 0.7,2.59 6.9,-2.31 10.5,-0.61 0.27,1.29 6.39,2.46 6.6,1.31 h 2 c -0.39,-1 0.79,-0.59 1.3,-0.7 2.7,-1.3 5.6,-7.15 9.2,-7.9 0.7,-0.6 1.6,-1.6 1.3,-2.6 4,-2.29 3.41,-8.78 3.4,-12.5 14,2.2 16.4,-6.1 17.1,-19.1 -5.1,-11.35 13.18,-30.85 -7.3,-32.19 -11.61,-7.1 -12.46,8.8 -12.5,15 v 2 c -1,-0.34 -0.61,0.76 -0.7,1.31 -0.52,0.1 -2.4,2.52 -2,3.89 -3.2,1.3 -1.1,4.6 -5.2,5.3 0.1,-1.3 -0.5,-0.5 -0.7,-2 1.8,0.4 0.4,-3.5 2,-3.3 0.1,-0.6 -0.45,-2.41 0.7,-2 0.1,-0.59 -0.44,-2.42 0.7,-2 -0.86,-3.66 2.65,-5.06 2.4,-9.31 -9.82,-14.6 -0.17,-17.76 -21,-23.89 -0.3,-2.21 -6.3,-0.51 -6.6,-2.71 -1.86,0.33 -0.73,-1 -2.6,-0.7 -8.07,-7.1 -16.87,-3.8 -22.3,1.91 -10,-4 -9.06,-19.67 -23.7,-14.51 -8.42,1.86 -1.05,32.89 -4.8,44.79 z m 4,206.4 c -0.75,-2.9 -0.72,-7.71 -2.7,-8.5 -0.63,-0.41 0.82,-2.55 -0.7,-2 -0.5,-0.49 0.61,-1.68 -0.7,-1.3 v -2 c -1.7,0.4 -0.5,-3 -2.1,-2.6 -0.61,-0.37 0.81,-2.58 -0.7,-2 -2.84,-9.84 -5.41,-23.66 -20.5,-21.81 3.45,-7.05 1.85,-19.93 -8.5,-14.3 -4.07,8 -6.66,16.55 -11.9,25 -2.6,15.4 14.4,17.8 5.2,35.5 -3.93,6 -7.68,15.6 -6.7,24.41 -12.57,-20 7.2,-18.32 5.9,-37.6 -9.17,-10.9 -8.77,-11 -8.6,-26.41 -5.75,-4.6 -10.19,4.06 -11.2,8.51 -9.59,0.89 -1.83,-3.27 0,-7.21 0,-0.47 0,-0.89 -0.7,-0.69 v -2.61 a 27.72,27.72 0 0 0 -7.9,-7.89 c 0.13,-5.82 -2.89,-19.51 6.6,-13.1 -6.27,10.76 4.8,23.27 15,15.8 5.72,-4.61 34.09,-46.43 7.3,-36.9 -4.73,-6.75 -13.39,2.35 -18.3,1.49 -2.75,2.07 -8,2.12 -9.9,6 -12.38,17.12 -6.28,-4.83 -24.4,6.49 -12.33,4.49 -15.06,21.12 -21.7,30.31 0.81,-5.38 -3.82,-10.3 -7.9,-7.91 -0.31,0.47 -3.32,-0.75 -2.6,0.71 -0.43,0.29 -1.71,-0.47 -1.3,0.7 -1.52,0.08 -3.44,-0.1 -4,1.69 -1.5,-0.4 -1.9,1 -2.6,2 -2.65,-0.54 -2,2.77 -3.9,3.31 0.3,2.19 -1.9,1.29 -1.3,4 -0.91,-0.23 -0.7,0.68 -0.7,1.31 -2.76,3.89 -12.39,5.22 -11.4,13.8 -4.69,-0.73 -9.1,-1 -11.8,2.09 -7.12,-1.19 -14.55,1.63 -16.6,6.61 v 2 c -1.1,-0.48 -0.6,1.49 -0.7,2 -0.83,-0.29 -0.76,0.71 -0.7,1.3 -2.5,0.59 -0.4,7.29 -1.4,7.89 -6.59,5.12 -17.22,8.92 -15.8,19.9 -2.4,1.8 -7.9,-1.8 -8.6,0.7 h -2 c 0.61,1.17 -1.58,0.56 -2,0.71 -0.37,1.45 -3.41,1.39 -4,3.29 -8,5.75 -0.36,18.48 0.1,25.61 v 2 c 1.12,-0.4 0.37,0.9 0.6,1.3 1.31,-0.54 0.45,1.54 0.7,2 8.48,11.26 18.49,33.94 34.3,18.89 13.1,-5.6 -0.45,-8.47 19,-6.59 2.8,-2.21 9.2,0.09 11.2,-5.31 5.1,-0.3 10.3,1.4 9.8,-5.3 -3,-4.09 6.33,-6.88 4.6,-14.49 2.9,-0.11 2.9,2.49 4.6,3.29 -3.72,13.18 0.86,19.3 13.8,15.8 1.65,2.45 6.18,1.31 8.5,1.3 -0.29,-1.12 0.71,-0.54 1.3,-0.7 4.48,-3.49 6.44,6 17.7,6.6 5.81,6.21 19,2 24.4,-1.2 3.81,-4 11.84,-10.68 13.8,-15.8 1.28,0.45 2.27,-4.42 2.1,-5.19 2,0.13 0.51,-6 3.4,-1.9 7.35,3.34 13,-4.75 18.3,-7.11 a 35.66,35.66 0 0 1 11.2,-6.7 c -0.43,-1.44 1.72,0 1.3,-1.4 8.92,-3.45 15.77,-9 11.9,-20.49 4.08,-3.49 3.86,-11.7 3.9,-17.3 z m 82.1,9.4 c 0.67,-14.49 -5.35,-21.1 -11.9,-30.19 -2.14,-8.15 -12.87,-25.21 -25.2,-15.6 0.2,-2.87 4.05,-4.25 5.9,-6 6.91,-12.41 -5.14,-12.88 -6.7,-17.79 1.67,-0.5 2,-4.93 2,-6.6 1.46,0.9 0.39,-5 0.7,-5.31 -1.37,0.79 -0.44,-3.53 -0.7,-3.9 -1.28,0.63 -0.49,-2.16 -0.7,-2.6 -1.21,0.53 -0.53,-1.52 -0.7,-2 -1.21,0.54 -0.53,-1.52 -0.7,-2 -1.2,0.54 -0.53,-1.52 -0.7,-2 -3.32,-7.08 -2.9,-9.75 -11.2,-9.89 2.19,-7.08 -0.31,-16.24 -3.3,-22.91 -9.14,-24.74 -21,-9.36 -29.1,5.91 -2.11,7.84 -12,10.3 -12.5,21.09 -5.5,-0.8 -8.7,1.2 -11.2,4.6 0.09,0.71 0.31,2.35 -0.7,2 v 2.59 c -1.44,-0.88 -0.4,4.29 -0.7,4.61 -2.62,3 -0.42,9.48 -0.7,13.09 1.7,-0.4 0.5,3 2.1,2.6 0.52,3 3.67,4.68 3.4,7.9 1.23,-0.48 0.5,1.5 0.7,2 1.23,-0.49 0.51,1.49 0.7,2 0.83,0 2.09,2.5 2.8,3.29 0.53,-0.3 6.67,0.76 5.9,-0.69 6.1,-1 2.8,5 2,8.49 2,5.06 4.75,12.2 5.2,17.1 1.6,-0.7 1.1,4.6 2.7,3.9 v 1.3 c 2.05,1.08 2.7,6.71 6,6.6 1.72,11.89 -8.65,36.86 5.2,46.8 23.41,14.91 30.24,-4.37 37.2,10.9 h 2 c -0.2,2 4.8,0.1 4.6,2.1 0.38,-0.14 2.62,-0.26 2,0.7 a 11,11 0 0 1 6.6,4.6 c 23.88,18.14 13.58,-10.85 17.1,-25 -8.86,-7.32 3.07,-8.87 1.9,-21.69 z m 47,-100.4 c -4.5,-6.7 -9.7,-1.4 -9.2,-10.5 2.66,-7.43 -9.2,-16.89 -17,-13.89 -2.7,2.5 -5.56,5 -9.9,5.9 15.11,-8.25 17.87,-17.44 9.8,-30.41 0.78,-40.16 -17.72,-19.31 -31.7,-1.59 -5.71,1.85 -15.59,-2.24 -19.7,2.8 -3.87,0 -8.59,-0.65 -10.5,3.3 2.9,9.34 9.94,-5.59 14.5,3.3 -0.55,4.58 -13.08,2.28 -15.2,5.3 -12.49,4.93 2.45,19.32 3.9,27.59 2.59,4.44 3.55,10.32 10,4 3.4,-9.1 14.6,-0.8 16.5,-8 1.4,-8 0.2,-14 9.4,-6.6 -0.91,3.28 -6.83,4 -5.9,7.9 -1.62,6 -5.28,4.68 -11.9,5.3 -6.9,2.4 -14.3,15.7 -3.2,18.5 v 2 c -11.56,1.48 -1.22,25 3.6,29.9 9,-0.4 4.28,6.89 12,13.8 -3,9.1 11,26 17.1,13.8 2,-1.14 2.73,-4.84 5.3,-4.7 9.89,-4.1 14.73,-23.24 22.3,-32.39 3.1,-1.71 -1.4,-6.81 -1.3,-9.21 14.2,1.12 14.6,-16.3 11.1,-26.1 z m 138.3,-467 c -22.1,-6.9 -23.9,21.2 -9.8,28.9 1.12,6.38 -1.06,15.84 3.5,20.5 0.65,0 1.55,-0.25 1.3,0.7 0.64,0 1.56,-0.25 1.3,0.7 4.34,-0.13 5.18,5.93 9.2,6.61 8.82,7.92 13.2,-6.75 16,-11.11 -0.29,-2.46 1.1,-4.6 0.7,-7.2 1.5,1 0.37,-6.35 0.7,-6.6 1.45,0.92 0.39,-5 0.7,-5.3 2,-0.2 1,-7.8 0.7,-8.6 -2.63,-2.29 -4.52,-3.62 -7.8,-3.39 -5.2,-3.52 -11.35,-9.99 -16.5,-15.21 z m -76.6,-4.7 c 8,2.76 12.26,-8.82 18.6,-7.7 -2.57,20.43 47.39,11.45 50,-1.4 0,-0.6 -0.38,-2.41 0.7,-2 v -2.6 c 1.9,0.2 0.8,-4.1 2.7,-3.9 5.81,-9.31 7.06,-31.45 3.9,-42.1 -7.16,-5.1 -11.51,5.91 -17.1,7.91 -4.71,6.37 -11.76,-4.7 -18.4,0.6 -5.06,7.72 -20.91,5.8 -17,18.49 4.75,12.39 -7.68,2.63 -11.2,7.9 -8.37,4.93 -13.21,14.05 -12.2,24.8 z m -18,27.7 c 2,0.1 0.1,4.4 2.7,4.6 v 1.3 c 2.41,1.5 3.25,6.7 6,8.61 -0.61,2.09 2.59,1.78 2,3.89 1.21,1.31 3.14,2.72 3.3,4.6 2.82,1.15 2.07,4.68 4.7,6 0.35,0.62 -0.63,2.4 0.7,2 0.35,0.62 -0.62,2.42 0.7,2 0.44,0.51 -0.78,3.94 0.7,3.3 0.51,6.91 8.66,11.76 8,17.81 2.16,4 5.26,11.5 9,15.79 0.16,0.5 -0.36,1.67 0.7,1.3 0.15,0.49 -0.36,1.68 0.7,1.3 -0.32,1.87 1,0.74 0.7,2.6 2.64,8.86 16.72,13.67 21.5,21.8 2.47,2.09 4.87,4.63 5.3,7.2 1.63,-0.53 -0.23,2.54 1.4,2 v 4.6 c 2,-0.2 0.1,4.8 2.1,4.6 0,0.29 -0.26,1.82 0.7,1.3 0.4,4.56 5.56,7.57 8.6,11.1 10.67,5.23 20.36,14.15 29.6,24.3 13,10.42 8.31,-12 9.3,-21.8 7.09,-8.83 37.09,-25.84 29,-34.79 -5.22,-6.92 -1.84,-23.1 -13.2,-25 -12.68,-9.76 -18.28,-30.27 -36.8,-31.7 -4.84,-5.64 -9.92,-9.67 -17.7,-2.7 -1.1,2.89 -7.9,-1.21 -9.2,-1.31 -5,-1.15 -13.11,5.12 -16.5,1.91 -6.81,-12.34 -28.31,0 -21.7,-9.8 5.4,1.52 15.46,-6.84 18.4,0.09 4.33,6.1 9,8.08 13.8,3.8 4.88,-2.26 14.83,1.92 15.8,-4.59 3.4,-2.41 -1.2,-11.61 2,-14.51 1.2,-7.7 -4.8,-9.2 -8.7,-13.1 -0.89,-3.48 -2.4,-11 -7.3,-12.5 -2.3,-2.8 -8.3,3 -9.9,0 a 72.51,72.51 0 0 0 -18.4,-3.39 c -5.47,-4.25 -17.08,-2.64 -21.6,2.2 -5.76,1.75 -14.72,5.77 -16.4,15.19 z m -29.8,5.4 c -26,19.75 -3.84,-4.76 -38.1,-8 0.6,-1.28 -2.28,-0.46 -2.6,-0.69 0.45,-1.17 -1.61,-0.54 -2,-0.7 0.57,-1.46 -2.45,-0.21 -2.74,-0.87 -3.15,-3.24 -9.69,1.7 -12.33,1.36 -9.34,-1.72 -21,-1.16 -29,-2.49 -0.15,0 -2.07,0 -2,0 0.27,1.21 -0.83,0.48 -1.3,0.7 0.32,1.39 -1,0.24 -1.28,0.81 0.19,0.86 -1.79,1.38 -2.22,1.08 -6.77,-6.58 -22.77,-13.55 -26.43,0.09 -4.34,-0.18 -8.25,-4.12 -12.2,-2.45 -8.25,2.75 -16.46,9.6 -24,0.62 -14.93,0.21 -14.26,19.85 -9.92,27 6.07,7.59 8.24,23 -0.59,31.16 -5.41,10.48 2.25,27.28 11.38,29 1.36,-1 0.56,6.69 0.57,6.6 -1.77,0 -0.08,4.89 -2,4.61 0,0.15 0,2.07 0,2 -1.63,0.65 -2.88,5.92 -3.61,8.5 -1.46,0 -0.61,3.15 -1.4,3.88 -1.5,-0.18 -0.48,3.06 -2,2.63 0,0.12 0,1.37 0,1.29 -1,-0.38 -0.6,0.92 -0.7,1.31 -1.49,-0.34 0.1,1.71 -1.39,1.3 0.07,0.72 0.12,1.59 -0.7,1.3 0.08,0.73 0.09,1.59 -0.7,1.3 a 62.28,62.28 0 0 0 -1.45,11.37 c -6.55,10.26 3.92,21.91 5.33,29.53 -9.43,1.78 -15.13,8.81 -19.79,15 -1.12,-0.56 -0.47,1.26 -0.77,1.26 -1.15,-0.52 -1.49,3.83 -2,3.93 -1.6,-0.05 -0.27,3.74 -2,3.32 0,0.12 0,1.47 0,1.39 -1,-0.48 -0.62,1 -0.7,1.3 -0.29,0 -0.89,-0.12 -0.69,0.33 -6.53,14.65 -0.08,17.32 8,28.17 4.85,7.71 12.3,28 23.06,25.6 2.15,-0.31 -0.77,7.35 0.69,6.6 0.56,0.59 -0.89,4.54 0.7,3.9 0.31,0.74 -0.48,1.5 0.7,1.3 0.42,0.67 -0.67,2.38 0.7,2 v 1.3 c 1.9,-0.3 0.2,4.2 2.1,3.9 0.46,0.5 -0.71,3.09 0.6,2.6 0.4,0.63 -0.66,2.41 0.7,2 0.45,0.57 -0.75,3.13 0.7,2.6 0.16,0.69 -0.22,1 0.7,0.9 0.28,0.66 -0.46,1.56 0.7,1.3 2.18,8.33 12.52,10.68 18.3,13.31 -0.46,1.18 1.48,0.53 2,0.69 -0.26,1 0.69,0.63 1.3,0.7 -0.47,1.19 1.48,0.54 2,0.7 -0.47,1.19 1.48,0.54 2,0.7 -0.47,1.19 1.48,0.54 2,0.7 -0.47,1.06 1.59,0.45 2,0.6 -0.62,1.28 2.25,0.5 2.7,0.7 -0.6,1.27 2.14,0.5 2.6,0.7 -0.87,1.69 3.36,0.62 3.9,0.91 3.9,3.69 10.2,-2.11 14.5,-1.91 -0.6,8.5 7.09,12.13 11.8,13.31 -0.3,1.89 4.2,0.19 3.9,2.09 h 1.3 c -0.52,1.17 1.52,0.56 2,0.7 -0.36,1 0.77,0.66 1.3,0.7 -0.53,1.63 2.53,-0.22 2,1.4 h 2.9 c -0.63,1.26 2.16,0.51 2.6,0.71 -0.72,1.33 2.9,0.46 3.3,0.7 0.6,2.39 7.3,-0.21 7.9,2.09 15.27,1.3 12.6,12.95 30.3,-2.7 14.17,-2.46 4.76,-11 28,-17.7 -5.87,3.12 -10.54,9.3 -16.4,12.91 -11,9.83 -22.93,11.54 -9.8,27 -3.6,9.4 -6.8,-4 -11.3,8.5 v 17.1 c -0.3,2.3 -5.3,11.1 -1.9,13.8 0.57,0.34 -0.78,2.62 0.7,2 0.56,0.33 -0.78,2.63 0.7,2 0.62,0.26 -0.87,3.36 0.7,2.6 -1,10.29 1.41,11.8 6,19.8 -7,10 7.28,32 13.6,40.9 0.72,9.32 15.54,15.24 22.4,8.4 9.93,-5 16.5,-20.67 27.1,-25.8 2.91,-3.49 5,-7.26 7.4,-10.5 0.18,-0.86 -0.5,-2.22 0.7,-2 v -2 c 1.44,0.39 0,-1.69 1.4,-1.3 1.28,-4.42 4.6,-10.36 3.5,-15.7 14.85,3.6 21.24,-16.24 27,-23 4.62,-11.18 22.85,-12.43 25.1,-26.91 6.82,0 20.62,-22.63 17.3,-29 v -3.3 c 0.85,0.38 0.74,-0.77 0.7,-1.3 0.85,0.38 0.74,-0.77 0.7,-1.3 0.85,0.38 0.74,-0.77 0.7,-1.3 1.1,0.3 1,-1.29 1.4,-2 1,-0.5 1.5,-0.8 1.3,-2 1.22,-0.48 1,-2.79 2,-2.61 -0.33,-1.83 1,-0.76 0.7,-2.6 2.26,-0.93 2,-6.93 4.1,-7.19 2.66,-9.49 5.23,-21 -8.5,-15.8 -0.8,2.39 -7.8,-0.21 -8.6,2.09 -6.76,0 -13.7,3.66 -20.4,1.3 1.16,-1.6 -8.45,-0.29 -8.6,-0.7 0,-1.9 -3.8,-0.3 -4,-2.7 -0.49,0 -5.11,-2.15 -4.6,-2.69 -9.07,-1.6 -16.6,2.83 -22.4,3.5 0.61,1.29 -2.15,0.47 -2.6,0.7 0.61,1.29 -2.15,0.47 -2.6,0.7 0.61,1.29 -2.15,0.47 -2.6,0.7 0.61,1.29 -2.15,0.47 -2.6,0.7 0.86,1.38 -4.27,0.43 -4.6,0.7 0.62,1.73 -3.22,-0.34 -2.6,1.39 h -2 c 0.4,1.7 -3,0.5 -2.6,2.1 -2.2,-0.7 -2.2,2.7 -4,2.6 -1.67,8.5 -16.54,5.69 -22,10 0.85,-1.65 4.31,-1.31 5.5,-4.19 4.93,-1.94 8.47,-9.86 14.4,-9.3 -0.71,-1.34 2.9,-0.46 3.3,-0.71 -0.8,-1.35 3.55,-0.45 3.9,-0.7 -0.59,-1.31 2.13,-0.46 2.6,-0.7 -0.45,-1.28 1.47,-0.47 2,-0.7 -0.45,-1.28 1.47,-0.47 2,-0.7 1.81,-2.34 6.65,-4.36 7.9,-6.6 2.14,0.4 10.3,-0.38 11.2,-0.7 -0.4,-1.45 1.7,0.06 1.3,-1.4 h 2 c -0.48,-1.27 1.49,-0.47 2,-0.7 -0.4,-1.45 1.7,0.06 1.3,-1.4 4,0.35 5.68,-6 10.6,-3.19 1.15,5.21 9.44,7.33 11.8,9.29 5.12,1.26 14.32,1 19,-1.3 6,-0.24 10.14,-0.77 14.5,-2.8 3.78,-4.84 14.65,-3.44 17.2,-10.6 0,-0.58 -0.33,-2.38 0.6,-2 0,-0.66 -0.34,-2.4 0.7,-2 a 5.47,5.47 0 0 1 2.6,-4.7 c 0.5,-0.8 0.1,-2.9 1.4,-2.6 0.5,-0.7 0.1,-2.8 1.3,-2.6 0.6,-1.1 -0.1,-4 1.4,-3.9 -0.06,-0.62 -0.33,-2.44 0.7,-2 -0.24,-0.81 -0.07,-1.45 0.7,-1.31 2.1,-13.59 7.66,-40 -0.6,-55.2 -10.65,-13.44 -29.73,-40.17 -49.6,-31.3 -3.49,7.26 -8.91,1.25 -13.1,1.2 -4,-3.51 -17.11,4.53 -19.8,4 -1.4,2.9 -7.7,-0.6 -9.2,-0.6 1.2,-2.8 6.8,-0.2 7.9,-2.7 8.07,0.16 14.14,-11.16 22.6,-4.79 15.67,2.15 11.79,-10.57 8.6,-18.41 -3.26,-5.89 -4.12,-14.61 -9.4,-19 -4.27,-1.42 -7.28,-6.77 -11.8,-7.3 -3.4,-4.11 -7.4,3 -10.5,3.19 1.57,-9.64 1.91,-12.11 -1.4,-19.09 -9.88,-8.62 -8.48,-2 -9.9,-15.11 -0.06,-0.11 0.41,-2.8 -0.7,-2 -0.06,-0.12 0.41,-2.81 -0.7,-2 -0.06,-0.11 0.41,-2.82 -0.7,-2 0.3,-2.42 -1.36,-3.73 -1.4,-6.51 -2.76,-5.17 -5.11,-6.05 -10.7,-8.49 0.3,-2.71 2.7,-11.41 -0.7,-13.21 -2.65,-12.33 -15.08,-34.71 -31.92,-23 z m -52,-27 c -0.3,3.36 -1,6.68 1.41,9.6 3.48,0.44 6.68,1.8 9.69,2 -0.29,1.61 1.66,-0.24 1.31,1.39 0.8,0.14 2.4,-0.42 2,0.7 0.15,0 2.07,0 2,0 -0.14,1.77 8.36,1.58 8.61,3.39 0.76,0.13 2.43,-0.41 2,0.7 0.43,0 2.82,-0.09 2.84,0.16 21.89,17.66 34,-4.18 3,-11.85 -8.69,-1.57 -23.89,-20.06 -32.86,-6.09 z m -126.3,-37.6 c 4.31,8.11 13.34,13.06 14.5,20.51 2,1.19 2.94,9.79 3.5,11.19 1.51,0 1.63,6.53 3.5,6.5 1,3 3.84,6.13 5.3,8.51 0.4,5.39 9.63,7.08 13.2,3.39 0.59,-0.26 1.6,0.45 1.3,-0.7 0.52,-0.36 2.48,0.64 2,-0.7 0.51,-0.36 2.49,0.64 2,-0.7 0.57,-0.25 1.61,0.44 1.3,-0.7 2.52,-0.47 6.6,-3 6.6,-6.69 1.68,0.42 -0.38,-2.7 1.7,-2 0.6,-7.71 5.9,2.49 11.8,1.29 8.36,-8.87 12.92,8.17 20.4,4.61 3.18,-0.22 10.42,-0.1 11.8,2.69 5.7,1.89 19.79,0.1 19.8,-8.5 1.84,-3.69 7.45,-6.56 7.3,-13.79 -4.25,-12.87 -21.62,-12.41 -31,-19.8 -2.86,-7.17 -12,-11.3 -16.4,-16.5 -6,-3.77 -10.4,-12.56 -16.4,-14.6 -8.24,0.52 -16.69,-6.76 -25.7,-6.61 -13.94,6.62 -2.48,11.38 0.7,19.8 -3.4,-1 -5.14,-4 -7.9,-4 0.53,-1.63 -2.53,0.22 -2,-1.41 -1.88,0 -5.53,-2.82 -5.2,-5.39 -3,-2.32 4.46,-9.81 4.6,-15.1 -6.16,-11.09 -11,-22 -19.9,-6 0,0.76 0.35,2.3 -0.7,2 0,0.75 0.35,2.31 -0.7,2 0.27,4.21 -1.09,10.11 -0.7,14.49 0.2,-0.4 1.5,1.6 0,1.3 0.36,2.65 -0.47,8.72 -0.7,10.5 -1.19,-0.49 -0.54,1.5 -0.7,2 -1.9,0.83 -4.71,8.38 -3.3,12.41 z m -2.8,10.2 c -11.69,-8.17 -25.58,14.35 -34.9,14.5 0.56,0.8 -4,2.41 -4.6,2.1 -0.6,2.4 -7.3,-0.2 -7.9,2.1 -9.52,-0.85 -14.69,6.06 -21.7,11.91 -2,11.44 -13.48,30 -0.6,38.29 -20.78,-2.05 -25.73,21.43 -32.5,34.3 -2.48,13.76 -10.34,33.41 -2.61,46.6 0.39,0.45 -0.51,1.71 0.71,1.3 v 2 c 1.07,-0.32 0.56,0.57 0.7,1.1 4.93,7.38 15.64,14.75 15.8,26.4 1.7,-0.4 0.5,3 2.1,2.6 -0.4,1.5 1,1.9 2,2.6 a 2.25,2.25 0 0 0 2.6,2.6 c 3.24,4.14 7.79,4.8 12.5,4.71 4.09,2.24 6.49,6.85 11.2,10.6 2.46,5.2 8.64,7.92 13.1,10.6 3.93,4.57 7.64,9.39 13.2,11.2 3.34,3.28 6.87,6.8 12.6,5.89 8.39,-12.82 23.33,-21.72 22.4,-38.79 0.6,-2.81 -1.6,-1.91 -1.3,-4 -8.8,-4.1 3,-7.5 3.2,-14.5 -0.36,-7.71 2.16,-11.58 5.1,-17.19 1.9,0.19 0.8,-4.11 2.7,-3.91 -0.09,-0.66 -0.3,-2.37 0.7,-2 5.49,-20 2.66,-10.86 -4.6,-26.39 -1.23,0.48 -0.51,-1.5 -0.7,-2 -1.23,0.5 -0.51,-1.49 -0.7,-2 -1.23,0.5 -0.51,-1.49 -0.7,-2 -1.23,0.5 -0.51,-1.5 -0.7,-2 -1.7,0.4 -0.5,-3 -2.1,-2.6 -0.37,-0.46 0.64,-2.51 -0.7,-2 -0.46,-0.35 0.79,-4.06 -0.7,-3.3 3.26,-14.94 13.76,-19.69 4.4,-36.1 -1.3,0.19 -1,-1.71 -1.4,-2.61 -1,-0.5 -1.5,-0.8 -1.3,-2 -1.45,0.42 0,-1.71 -1.4,-1.3 0.58,-3.05 -2.72,-4.77 -4,-7.29 -8.7,-2.11 -5.6,13.19 -17,16.49 0.7,-1.6 0.9,-5.1 2.7,-5.3 v -2 c 1.16,0.55 0.56,-1.53 0.7,-2 1.57,-0.06 1.6,-6.51 3.5,-6.5 1.79,-6.61 10.83,-6.65 14.4,-11.89 5.59,-6.06 15.41,-18 8.4,-27.71 -1.16,-7 -4.76,-16.7 -12.6,-20.5 z m -441.6,658.7 c 0.3,4 4,3.4 7.9,3.9 0.9,-6.1 -2.9,-7.5 -7.9,-3.9 z m -4.5,-82.3 c -0.1,-0.63 0.09,-0.78 0.7,-0.7 v -2 c 2.9,-1.66 -2,-6 -3.3,-3.3 -8.97,-1.18 -2.5,5.39 2.6,6 z m 242.2,68.4 c -0.6,-5.5 -5.9,-1.5 -4.7,2.7 2.2,-0.5 3,-2.2 4.7,-2.7 z m 157.3,-556.2 c -4.35,-1.62 -5.35,12 -2.7,13.21 2.68,-6.81 10.44,-7.7 2.7,-13.21 z M 75.4,525.48 c 1.45,0.11 1.83,1.29 2.7,1.41 6.66,-4.48 -2.86,-5.76 -2.7,-1.41 z m -49.3,-54.6 c -0.4,-6.7 -5.2,-2.3 -5.9,2 3.1,0.12 3.5,-1.4 5.9,-2 z m 108.6,169.8 c 0.4,-4.56 -5.46,-3.41 -3.3,-1.29 -0.82,2.12 2.33,1.04 3.3,1.29 z m -25,-44.7 c 0.4,-2 0.9,-3.9 1.3,-5.9 -9.4,0.8 -6.7,9.6 -1.3,5.92 z m -17.1,-78.3 c -6.63,-15.83 -15.68,12 -0.7,1.3 0.7,-0.7 0.3,0.02 0.7,-1.3 z M 30.7,413.58 c -0.17,0.62 0.47,2.47 -0.7,2 0,0.15 0,2.07 0,2 -1.38,-0.5 -0.26,1.9 -0.85,2.15 -2.21,3.52 -4.35,15.44 2.33,10.92 9.57,-4.59 -1.72,-30.92 6.33,-40.07 -17.22,2 -1.4,12 -7.1,23 z m 94.1,44 c -5.7,-1.4 -4.2,-13.7 -7.9,-15.7 -5,16.57 10.88,12.82 0.6,31.51 1.9,6.29 3.5,-7.31 13.9,-4 -0.2,-5.61 -3.7,-8.91 -6.6,-11.81 z M 76.1,44.38 c 1.37,0.8 0.44,-3.53 0.7,-3.9 -1.38,-0.79 -0.44,3.52 -0.7,3.9 z m 115.8,138.2 c 0.3,3.4 1.5,4.4 5.3,4.6 -0.1,-4.3 -2.1,-6.3 -5.3,-4.6 z m 86.2,712.2 c -1,-0.7 -2.3,-1.2 -1.9,-2.6 -5.8,-11.85 -1.57,3.72 -3.6,8.7 5.55,0.42 9.96,0.36 5.5,-6.1 z M 451.9,4.28 c -0.43,5 4.12,9.64 0.7,13 -1,4.19 2.2,11.59 7.2,9.19 -1.7,-5.1 -3.1,-8.3 0.6,-11.8 4.29,-0.34 6.23,1.39 8,2.7 9.47,-0.69 9.74,-10.31 7.2,-16.5 -3.24,0.76 -23.49,-2.35 -23.7,3.41 z m -362,369.8 c -2.74,7.14 2.93,12.17 8.6,14.4 9.4,8.3 -5.85,-13 -8.6,-14.4 z M 70.3,0.88 c -2.31,0.34 -5.72,-1.32 -4.8,2.6 -1.91,4.52 -0.82,13.78 -1.4,19.1 1.2,0.51 2.57,0.78 2.8,2.1 0.52,0.15 2.48,-0.47 2,0.7 3.23,-0.16 5.91,5.54 6.6,8.4 4,-10.16 -11.63,-20.2 -5.2,-32.9 z m -21.2,375.9 c -2.15,0.64 -4.42,3.15 -4.6,5.2 1.7,-1.6 5.2,-2.4 4.6,-5.2 z m 29,412.7 c -2.1,5.7 1.2,7 5.2,4.6 a 6.22,6.22 0 0 0 -5.2,-4.6 z M 81.3,829 h 3.9 c 0.06,-1.22 -4.87,-2.17 -3.9,0 z m 3.4,70.9 c 1.94,-1.14 2,-4 4,-5.9 0.09,-2.72 10.94,-9.18 13.2,-9.2 5.3,-3.8 -4.9,-5.9 -1.5,-13 -10.46,-1.7 -1.31,7.83 -7.3,13.1 -9.8,2.3 -7.6,10.1 -14.2,16 0.7,-0.32 6.3,0.78 5.8,-1.02 z M 41.9,869.1 h -2.6 c -2.3,11.43 10.7,6.07 2.6,-0.02 z M 79.4,500.5 c 5.22,2.77 1.65,-9.29 0.1,-10.5 -1.82,4 -2.5,6.68 -0.1,10.48 z M 47.8,890.88 c -6.25,-1.91 -4.56,8.54 -1.9,6 0.52,-0.17 2.48,0.49 2,-0.7 h 2 c 3.54,-1.95 10,2.77 8.6,-5.9 -3.93,1.37 -7.09,4.5 -10.7,0.6 z M 63.6,885 c -0.3,-3.9 -2.1,-5 -5.3,-5.3 0.31,4.87 -0.11,10.55 5.3,5.3 z M 1,348.48 a 29.31,29.31 0 0 0 -0.5,-2.9 v 15.3 c 0.7,-3.2 3.9,-11.4 0.5,-12.4 z M 24.1,567 c 1.8,-1.7 -3.1,-5.9 -5.2,-6.6 -1.9,7.6 -2.66,13.1 5.2,6.6 z m 70.4,215.9 c 1.06,-2.73 -4.25,8.59 -7.3,9.8 -0.2,2.8 3.7,1.9 5.3,2 3.65,-2.44 0.56,-8.5 2,-11.82 z M 3.1,404.38 c 2.3,-2.7 6.5,-4.8 7.9,-7.9 -3.3,0.4 -8,2.7 -10.5,0 0.34,0.15 -0.77,14.15 0.6,13.11 -0.21,-2 2.05,-2.82 2,-5.21 z m 0,47.4 A 15.88,15.88 0 0 0 0.5,447 c 0.42,2.25 -1.43,7 2.6,4.78 z m 5.8,132.3 c 7.42,-12.73 -1.29,-2.12 -8.4,-3 -1.41,7.46 3.77,1.75 8.4,3 z m 1396.2,311 c 5.29,-5.21 10.1,-10.73 13.2,-17 6.2,-7.51 19.4,-7 21.7,-18.51 -6.65,-11.63 -5.67,0.65 -9.9,5.61 -1.5,-0.41 -1.9,1 -2.6,2 -0.9,0.4 -2.8,0.1 -2.6,1.4 -0.6,0.1 -1.59,-0.32 -1.3,0.7 h -2 c 0.61,1.27 -2.15,0.49 -2.6,0.7 0.53,1.62 -2.53,-0.23 -2,1.4 -5.52,2 -6.77,9 -9.3,13.79 -2.39,4 -20.83,16.83 -6.9,15.71 1.9,-1.4 2.7,-3.7 4.3,-5.8 z M 1049.2,0.88 h -12.7 c -0.1,1.06 1.06,0.09 0.7,2 1,-0.28 0.64,0.7 0.7,1.3 1,0.39 2.25,2.76 2.7,4.59 2.32,0.54 1.38,4.05 3.4,4.61 0.3,3.31 3.39,8.78 0.1,12.49 -2.32,3.3 -8.76,3 -12.5,3.31 -15.37,12.24 -11.37,-4.11 -27,-3.21 -0.3,-2.2 -6.3,-0.5 -6.6,-2.7 -0.33,0.75 -2.14,0.83 -3.3,0.7 -1.16,1.76 -4.32,2.05 -5.9,4 -4,7.9 10.62,1.35 13.4,5.2 6.48,-1.37 16.68,13 23.8,9.3 10.6,-11.43 25.18,-3 34.2,-10.6 1.92,-4.77 -1,-10.45 -2.6,-13.8 -1.6,0.39 -0.4,-3 -2.1,-2.61 -0.17,-0.55 0.37,-1.62 -0.7,-1.29 -0.27,-0.48 0.56,-2.52 -0.7,-2 -0.18,-0.53 0.41,-1.77 -0.7,-1.4 v -2 c -1.72,0.11 -1.94,-6 -3.5,-5.9 -0.24,-0.41 0.54,-2.54 -0.7,-1.99 z m -437.3,491.7 v 1.3 c 1.1,0.12 0.55,-0.82 0,-1.3 z M 1654.8,18.78 c -1.86,-0.75 0.46,4.66 -1.4,3.9 -0.2,0.52 0.57,3.17 -0.7,2.6 v 2.6 c -1.33,-0.71 -0.46,2.91 -0.7,3.31 -1.18,-0.49 -0.54,1.49 -0.7,2 -1.44,-0.41 0,1.7 -1.4,1.29 -4.28,6.42 -13.3,10.35 -15.8,20.41 7.86,-2.82 19.6,-24.5 22.4,-4 -1.12,6.88 0.06,17.86 -0.7,26.89 19.29,27.08 8.52,-13.85 8.4,-22.89 0.09,-5.46 -5.42,-19.3 -2.6,-25 1.08,-4.65 2.68,-18.6 0.7,-23.7 -1.5,0.1 -0.8,-2.8 -1.4,-3.9 -1,0.2 -0.8,-0.7 -1,-1.4 -16.9,-2.35 -1.02,7.22 -5.1,17.89 z m 131.4,134.3 c -0.34,15.38 -5.53,15.63 -9.4,28.3 2.8,3.29 2.15,4.34 8,3.9 0.9,-2 2.24,-3.77 2,-5.89 1.9,0.29 0.2,-4.21 2.1,-3.91 3,-4.91 9.73,-23.33 -2.7,-22.4 z M 846.3,8.18 c -0.6,-2.58 1.92,-2.79 2,-5.29 6.81,-3.72 -13,-1.4 -13.1,-2 -1.38,6.82 3.79,12 2.7,19.7 -7.6,11.44 -2.82,4.83 2.4,8.6 3.4,1.49 3,5.9 4,7.9 21.22,-10.49 -3.62,-13.92 2,-28.91 z m 926.7,83.6 v 0 c 7.26,-7.27 -2.89,-11 -0.7,0.71 0.62,0.08 0.79,-0.08 0.7,-0.71 z M 868,1.58 c -1.4,6.2 11.2,2.6 8.5,-0.7 -0.9,0.12 -8,-0.4 -8.5,0.7 z m -581.3,441.7 c 1.21,-2.38 1.35,-7.95 -0.7,-8.6 -2.2,4.1 -9.7,10.2 0.7,8.6 z m 280.5,263.3 c 1.13,-6.22 -4,-9.94 -5.3,-2.59 0.5,0.19 4.1,2.49 5.3,2.59 z M 488.1,702 c 0.48,-2 1.15,-2.73 -1.3,-3.3 -1.3,1.38 -0.6,2.98 1.3,3.3 z M 323.5,414.28 c 9.33,8 0.77,-6.19 -7.2,-5.89 1.7,2.89 4.4,3.99 7.2,5.89 z m -21,-8.6 c 17.23,2.23 -2.84,-8 0.7,-19.8 -2.4,-0.8 -0.9,2.8 -2.7,2.6 0.35,0.29 -0.81,8.21 0.7,7.2 0.63,3.24 -2.54,7.75 1.3,10 z M 741,0.88 c -4.36,16.57 -15.55,-3.3 -18,13.8 1.7,-1 5.4,-0.8 5.9,-2.7 0.54,-0.06 3.15,0.48 2.6,-0.69 5.3,-0.11 13.8,11.59 12,15.09 0,2.55 -1.11,7.58 -0.7,10.7 -1.38,-0.79 -0.44,3.54 -0.7,3.91 1.27,-0.62 0.5,2.15 0.7,2.6 1.9,-0.31 0.2,4.19 2.1,3.89 v 1.3 c 1.19,-0.5 0.54,1.51 0.7,2 2.2,0.39 0.3,5.39 2,6.59 1.09,3.4 9.1,8.24 11.8,8 0,-4.7 -6.47,-6.08 -7.2,-10.51 -1.6,0.4 -0.4,-3 -2.1,-2.6 -0.18,-0.47 0.48,-2.42 -0.6,-2 -0.37,-0.28 0.83,-8.91 -0.7,-7.9 -0.48,-6.82 -3.61,-9.61 2,-16.4 0.1,-11.3 -10.1,-7 -2.9,-25.1 z M 1785,900 c 5.67,-4.13 -2.37,-13.62 -1.6,-17.69 -3.52,-7.59 4.24,-17.86 1.9,-25.71 -1.41,0.88 -0.42,-4.28 -0.7,-4.6 -1.41,0.88 -0.42,-4.28 -0.7,-4.6 -1.44,0.94 -0.4,-5 -0.7,-5.3 -1.9,-1.2 -0.6,-6.1 -1.4,-8.6 -1.09,-0.57 -3.55,-8.25 -4.1,-9.09 -1,0.3 -0.63,-0.73 -0.7,-1.31 -1,0.31 -0.63,-0.72 -0.7,-1.3 -1.6,0.41 -0.4,-3 -2.1,-2.59 v -2 c -1,0.32 -0.63,-0.74 -0.7,-1.31 -1.73,0.62 0.33,-3.21 -1.4,-2.6 -0.29,-2.21 -1,-11.42 -0.7,-14.6 1.27,0.63 0.5,-2.15 0.7,-2.6 1.19,0.52 0.54,-1.51 0.7,-2 1.27,0.63 0.5,-2.15 0.7,-2.6 1.48,1.59 2.38,-19.58 0.7,-19.7 0.44,-5.1 -4.78,-16.3 -11.5,-15.2 2.25,12.87 3.81,24.34 2.7,36.9 -1.66,4 -6.13,22.12 -0.1,27 1.81,3.12 4.55,8 6.7,11.11 0.17,0.45 -0.5,2.52 0.7,2 0.21,0.4 -0.58,3.26 0.7,2.6 -1.09,5.66 4.43,20 1.3,24.3 -0.79,4.53 -5.14,12 -1.5,17.81 2,6.96 -0.1,26.68 11.8,21.68 z M 1069.4,245.1 c 0.49,-5.49 -4.06,-2.47 -4,2 2.5,-0.1 3.1,-0.52 4,-2.02 z m -6,-206.7 c 0.92,2.49 4.26,3.08 2.6,0 z m 96.8,293.6 c 0.1,3 4.6,2.7 4.6,0 a 9,9 0 0 0 -4.6,0 z m 58.6,336.4 c 0.87,-4.14 3.87,-1.92 3.3,-8.5 -0.79,-0.67 -4.35,3.74 -4,4.6 -3.19,2 -3.5,7 -4.1,9.3 -1.18,-0.49 -0.54,1.5 -0.7,2 -1.18,-0.5 -0.54,1.49 -0.7,2 -2.66,5.66 -3.42,24 8.5,13.79 -0.9,-3.4 -2.6,-2 -3.9,-3.9 -2.2,-3.59 -2.65,-17.64 1.6,-19.31 z m -123,-389.7 c -11.8,0.2 -3.1,7 1.3,1.3 -0.9,-0.52 -0.8,-0.52 -1.3,-1.32 z m 11.8,-223.1 c 16.52,-7.22 -19.7,-18.14 -12.5,2.61 4.12,-0.56 4.03,-8.61 12.5,-2.63 z m 514.9,834.7 c -3.56,-9.68 2.27,-25.32 -1.4,-34.2 0.33,-2.9 -0.45,-8.52 -0.7,-10.5 -1,0.2 -0.62,-0.64 -0.7,-1.3 -1.19,0.44 -0.54,-1.45 -0.7,-2 -1.6,0.4 -0.4,-3 -2.1,-2.6 0.2,-2.4 -2.3,-2.7 -2,-4.8 -4,-3.13 -6.11,-6.19 -6.6,-10.59 -4.71,-4.13 2.3,-19.44 2.7,-23.71 8.75,-31.27 -11.88,-52.13 17.3,-76.39 -3.26,-2.69 -8.91,-0.35 -10.6,1.59 -3.5,0.64 -6.4,3.34 -9.2,6 -8.08,11.49 -1.43,30.13 -2,45.4 6.93,15.17 -8,27.89 -5.4,44.1 -0.24,11.29 13.86,16.54 14,24.4 3.07,3 -1.17,16.37 2.1,19.09 -0.41,8.42 3.75,17.76 -0.1,24.9 -3.83,10.89 7.24,17.03 5.4,0.59 z M 1383,900 c -0.13,-3.05 0.58,-16 -1.4,-16.5 -0.18,-0.7 0.5,-2.38 -0.7,-2 v -2 c -1.6,0.4 -0.4,-3 -2.1,-2.6 -0.22,-0.87 0.53,-2.22 -0.7,-2 -0.12,-0.9 0.34,-1.37 -0.7,-1.3 -0.79,-3.59 -3.12,-8.7 -6.8,-11.8 0.6,-2.5 -1.7,-1.8 -1.3,-3.9 -6.38,-4.09 -4.87,-16.25 -10,-21.6 0.34,-2 -1,-0.82 -0.7,-2.7 -1,0.25 -0.64,-0.68 -0.7,-1.3 -1.18,0.47 -0.55,-1.47 -0.7,-2 -1,0.26 -0.65,-0.68 -0.7,-1.3 -3.91,-5.54 -4.16,-14.46 -10.8,-19.1 0,-2.41 -3.15,-2.9 -2.7,-5.2 -3.42,-8 5.33,-17.72 13.3,-22.4 a 55,55 0 0 1 9.3,-13.3 c 8.08,-7.67 5.66,-9.23 6.7,-17.7 -0.78,-7.09 5,-11.5 7.3,-17.79 7.28,-8 2.05,-26.43 6,-36.3 2.79,-5.66 10.37,-11.32 7.3,-18.9 -3,9.11 -10.63,11.65 -12.3,19.7 -1,7.48 -1.56,16.34 -2.1,25 -2.76,9.27 -9,14.73 -12.6,21.69 -3,2.41 1.5,11.51 -3.3,18.41 -2.6,2.65 -5.39,7.38 -8.5,9.29 -3.52,-0.6 -4.17,1.2 -6.6,2.71 -0.69,4.63 -5.69,6.56 -6.6,10.49 -3.31,2.1 -2.3,9.28 -7.3,9.9 0.41,1.44 -1.71,0 -1.3,1.41 -10.2,1.7 5.8,7.9 6.6,11.2 0,3.47 1,6.64 1.4,9.19 1.44,-0.4 0,1.71 1.4,1.31 -0.35,2.61 2.4,4 2.1,6.59 1.2,-0.51 0.53,1.52 0.7,2 1.19,-0.53 0.53,1.51 0.7,2 3.65,4.57 -0.33,11.5 -1.9,17.79 7.39,-1.93 10.28,6 12.6,9.11 -0.4,4.79 5.7,7.79 5.3,12.59 3.66,5 -3.4,12.56 -8.5,11.8 0.92,1.5 -5,0.37 -5.3,0.71 -3.8,2.69 -1.3,7.49 3.9,6.69 11.43,1.35 5.79,-8.71 16.5,-7.9 8.69,5.29 -2.29,27.31 15.2,20.01 z M 1122,49.58 h 2.7 c 0.8,-5.1 -6.2,-3.5 -2.7,0 z m 94.8,568.8 c -4.6,3.9 -8,8.6 -13.8,11.8 3.7,10.82 14.5,-4.8 13.8,-11.8 z m -736.6,103.3 c 0.2,2.6 -4.1,2.7 -5.9,3.9 0.5,3.8 8.1,3.3 11.2,3.3 -1,1.47 5.63,0.39 5.9,0.71 1.5,1.89 7,0.59 9.9,1.39 -1.2,-1.9 -5.5,0.3 -5.9,-2.1 h -2.6 c 0.49,-1.19 -1.49,-0.53 -2,-0.7 -1.44,-3.15 -6.2,-5 -6.6,-8.5 -2,0 -0.54,-2.91 -2,-2.7 -1.58,-2.52 -0.31,3.54 -2,4.7 z M 1294.4,889 c -2,0.59 -1.6,5.4 -4.7,6.5 v 1.3 c -4.3,5 -1.43,4.11 3.8,4.1 8.72,-8.88 4.56,-15 7.4,-25.2 -0.35,-2.45 1.06,-4.16 0.7,-6.6 3.6,-3.5 -2.5,-8.9 -1.3,-12.5 -1.73,0.61 0.33,-3.2 -1.4,-2.6 -0.25,-0.55 0.7,-4.58 -0.7,-3.9 -0.3,-6.46 0.56,-13.36 2.1,-17.79 5.6,-8.1 -2.64,-21 11.3,-22.4 -0.4,-1.61 2.9,-0.41 2.6,-2 1.56,0.23 2.31,-2 3.9,-2.69 2.86,-6.34 0,-10.66 -5.3,-15.11 -1.47,-10.88 -4.38,-30.39 0,-40.2 0.22,-1.37 1.46,-7.53 3.5,-8.5 -0.6,-2.3 3.3,-2.3 2.6,-4.6 1.61,-0.78 2,-2.2 2,-3.89 1.17,0.54 0.55,-1.54 0.7,-2 3.63,-5 1.15,-18.93 4.9,-25.7 -0.13,-2.19 1.09,-0.53 0.7,-3.3 1.43,0.43 0,-1.72 1.4,-1.3 -0.23,-4 3.24,-9.06 4.7,-13.09 -7.14,4.08 -8.42,13.13 -12.5,17.89 1.09,8.23 0,14 -1.4,20.3 -1.27,-0.58 -0.49,2.13 -0.7,2.61 -1.2,-0.44 -0.53,1.45 -0.7,2 -1.19,-0.44 -0.53,1.45 -0.7,2 -1.44,-0.4 0,1.69 -1.4,1.29 -5.36,10.61 -11.09,17.37 -5.3,31.71 0.28,8.89 -3.19,15.4 -2.6,22.39 0.22,1 -0.86,5.39 -2.1,5.21 v 1.29 c -5.2,4.7 -4.8,3.1 -11.9,3.3 -2.78,2.72 -5.09,8.36 -0.1,11.21 1.31,2.43 4.09,18.59 0.6,20.39 v 1.3 c -1.9,-0.2 -0.8,4.1 -2.7,3.9 v 1.3 c -3.7,1.8 2.2,10 -1.4,11.2 -0.88,5.42 -6.76,4.91 -7.2,10.6 19.45,-11.5 10.6,20.31 11.2,31.58 z m 44.2,-36.3 c 0.58,-2 3.22,-4.48 -0.6,-4 -2.25,2 -3.73,3 -3.4,7.31 2.9,-0.23 1.8,-2.93 4,-3.33 z M 1763.8,119 c 8.21,-17.41 11.32,-33.75 -1.3,-4 0.25,0.39 -0.64,4 0.7,3.29 -0.04,0.51 -0.02,0.83 0.6,0.71 z M 656.6,771.08 c 0.5,3.3 -2,3.3 -2,7.3 9.4,0.62 12.4,-26.53 2,-7.3 z M 649.4,752 c 1.51,1.75 4.73,-2.91 4.6,-5.19 -4.4,-0.23 -7.6,2.27 -4.6,5.19 z m 42.1,-28.3 c -0.69,4.45 6.68,7.55 8,2.6 5.61,-2.58 -4.19,-3.63 -8,-2.62 z m 0,-48.7 c -6.4,-2.36 -6.38,2.42 -1.3,4.6 3.86,0.49 3.64,-1.91 1.3,-4.6 z M 548.7,775.68 c 1.7,-0.7 3.1,-1.1 3.3,-2.7 -2.4,0.3 -2.8,0.6 -3.3,2.7 z m 25,65.8 c 1.19,0.5 0.54,-1.49 0.7,-2 -1.19,-0.48 -0.54,1.52 -0.7,2 z m 272.5,-251.4 c 6.2,0.6 11.2,0.3 5.3,-6 -5,-1 -8.8,2.6 -5.3,6 z m -86.2,21 c 2.2,1.3 6.4,0.2 6.6,-2 -1.9,0.7 -6.9,-0.7 -6.6,2 z m 26.3,-57.2 c -1.93,-0.62 -1.14,1.56 -1.3,2.61 1.93,0.62 1.14,-1.56 1.3,-2.61 z m -19.8,-5.7 c 0.2,-0.1 0.3,-0.1 0.5,-0.2 -0.18,0.02 -0.48,-0.04 -0.5,0.2 z m -294.8,243.3 c -1,2.8 -1.3,9.7 2.6,9.8 1.8,-3.5 0.8,-9.2 -2.6,-9.8 z m 270.5,-188.9 c 0.2,2.5 1.1,3.4 3.3,3.9 -0.8,-1.9 -1.7,-3.48 -3.3,-3.9 z m 13.8,7.2 c -1.1,-1.2 -4.9,-2 -7.2,-2 -0.47,5.52 8.89,5.28 7.2,2 z m -277.7,-129 c -4.46,-7.12 -5.74,6.86 -7.3,10.6 3.6,-2.9 12.7,-5.38 7.3,-10.6 z m -106.7,83.6 v 3.3 c 2.5,-0.1 2.7,-3.2 0,-3.3 z m 25.7,119.8 c -4.7,2.34 -7.82,7 -10.5,11.9 5.43,-2.51 20.26,-7.18 10.5,-11.9 z m 18.4,69.1 c 5.65,-1.36 -1.37,-9.11 -6.7,-5.89 1.1,3.49 4.9,3.19 6.7,5.89 z m -60.5,-224.5 c -13.21,-1.18 -6.14,6 1.3,9.31 a 17.49,17.49 0 0 0 -1.3,-9.31 z m 48.7,238.3 c 5.46,-1.1 7.31,-2.32 9.9,2 4,1.09 9,-2.11 13.8,-0.71 2.55,4.64 11.6,9.26 7.9,0.6 -0.6,-4.3 -3.9,0.2 -5.3,-2.7 -2.8,0.1 -10.3,-7.3 -12,-9.9 -1.9,1.1 0,3.1 -2,3.3 V 761 c -2.89,1.87 -4.75,5.4 -9.3,2 -2.62,-2.85 -6.9,0.17 -3,4.08 z m 38.8,44.1 c 0,3.1 0.8,6.9 3.3,4.6 -0.4,-2.7 -0.9,-4.1 -3.3,-4.6 z M 336.1,677.58 c 3.4,0 4.4,-1.3 4.6,-4.6 -3.3,0.5 -6,1.9 -4.6,4.6 z m 327.8,-58.7 c 1.33,0.21 -0.14,-1.17 -0.7,-1.9 v 2.6 c 0.62,0.1 0.8,-0.07 0.7,-0.7 z m -269.2,115.9 c -0.09,-0.59 0.29,-1.46 -0.7,-1.19 v -5.31 c -1.8,-1.5 -9.8,2.1 -11.9,-0.7 -2.81,-0.31 -5.34,-2.05 -9.2,-2.7 0.5,3.7 0.8,5.8 4.6,6 7.87,-7.16 11.22,7.22 13.8,13.11 2.1,-3.41 9.6,-5.51 3.4,-9.21 z M 656,588.08 h 0.7 c 7.4,-8.8 -4.9,-13 -0.7,0 z M 344.5,729 c -1.3,1 -1.7,5.5 0.7,5.2 v -4.6 c -0.53,0.04 -0.82,0 -0.7,-0.6 z m 0,-0.1 z m 45.6,18.5 c -1.84,4.88 -1.12,11.17 5.9,10.5 -0.7,-2.02 -3.9,-10.52 -5.9,-10.52 z"
   />
</svg>
