<?xml version="1.0" encoding="UTF-8"?>
<svg width="45px" height="4px" viewBox="0 0 45 4" version="1.1" xmlns="http://www.w3.org/2000/svg" xmlns:xlink="http://www.w3.org/1999/xlink">
    <title>Squigle</title>
    <g id="Page-1" stroke="none" stroke-width="1" fill="none" fill-rule="evenodd">
        <g id="Desktop" transform="translate(-166.000000, -306.000000)" fill="#BAFEB6" fill-rule="nonzero">
            <g id="Hero" transform="translate(166.000000, 165.000000)">
                <path d="M0.619497719,144.937358 C0.281967881,145.006325 0,144.719526 0,144.37356 C0,144.027567 0.286776415,143.756957 0.612094104,143.643281 C0.759386548,143.591814 0.901727763,143.521204 1.03543751,143.431461 L3.87427081,141.526058 C4.9192723,140.824648 6.28069452,140.824647 7.32572919,141.526058 L10.1645559,143.431461 C10.7915567,143.852307 11.6084101,143.852307 12.2354441,143.431461 L15.0742708,141.526058 C16.1192723,140.824647 17.4806945,140.824647 18.5257292,141.526058 L21.3645559,143.431461 C21.9915567,143.852307 22.8084433,143.852307 23.4354441,143.431461 L26.2742708,141.526058 C27.3192723,140.824648 28.6806945,140.824647 29.7257292,141.526058 L32.5645559,143.431461 C33.1914904,143.852307 34.0085096,143.852307 34.6353778,143.431461 L37.4743704,141.526058 C38.5193719,140.824648 39.8806281,140.824647 40.9256296,141.526058 L43.7646222,143.431461 C43.8983585,143.521208 44.040723,143.591814 44.1880652,143.643284 C44.51328,143.756957 44.8,144.027567 44.8,144.37356 C44.8,144.719526 44.5179259,145.006325 44.1804326,144.937358 C43.7924978,144.858092 43.4165096,144.703626 43.0743704,144.473926 L40.2353778,142.56853 C39.6085096,142.147684 38.7914904,142.147684 38.1646222,142.568533 L35.3256296,144.473926 C34.2806281,145.175358 32.9192723,145.175358 31.8742708,144.473926 L29.0354441,142.56853 C28.4084433,142.147684 27.5915567,142.147684 26.9645559,142.56853 L24.1257292,144.473926 C23.0806945,145.175358 21.7192723,145.175358 20.6742708,144.473926 L17.8354441,142.56853 C17.2084101,142.147684 16.3915567,142.147684 15.7645559,142.56853 L12.9257292,144.473926 C11.8807277,145.175358 10.5192723,145.175358 9.47427081,144.473926 L6.63544415,142.56853 C6.00841007,142.147684 5.19155674,142.147684 4.56455585,142.56853 L1.7257325,144.473926 C1.38351028,144.703626 1.00735621,144.858092 0.619497719,144.937358 Z" id="Squigle"></path>
            </g>
        </g>
    </g>
</svg>